G04 Layer_Physical_Order=2*
G04 Layer_Color=16711680*
%FSLAX25Y25*%
%MOIN*%
G70*
G01*
G75*
%ADD22C,0.01000*%
%ADD23C,0.01575*%
%ADD24C,0.02500*%
%ADD25C,0.07087*%
%ADD26C,0.06000*%
%ADD27C,0.06693*%
%ADD28O,0.05500X0.07000*%
%ADD29R,0.05500X0.07000*%
%ADD30C,0.03937*%
%ADD31C,0.03543*%
%ADD32C,0.03347*%
G36*
X401634Y276831D02*
X401634Y964D01*
X1003Y964D01*
X1003Y276831D01*
X401634Y276831D01*
D02*
G37*
%LPC*%
G36*
X246980Y89328D02*
X246097Y89152D01*
X245348Y88652D01*
X244848Y87903D01*
X244672Y87020D01*
X244848Y86136D01*
X245348Y85388D01*
X245721Y85138D01*
Y75642D01*
X245494Y75490D01*
X244994Y74742D01*
X244818Y73858D01*
X244994Y72975D01*
X245494Y72226D01*
X246243Y71726D01*
X247126Y71550D01*
X248009Y71726D01*
X248758Y72226D01*
X249258Y72975D01*
X249434Y73858D01*
X249258Y74742D01*
X248758Y75490D01*
X248531Y75642D01*
Y85333D01*
X248612Y85388D01*
X249113Y86136D01*
X249289Y87020D01*
X249113Y87903D01*
X248612Y88652D01*
X247864Y89152D01*
X246980Y89328D01*
D02*
G37*
G36*
X27913Y61020D02*
X26834Y60878D01*
X25829Y60461D01*
X24965Y59799D01*
X24303Y58935D01*
X23886Y57929D01*
X23744Y56850D01*
X23886Y55771D01*
X24303Y54766D01*
X24965Y53902D01*
X25829Y53240D01*
X26834Y52823D01*
X27913Y52681D01*
X28993Y52823D01*
X29998Y53240D01*
X30862Y53902D01*
X31524Y54766D01*
X31941Y55771D01*
X32083Y56850D01*
X31941Y57929D01*
X31524Y58935D01*
X30862Y59799D01*
X29998Y60461D01*
X28993Y60878D01*
X27913Y61020D01*
D02*
G37*
G36*
Y89642D02*
X26834Y89500D01*
X25829Y89083D01*
X24965Y88421D01*
X24303Y87557D01*
X23886Y86552D01*
X23744Y85472D01*
X23886Y84393D01*
X24303Y83388D01*
X24965Y82524D01*
X25829Y81862D01*
X26834Y81445D01*
X27913Y81303D01*
X28993Y81445D01*
X29998Y81862D01*
X30862Y82524D01*
X31524Y83388D01*
X31941Y84393D01*
X32083Y85472D01*
X31941Y86552D01*
X31524Y87557D01*
X30862Y88421D01*
X29998Y89083D01*
X28993Y89500D01*
X27913Y89642D01*
D02*
G37*
G36*
X238268Y89277D02*
X237385Y89101D01*
X236636Y88601D01*
X236135Y87852D01*
X235960Y86968D01*
X236135Y86085D01*
X236636Y85336D01*
X237156Y84989D01*
Y76192D01*
X236636Y75845D01*
X236135Y75096D01*
X235960Y74213D01*
X236135Y73329D01*
X236636Y72580D01*
X237385Y72080D01*
X238268Y71904D01*
X239151Y72080D01*
X239900Y72580D01*
X240400Y73329D01*
X240576Y74213D01*
X240400Y75096D01*
X239900Y75845D01*
X239380Y76192D01*
Y84989D01*
X239900Y85336D01*
X240400Y86085D01*
X240576Y86968D01*
X240400Y87852D01*
X239900Y88601D01*
X239151Y89101D01*
X238268Y89277D01*
D02*
G37*
G36*
X67874Y54010D02*
X66846Y53875D01*
X65889Y53478D01*
X65066Y52847D01*
X64435Y52025D01*
X64038Y51067D01*
X63903Y50039D01*
X64038Y49012D01*
X64435Y48054D01*
X65066Y47232D01*
X65889Y46600D01*
X66846Y46204D01*
X67874Y46068D01*
X68902Y46204D01*
X69859Y46600D01*
X70682Y47232D01*
X71313Y48054D01*
X71710Y49012D01*
X71845Y50039D01*
X71710Y51067D01*
X71313Y52025D01*
X70682Y52847D01*
X69859Y53478D01*
X68902Y53875D01*
X67874Y54010D01*
D02*
G37*
G36*
X257323Y34592D02*
X256440Y34416D01*
X255691Y33916D01*
X255513Y33649D01*
X252650D01*
X252498Y33876D01*
X251749Y34376D01*
X250866Y34552D01*
X249983Y34376D01*
X249234Y33876D01*
X248734Y33127D01*
X248558Y32244D01*
X248734Y31361D01*
X249234Y30612D01*
X249983Y30112D01*
X250866Y29936D01*
X251749Y30112D01*
X252498Y30612D01*
X252650Y30839D01*
X255565D01*
X255691Y30651D01*
X256440Y30151D01*
X257323Y29975D01*
X258206Y30151D01*
X258955Y30651D01*
X259455Y31400D01*
X259631Y32283D01*
X259455Y33167D01*
X258955Y33916D01*
X258206Y34416D01*
X257323Y34592D01*
D02*
G37*
G36*
X188110Y65812D02*
X187227Y65636D01*
X186478Y65136D01*
X185978Y64387D01*
X185802Y63504D01*
X185978Y62621D01*
X186478Y61872D01*
X186705Y61720D01*
Y52374D01*
X186478Y52223D01*
X185978Y51474D01*
X185802Y50591D01*
X185978Y49707D01*
X186478Y48959D01*
X187227Y48458D01*
X188110Y48282D01*
X188994Y48458D01*
X189742Y48959D01*
X190243Y49707D01*
X190418Y50591D01*
X190243Y51474D01*
X189742Y52223D01*
X189515Y52374D01*
Y61720D01*
X189742Y61872D01*
X190243Y62621D01*
X190418Y63504D01*
X190243Y64387D01*
X189742Y65136D01*
X188994Y65636D01*
X188110Y65812D01*
D02*
G37*
G36*
X150551Y54010D02*
X149523Y53875D01*
X148566Y53478D01*
X147743Y52847D01*
X147112Y52025D01*
X146715Y51067D01*
X146580Y50039D01*
X146715Y49012D01*
X147112Y48054D01*
X147743Y47232D01*
X148566Y46600D01*
X149523Y46204D01*
X150551Y46068D01*
X151579Y46204D01*
X152537Y46600D01*
X153359Y47232D01*
X153990Y48054D01*
X154387Y49012D01*
X154522Y50039D01*
X154387Y51067D01*
X153990Y52025D01*
X153359Y52847D01*
X152537Y53478D01*
X151579Y53875D01*
X150551Y54010D01*
D02*
G37*
G36*
X27913Y109642D02*
X26834Y109500D01*
X25829Y109083D01*
X24965Y108421D01*
X24303Y107557D01*
X23886Y106552D01*
X23744Y105472D01*
X23886Y104393D01*
X24303Y103388D01*
X24965Y102524D01*
X25829Y101862D01*
X26834Y101445D01*
X27913Y101303D01*
X28993Y101445D01*
X29998Y101862D01*
X30862Y102524D01*
X31524Y103388D01*
X31941Y104393D01*
X32083Y105472D01*
X31941Y106552D01*
X31524Y107557D01*
X30862Y108421D01*
X29998Y109083D01*
X28993Y109500D01*
X27913Y109642D01*
D02*
G37*
G36*
X246980Y104412D02*
X246059Y104229D01*
X245277Y103707D01*
X244755Y102926D01*
X244572Y102004D01*
X244755Y101082D01*
X245277Y100301D01*
X246059Y99779D01*
X246980Y99595D01*
X247902Y99779D01*
X248683Y100301D01*
X249205Y101082D01*
X249389Y102004D01*
X249205Y102926D01*
X248683Y103707D01*
X247902Y104229D01*
X246980Y104412D01*
D02*
G37*
G36*
X306811Y111757D02*
X305928Y111581D01*
X305179Y111081D01*
X304805Y110521D01*
X286901D01*
X286553Y111041D01*
X285805Y111542D01*
X284921Y111718D01*
X284038Y111542D01*
X283289Y111041D01*
X282789Y110293D01*
X282613Y109409D01*
X282789Y108526D01*
X283289Y107777D01*
X284038Y107277D01*
X284921Y107101D01*
X285805Y107277D01*
X286553Y107777D01*
X286901Y108298D01*
X304858D01*
X305179Y107817D01*
X305928Y107316D01*
X306811Y107141D01*
X307694Y107316D01*
X308443Y107817D01*
X308943Y108565D01*
X309119Y109449D01*
X308943Y110332D01*
X308443Y111081D01*
X307694Y111581D01*
X306811Y111757D01*
D02*
G37*
G36*
X188110Y110694D02*
X187227Y110518D01*
X186478Y110018D01*
X185978Y109269D01*
X185802Y108386D01*
X185855Y108118D01*
X181446Y103708D01*
X180446D01*
X180246Y104006D01*
X179465Y104528D01*
X178543Y104712D01*
X177622Y104528D01*
X176840Y104006D01*
X176318Y103225D01*
X176135Y102303D01*
X176318Y101382D01*
X176840Y100600D01*
X177622Y100078D01*
X178543Y99895D01*
X179465Y100078D01*
X180246Y100600D01*
X180446Y100898D01*
X182028D01*
X182565Y101005D01*
X183021Y101310D01*
X187842Y106131D01*
X188110Y106078D01*
X188994Y106253D01*
X189742Y106754D01*
X190243Y107502D01*
X190418Y108386D01*
X190243Y109269D01*
X189742Y110018D01*
X188994Y110518D01*
X188110Y110694D01*
D02*
G37*
G36*
X150906Y92317D02*
X149878Y92182D01*
X148920Y91785D01*
X148098Y91154D01*
X147467Y90332D01*
X147070Y89374D01*
X146934Y88346D01*
X147070Y87319D01*
X147467Y86361D01*
X148098Y85539D01*
X148920Y84908D01*
X149878Y84511D01*
X150906Y84376D01*
X151933Y84511D01*
X152891Y84908D01*
X153713Y85539D01*
X154344Y86361D01*
X154741Y87319D01*
X154876Y88346D01*
X154741Y89374D01*
X154344Y90332D01*
X153713Y91154D01*
X152891Y91785D01*
X151933Y92182D01*
X150906Y92317D01*
D02*
G37*
G36*
X82008D02*
X80980Y92182D01*
X80022Y91785D01*
X79200Y91154D01*
X78569Y90332D01*
X78172Y89374D01*
X78037Y88346D01*
X78172Y87319D01*
X78569Y86361D01*
X79200Y85539D01*
X80022Y84908D01*
X80980Y84511D01*
X82008Y84376D01*
X83036Y84511D01*
X83993Y84908D01*
X84816Y85539D01*
X85447Y86361D01*
X85843Y87319D01*
X85979Y88346D01*
X85843Y89374D01*
X85447Y90332D01*
X84816Y91154D01*
X83993Y91785D01*
X83036Y92182D01*
X82008Y92317D01*
D02*
G37*
G36*
X238386Y108590D02*
X237464Y108406D01*
X236683Y107884D01*
X236161Y107103D01*
X235977Y106181D01*
X236161Y105259D01*
X236683Y104478D01*
X237156Y104162D01*
Y100365D01*
X236636Y100018D01*
X236135Y99269D01*
X235960Y98386D01*
X236135Y97502D01*
X236636Y96754D01*
X237385Y96253D01*
X238268Y96078D01*
X239151Y96253D01*
X239900Y96754D01*
X240400Y97502D01*
X240576Y98386D01*
X240400Y99269D01*
X239900Y100018D01*
X239380Y100365D01*
Y104004D01*
X240089Y104478D01*
X240611Y105259D01*
X240794Y106181D01*
X240611Y107103D01*
X240089Y107884D01*
X239307Y108406D01*
X238386Y108590D01*
D02*
G37*
G36*
X242605Y94433D02*
X242480Y94408D01*
X242356Y94433D01*
X241588Y94280D01*
X241482Y94210D01*
X241357Y94185D01*
X240706Y93750D01*
X240635Y93644D01*
X240530Y93574D01*
X240095Y92922D01*
X240070Y92798D01*
X239999Y92692D01*
X239846Y91924D01*
X239859Y91860D01*
X239834Y91799D01*
X239859Y91739D01*
X239846Y91675D01*
X239999Y90906D01*
X240070Y90801D01*
X240095Y90676D01*
X240530Y90025D01*
X240635Y89954D01*
X240706Y89849D01*
X241357Y89413D01*
X241482Y89389D01*
X241588Y89318D01*
X242356Y89165D01*
X242480Y89190D01*
X242605Y89165D01*
X243373Y89318D01*
X243479Y89389D01*
X243603Y89413D01*
X244255Y89849D01*
X244325Y89954D01*
X244431Y90025D01*
X244866Y90676D01*
X244891Y90801D01*
X244962Y90906D01*
X245114Y91675D01*
X245102Y91739D01*
X245127Y91799D01*
X245102Y91860D01*
X245114Y91924D01*
X244962Y92692D01*
X244891Y92798D01*
X244866Y92922D01*
X244431Y93574D01*
X244325Y93644D01*
X244255Y93750D01*
X243603Y94185D01*
X243479Y94210D01*
X243373Y94280D01*
X242605Y94433D01*
D02*
G37*
G36*
X242047Y18332D02*
X241175Y18217D01*
X240363Y17881D01*
X239665Y17345D01*
X239129Y16647D01*
X238793Y15835D01*
X238678Y14963D01*
Y13463D01*
X238793Y12591D01*
X239129Y11778D01*
X239665Y11080D01*
X240363Y10545D01*
X241175Y10208D01*
X242047Y10093D01*
X242919Y10208D01*
X243732Y10545D01*
X244430Y11080D01*
X244965Y11778D01*
X245302Y12591D01*
X245417Y13463D01*
Y14963D01*
X245302Y15835D01*
X244965Y16647D01*
X244430Y17345D01*
X243732Y17881D01*
X242919Y18217D01*
X242047Y18332D01*
D02*
G37*
G36*
X232047D02*
X231175Y18217D01*
X230363Y17881D01*
X229665Y17345D01*
X229129Y16647D01*
X228793Y15835D01*
X228678Y14963D01*
Y13463D01*
X228793Y12591D01*
X229129Y11778D01*
X229665Y11080D01*
X230363Y10545D01*
X231175Y10208D01*
X232047Y10093D01*
X232919Y10208D01*
X233732Y10545D01*
X234430Y11080D01*
X234965Y11778D01*
X235302Y12591D01*
X235417Y13463D01*
Y14963D01*
X235302Y15835D01*
X234965Y16647D01*
X234430Y17345D01*
X233732Y17881D01*
X232919Y18217D01*
X232047Y18332D01*
D02*
G37*
G36*
X27913Y21020D02*
X26834Y20878D01*
X25829Y20461D01*
X24965Y19799D01*
X24303Y18935D01*
X23886Y17930D01*
X23744Y16850D01*
X23886Y15771D01*
X24303Y14766D01*
X24965Y13902D01*
X25829Y13239D01*
X26834Y12823D01*
X27913Y12681D01*
X28993Y12823D01*
X29998Y13239D01*
X30862Y13902D01*
X31524Y14766D01*
X31941Y15771D01*
X32083Y16850D01*
X31941Y17930D01*
X31524Y18935D01*
X30862Y19799D01*
X29998Y20461D01*
X28993Y20878D01*
X27913Y21020D01*
D02*
G37*
G36*
X252047Y18332D02*
X251175Y18217D01*
X250363Y17881D01*
X249665Y17345D01*
X249129Y16647D01*
X248793Y15835D01*
X248678Y14963D01*
Y13463D01*
X248793Y12591D01*
X249129Y11778D01*
X249665Y11080D01*
X250363Y10545D01*
X251175Y10208D01*
X252047Y10093D01*
X252919Y10208D01*
X253732Y10545D01*
X254430Y11080D01*
X254965Y11778D01*
X255302Y12591D01*
X255417Y13463D01*
Y14963D01*
X255302Y15835D01*
X254965Y16647D01*
X254430Y17345D01*
X253732Y17881D01*
X252919Y18217D01*
X252047Y18332D01*
D02*
G37*
G36*
X225615Y13819D02*
X222441D01*
Y9946D01*
X222971Y10016D01*
X223831Y10373D01*
X224570Y10940D01*
X225137Y11679D01*
X225494Y12539D01*
X225615Y13463D01*
Y13819D01*
D02*
G37*
G36*
X221654D02*
X218479D01*
Y13463D01*
X218601Y12539D01*
X218957Y11679D01*
X219524Y10940D01*
X220263Y10373D01*
X221124Y10016D01*
X221654Y9946D01*
Y13819D01*
D02*
G37*
G36*
X212047Y18332D02*
X211175Y18217D01*
X210363Y17881D01*
X209665Y17345D01*
X209129Y16647D01*
X208793Y15835D01*
X208678Y14963D01*
Y13463D01*
X208793Y12591D01*
X209129Y11778D01*
X209665Y11080D01*
X210363Y10545D01*
X211175Y10208D01*
X212047Y10093D01*
X212919Y10208D01*
X213732Y10545D01*
X214430Y11080D01*
X214965Y11778D01*
X215302Y12591D01*
X215417Y13463D01*
Y14963D01*
X215302Y15835D01*
X214965Y16647D01*
X214430Y17345D01*
X213732Y17881D01*
X212919Y18217D01*
X212047Y18332D01*
D02*
G37*
G36*
X204797Y18352D02*
X199297D01*
X198845Y18165D01*
X198658Y17713D01*
Y10713D01*
X198845Y10261D01*
X199297Y10073D01*
X204797D01*
X205249Y10261D01*
X205436Y10713D01*
Y17713D01*
X205249Y18165D01*
X204797Y18352D01*
D02*
G37*
G36*
X188110Y43174D02*
X187227Y42999D01*
X186478Y42498D01*
X185978Y41749D01*
X185802Y40866D01*
X185855Y40598D01*
X183600Y38342D01*
X183346Y38393D01*
X182425Y38209D01*
X181643Y37687D01*
X181121Y36906D01*
X180938Y35984D01*
X181121Y35063D01*
X181643Y34281D01*
X182425Y33759D01*
X183346Y33576D01*
X184268Y33759D01*
X185049Y34281D01*
X185572Y35063D01*
X185755Y35984D01*
X185665Y36434D01*
X187842Y38611D01*
X188110Y38558D01*
X188378Y38611D01*
X190800Y36190D01*
Y30367D01*
X190573Y30215D01*
X190072Y29466D01*
X189897Y28583D01*
X190072Y27699D01*
X190573Y26951D01*
X191321Y26450D01*
X192205Y26274D01*
X193088Y26450D01*
X193837Y26951D01*
X194337Y27699D01*
X194513Y28583D01*
X194337Y29466D01*
X193837Y30215D01*
X193610Y30367D01*
Y36772D01*
X193503Y37309D01*
X193198Y37765D01*
X190365Y40598D01*
X190418Y40866D01*
X190243Y41749D01*
X189742Y42498D01*
X188994Y42999D01*
X188110Y43174D01*
D02*
G37*
G36*
X150551Y24483D02*
X149523Y24348D01*
X148566Y23951D01*
X147743Y23320D01*
X147112Y22497D01*
X146715Y21540D01*
X146580Y20512D01*
X146715Y19484D01*
X147112Y18526D01*
X147743Y17704D01*
X148566Y17073D01*
X149523Y16676D01*
X150551Y16541D01*
X151579Y16676D01*
X152537Y17073D01*
X153359Y17704D01*
X153990Y18526D01*
X154387Y19484D01*
X154522Y20512D01*
X154387Y21540D01*
X153990Y22497D01*
X153359Y23320D01*
X152537Y23951D01*
X151579Y24348D01*
X150551Y24483D01*
D02*
G37*
G36*
X27913Y41020D02*
X26834Y40878D01*
X25829Y40461D01*
X24965Y39799D01*
X24303Y38935D01*
X23886Y37929D01*
X23744Y36850D01*
X23886Y35771D01*
X24303Y34766D01*
X24965Y33902D01*
X25829Y33239D01*
X26834Y32823D01*
X27913Y32681D01*
X28993Y32823D01*
X29998Y33239D01*
X30862Y33902D01*
X31524Y34766D01*
X31941Y35771D01*
X32083Y36850D01*
X31941Y37929D01*
X31524Y38935D01*
X30862Y39799D01*
X29998Y40461D01*
X28993Y40878D01*
X27913Y41020D01*
D02*
G37*
G36*
X293622Y82824D02*
X293170Y82637D01*
X292983Y82185D01*
X292983Y32972D01*
X293170Y32520D01*
X293622Y32333D01*
X356025Y32333D01*
X356477Y32520D01*
X356664Y32972D01*
X356664Y82185D01*
X356477Y82637D01*
X356025Y82824D01*
X293622Y82824D01*
D02*
G37*
G36*
X222441Y18479D02*
Y14606D01*
X225615D01*
Y14963D01*
X225494Y15886D01*
X225137Y16747D01*
X224570Y17485D01*
X223831Y18053D01*
X222971Y18409D01*
X222441Y18479D01*
D02*
G37*
G36*
X221654D02*
X221124Y18409D01*
X220263Y18053D01*
X219524Y17485D01*
X218957Y16747D01*
X218601Y15886D01*
X218479Y14963D01*
Y14606D01*
X221654D01*
Y18479D01*
D02*
G37*
G36*
X81653Y24483D02*
X80626Y24348D01*
X79668Y23951D01*
X78846Y23320D01*
X78215Y22497D01*
X77818Y21540D01*
X77683Y20512D01*
X77818Y19484D01*
X78215Y18526D01*
X78846Y17704D01*
X79668Y17073D01*
X80626Y16676D01*
X81653Y16541D01*
X82681Y16676D01*
X83639Y17073D01*
X84461Y17704D01*
X85093Y18526D01*
X85489Y19484D01*
X85624Y20512D01*
X85489Y21540D01*
X85093Y22497D01*
X84461Y23320D01*
X83639Y23951D01*
X82681Y24348D01*
X81653Y24483D01*
D02*
G37*
G36*
X324882Y17229D02*
X323999Y17054D01*
X323250Y16553D01*
X322749Y15804D01*
X322717Y15640D01*
X303607D01*
X303286Y16120D01*
X302537Y16621D01*
X301654Y16796D01*
X300770Y16621D01*
X300021Y16120D01*
X299521Y15371D01*
X299345Y14488D01*
X299521Y13605D01*
X299827Y13147D01*
X299559Y12647D01*
X298791D01*
X298443Y13168D01*
X297694Y13668D01*
X296811Y13844D01*
X295928Y13668D01*
X295179Y13168D01*
X294679Y12419D01*
X294503Y11535D01*
X294679Y10652D01*
X295179Y9903D01*
X295928Y9403D01*
X296811Y9227D01*
X297694Y9403D01*
X298443Y9903D01*
X298791Y10424D01*
X307181D01*
X307423Y10061D01*
X308172Y9561D01*
X309055Y9385D01*
X309938Y9561D01*
X310687Y10061D01*
X311188Y10810D01*
X311363Y11693D01*
X311188Y12576D01*
X310961Y12916D01*
X311228Y13416D01*
X323165D01*
X323250Y13289D01*
X323999Y12789D01*
X324882Y12613D01*
X325765Y12789D01*
X326514Y13289D01*
X327014Y14038D01*
X327190Y14921D01*
X327014Y15804D01*
X326514Y16553D01*
X325765Y17054D01*
X324882Y17229D01*
D02*
G37*
G36*
X68228Y121845D02*
X67201Y121710D01*
X66243Y121313D01*
X65420Y120682D01*
X64789Y119860D01*
X64393Y118902D01*
X64257Y117874D01*
X64393Y116846D01*
X64789Y115889D01*
X65420Y115066D01*
X66243Y114435D01*
X67201Y114038D01*
X68228Y113903D01*
X69256Y114038D01*
X70214Y114435D01*
X71036Y115066D01*
X71667Y115889D01*
X72064Y116846D01*
X72199Y117874D01*
X72064Y118902D01*
X71667Y119860D01*
X71036Y120682D01*
X70214Y121313D01*
X69256Y121710D01*
X68228Y121845D01*
D02*
G37*
G36*
X215472Y220000D02*
X214535Y219876D01*
X213662Y219514D01*
X212912Y218939D01*
X212336Y218189D01*
X211974Y217315D01*
X211851Y216378D01*
X211974Y215441D01*
X212336Y214567D01*
X212912Y213817D01*
X213662Y213242D01*
X214535Y212880D01*
X215472Y212756D01*
X216410Y212880D01*
X217283Y213242D01*
X218033Y213817D01*
X218609Y214567D01*
X218971Y215441D01*
X219094Y216378D01*
X218971Y217315D01*
X218609Y218189D01*
X218033Y218939D01*
X217283Y219514D01*
X216410Y219876D01*
X215472Y220000D01*
D02*
G37*
G36*
X315709Y247017D02*
X235709D01*
X235257Y246830D01*
X235069Y246378D01*
Y196378D01*
X235257Y195926D01*
X235709Y195739D01*
X315709D01*
X316161Y195926D01*
X316348Y196378D01*
Y246378D01*
X316161Y246830D01*
X315709Y247017D01*
D02*
G37*
G36*
X27913Y225744D02*
X26834Y225602D01*
X25829Y225186D01*
X24965Y224523D01*
X24303Y223660D01*
X23886Y222654D01*
X23744Y221575D01*
X23886Y220496D01*
X24303Y219490D01*
X24965Y218626D01*
X25829Y217964D01*
X26834Y217547D01*
X27913Y217405D01*
X28993Y217547D01*
X29998Y217964D01*
X30862Y218626D01*
X31524Y219490D01*
X31941Y220496D01*
X32083Y221575D01*
X31941Y222654D01*
X31524Y223660D01*
X30862Y224523D01*
X29998Y225186D01*
X28993Y225602D01*
X27913Y225744D01*
D02*
G37*
G36*
X360827Y225548D02*
X359748Y225405D01*
X358742Y224989D01*
X357878Y224326D01*
X357216Y223463D01*
X356799Y222457D01*
X356657Y221378D01*
X356799Y220299D01*
X357216Y219293D01*
X357878Y218430D01*
X358742Y217767D01*
X359748Y217351D01*
X360827Y217208D01*
X361906Y217351D01*
X362912Y217767D01*
X363775Y218430D01*
X364438Y219293D01*
X364854Y220299D01*
X364996Y221378D01*
X364854Y222457D01*
X364438Y223463D01*
X363775Y224326D01*
X362912Y224989D01*
X361906Y225405D01*
X360827Y225548D01*
D02*
G37*
G36*
X215866Y190146D02*
Y186772D01*
X219241D01*
X219162Y187367D01*
X218781Y188288D01*
X218174Y189079D01*
X217383Y189686D01*
X216461Y190068D01*
X215866Y190146D01*
D02*
G37*
G36*
X215079Y190146D02*
X214484Y190068D01*
X213562Y189686D01*
X212771Y189079D01*
X212164Y188288D01*
X211783Y187367D01*
X211704Y186772D01*
X215079D01*
Y190146D01*
D02*
G37*
G36*
X373543Y197795D02*
X372606Y197671D01*
X371732Y197310D01*
X370983Y196734D01*
X370407Y195984D01*
X370045Y195110D01*
X369922Y194173D01*
X370045Y193236D01*
X370407Y192362D01*
X370983Y191612D01*
X371732Y191037D01*
X372606Y190675D01*
X373543Y190552D01*
X374481Y190675D01*
X375354Y191037D01*
X376104Y191612D01*
X376680Y192362D01*
X377041Y193236D01*
X377165Y194173D01*
X377041Y195110D01*
X376680Y195984D01*
X376104Y196734D01*
X375354Y197310D01*
X374481Y197671D01*
X373543Y197795D01*
D02*
G37*
G36*
X27874Y198067D02*
X26795Y197925D01*
X25789Y197509D01*
X24926Y196846D01*
X24263Y195982D01*
X23847Y194977D01*
X23705Y193898D01*
X23847Y192818D01*
X24263Y191813D01*
X24926Y190949D01*
X25789Y190287D01*
X26795Y189870D01*
X27874Y189728D01*
X28953Y189870D01*
X29959Y190287D01*
X30822Y190949D01*
X31485Y191813D01*
X31901Y192818D01*
X32043Y193898D01*
X31901Y194977D01*
X31485Y195982D01*
X30822Y196846D01*
X29959Y197509D01*
X28953Y197925D01*
X27874Y198067D01*
D02*
G37*
G36*
X67874Y260270D02*
X66846Y260135D01*
X65889Y259738D01*
X65066Y259107D01*
X64435Y258285D01*
X64038Y257327D01*
X63903Y256299D01*
X64038Y255272D01*
X64435Y254314D01*
X65066Y253491D01*
X65889Y252860D01*
X66846Y252464D01*
X67874Y252328D01*
X68902Y252464D01*
X69859Y252860D01*
X70682Y253491D01*
X71313Y254314D01*
X71710Y255272D01*
X71845Y256299D01*
X71710Y257327D01*
X71313Y258285D01*
X70682Y259107D01*
X69859Y259738D01*
X68902Y260135D01*
X67874Y260270D01*
D02*
G37*
G36*
X325709Y249999D02*
X324771Y249876D01*
X323898Y249514D01*
X323148Y248939D01*
X322572Y248189D01*
X322211Y247315D01*
X322087Y246378D01*
X322211Y245441D01*
X322572Y244567D01*
X323148Y243817D01*
X323898Y243242D01*
X324771Y242880D01*
X325709Y242756D01*
X326646Y242880D01*
X327519Y243242D01*
X328270Y243817D01*
X328845Y244567D01*
X329207Y245441D01*
X329330Y246378D01*
X329207Y247315D01*
X328845Y248189D01*
X328270Y248939D01*
X327519Y249514D01*
X326646Y249876D01*
X325709Y249999D01*
D02*
G37*
G36*
X27913Y265744D02*
X26834Y265602D01*
X25829Y265186D01*
X24965Y264523D01*
X24303Y263660D01*
X23886Y262654D01*
X23744Y261575D01*
X23886Y260496D01*
X24303Y259490D01*
X24965Y258627D01*
X25829Y257964D01*
X26834Y257547D01*
X27913Y257405D01*
X28993Y257547D01*
X29998Y257964D01*
X30862Y258627D01*
X31524Y259490D01*
X31941Y260496D01*
X32083Y261575D01*
X31941Y262654D01*
X31524Y263660D01*
X30862Y264523D01*
X29998Y265186D01*
X28993Y265602D01*
X27913Y265744D01*
D02*
G37*
G36*
X150551Y260270D02*
X149523Y260135D01*
X148566Y259738D01*
X147743Y259107D01*
X147112Y258285D01*
X146715Y257327D01*
X146580Y256299D01*
X146715Y255272D01*
X147112Y254314D01*
X147743Y253491D01*
X148566Y252860D01*
X149523Y252464D01*
X150551Y252328D01*
X151579Y252464D01*
X152537Y252860D01*
X153359Y253491D01*
X153990Y254314D01*
X154387Y255272D01*
X154522Y256299D01*
X154387Y257327D01*
X153990Y258285D01*
X153359Y259107D01*
X152537Y259738D01*
X151579Y260135D01*
X150551Y260270D01*
D02*
G37*
G36*
Y230743D02*
X149523Y230607D01*
X148566Y230211D01*
X147743Y229580D01*
X147112Y228757D01*
X146715Y227799D01*
X146580Y226772D01*
X146715Y225744D01*
X147112Y224786D01*
X147743Y223964D01*
X148566Y223333D01*
X149523Y222936D01*
X150551Y222801D01*
X151579Y222936D01*
X152537Y223333D01*
X153359Y223964D01*
X153990Y224786D01*
X154387Y225744D01*
X154522Y226772D01*
X154387Y227799D01*
X153990Y228757D01*
X153359Y229580D01*
X152537Y230211D01*
X151579Y230607D01*
X150551Y230743D01*
D02*
G37*
G36*
X81653D02*
X80626Y230607D01*
X79668Y230211D01*
X78846Y229580D01*
X78215Y228757D01*
X77818Y227799D01*
X77683Y226772D01*
X77818Y225744D01*
X78215Y224786D01*
X78846Y223964D01*
X79668Y223333D01*
X80626Y222936D01*
X81653Y222801D01*
X82681Y222936D01*
X83639Y223333D01*
X84461Y223964D01*
X85093Y224786D01*
X85489Y225744D01*
X85624Y226772D01*
X85489Y227799D01*
X85093Y228757D01*
X84461Y229580D01*
X83639Y230211D01*
X82681Y230607D01*
X81653Y230743D01*
D02*
G37*
G36*
X27913Y245744D02*
X26834Y245602D01*
X25829Y245186D01*
X24965Y244523D01*
X24303Y243660D01*
X23886Y242654D01*
X23744Y241575D01*
X23886Y240496D01*
X24303Y239490D01*
X24965Y238627D01*
X25829Y237964D01*
X26834Y237547D01*
X27913Y237405D01*
X28993Y237547D01*
X29998Y237964D01*
X30862Y238627D01*
X31524Y239490D01*
X31941Y240496D01*
X32083Y241575D01*
X31941Y242654D01*
X31524Y243660D01*
X30862Y244523D01*
X29998Y245186D01*
X28993Y245602D01*
X27913Y245744D01*
D02*
G37*
G36*
X360827Y245548D02*
X359748Y245405D01*
X358742Y244989D01*
X357878Y244326D01*
X357216Y243463D01*
X356799Y242457D01*
X356657Y241378D01*
X356799Y240299D01*
X357216Y239293D01*
X357878Y238430D01*
X358742Y237767D01*
X359748Y237351D01*
X360827Y237208D01*
X361906Y237351D01*
X362912Y237767D01*
X363775Y238430D01*
X364438Y239293D01*
X364854Y240299D01*
X364996Y241378D01*
X364854Y242457D01*
X364438Y243463D01*
X363775Y244326D01*
X362912Y244989D01*
X361906Y245405D01*
X360827Y245548D01*
D02*
G37*
G36*
X150709Y191254D02*
X149681Y191119D01*
X148723Y190722D01*
X147901Y190091D01*
X147270Y189269D01*
X146873Y188311D01*
X146738Y187284D01*
X146873Y186256D01*
X147270Y185298D01*
X147901Y184476D01*
X148723Y183844D01*
X149681Y183448D01*
X150709Y183312D01*
X151736Y183448D01*
X152694Y183844D01*
X153517Y184476D01*
X154148Y185298D01*
X154544Y186256D01*
X154680Y187284D01*
X154544Y188311D01*
X154148Y189269D01*
X153517Y190091D01*
X152694Y190722D01*
X151736Y191119D01*
X150709Y191254D01*
D02*
G37*
G36*
X27874Y158067D02*
X26795Y157925D01*
X25789Y157509D01*
X24926Y156846D01*
X24263Y155982D01*
X23847Y154977D01*
X23705Y153898D01*
X23847Y152819D01*
X24263Y151813D01*
X24926Y150949D01*
X25789Y150287D01*
X26795Y149870D01*
X27874Y149728D01*
X28953Y149870D01*
X29959Y150287D01*
X30822Y150949D01*
X31485Y151813D01*
X31901Y152819D01*
X32043Y153898D01*
X31901Y154977D01*
X31485Y155982D01*
X30822Y156846D01*
X29959Y157509D01*
X28953Y157925D01*
X27874Y158067D01*
D02*
G37*
G36*
X239252Y138174D02*
X238369Y137999D01*
X237620Y137498D01*
X237442Y137232D01*
X225012D01*
X224860Y137459D01*
X224112Y137959D01*
X223228Y138135D01*
X222345Y137959D01*
X221596Y137459D01*
X221096Y136710D01*
X220920Y135827D01*
X221096Y134943D01*
X221596Y134195D01*
X222345Y133694D01*
X223228Y133519D01*
X224112Y133694D01*
X224860Y134195D01*
X225012Y134422D01*
X230009D01*
X244832Y119599D01*
X244778Y119331D01*
X244954Y118447D01*
X245455Y117699D01*
X246203Y117198D01*
X247087Y117023D01*
X247970Y117198D01*
X248719Y117699D01*
X249219Y118447D01*
X249395Y119331D01*
X249219Y120214D01*
X248719Y120963D01*
X247970Y121463D01*
X247087Y121639D01*
X246819Y121586D01*
X234444Y133960D01*
X234636Y134422D01*
X237494D01*
X237620Y134234D01*
X238369Y133734D01*
X239252Y133558D01*
X240135Y133734D01*
X240884Y134234D01*
X241384Y134983D01*
X241560Y135866D01*
X241384Y136749D01*
X240884Y137498D01*
X240135Y137999D01*
X239252Y138174D01*
D02*
G37*
G36*
X150709Y161727D02*
X149681Y161592D01*
X148723Y161195D01*
X147901Y160564D01*
X147270Y159741D01*
X146873Y158784D01*
X146738Y157756D01*
X146873Y156728D01*
X147270Y155770D01*
X147901Y154948D01*
X148723Y154317D01*
X149681Y153920D01*
X150709Y153785D01*
X151736Y153920D01*
X152694Y154317D01*
X153517Y154948D01*
X154148Y155770D01*
X154544Y156728D01*
X154680Y157756D01*
X154544Y158784D01*
X154148Y159741D01*
X153517Y160564D01*
X152694Y161195D01*
X151736Y161592D01*
X150709Y161727D01*
D02*
G37*
G36*
X81811D02*
X80783Y161592D01*
X79826Y161195D01*
X79003Y160564D01*
X78372Y159741D01*
X77975Y158784D01*
X77840Y157756D01*
X77975Y156728D01*
X78372Y155770D01*
X79003Y154948D01*
X79826Y154317D01*
X80783Y153920D01*
X81811Y153785D01*
X82839Y153920D01*
X83797Y154317D01*
X84619Y154948D01*
X85250Y155770D01*
X85647Y156728D01*
X85782Y157756D01*
X85647Y158784D01*
X85250Y159741D01*
X84619Y160564D01*
X83797Y161195D01*
X82839Y161592D01*
X81811Y161727D01*
D02*
G37*
G36*
X242605Y118843D02*
X242480Y118818D01*
X242356Y118843D01*
X241588Y118690D01*
X241482Y118619D01*
X241357Y118594D01*
X240706Y118159D01*
X240635Y118054D01*
X240530Y117983D01*
X240095Y117332D01*
X240070Y117207D01*
X239999Y117101D01*
X239846Y116333D01*
X239859Y116269D01*
X239834Y116209D01*
X239859Y116148D01*
X239846Y116084D01*
X239999Y115316D01*
X240070Y115210D01*
X240095Y115085D01*
X240530Y114434D01*
X240635Y114364D01*
X240706Y114258D01*
X241357Y113823D01*
X241482Y113798D01*
X241588Y113727D01*
X242356Y113575D01*
X242480Y113600D01*
X242605Y113575D01*
X243373Y113727D01*
X243479Y113798D01*
X243603Y113823D01*
X244255Y114258D01*
X244325Y114364D01*
X244431Y114434D01*
X244866Y115085D01*
X244891Y115210D01*
X244962Y115316D01*
X245114Y116084D01*
X245102Y116148D01*
X245127Y116209D01*
X245102Y116269D01*
X245114Y116333D01*
X244962Y117101D01*
X244891Y117207D01*
X244866Y117332D01*
X244431Y117983D01*
X244325Y118054D01*
X244255Y118159D01*
X243603Y118594D01*
X243479Y118619D01*
X243373Y118690D01*
X242605Y118843D01*
D02*
G37*
G36*
X150906Y121845D02*
X149878Y121710D01*
X148920Y121313D01*
X148098Y120682D01*
X147467Y119860D01*
X147070Y118902D01*
X146934Y117874D01*
X147070Y116846D01*
X147467Y115889D01*
X148098Y115066D01*
X148920Y114435D01*
X149878Y114038D01*
X150906Y113903D01*
X151933Y114038D01*
X152891Y114435D01*
X153713Y115066D01*
X154344Y115889D01*
X154741Y116846D01*
X154876Y117874D01*
X154741Y118902D01*
X154344Y119860D01*
X153713Y120682D01*
X152891Y121313D01*
X151933Y121710D01*
X150906Y121845D01*
D02*
G37*
G36*
X303465Y136600D02*
X302581Y136424D01*
X301833Y135923D01*
X301332Y135175D01*
X301156Y134291D01*
X301210Y134023D01*
X298810Y131623D01*
X298505Y131168D01*
X298398Y130630D01*
Y130248D01*
X298171Y130097D01*
X297671Y129348D01*
X297495Y128465D01*
X297671Y127581D01*
X298171Y126832D01*
X298920Y126332D01*
X299803Y126156D01*
X300686Y126332D01*
X301435Y126832D01*
X301936Y127581D01*
X302111Y128465D01*
X301936Y129348D01*
X301435Y130097D01*
X301419Y130259D01*
X303197Y132036D01*
X303465Y131983D01*
X304348Y132159D01*
X305097Y132659D01*
X305597Y133408D01*
X305773Y134291D01*
X305597Y135175D01*
X305097Y135923D01*
X304348Y136424D01*
X303465Y136600D01*
D02*
G37*
G36*
X27913Y129642D02*
X26834Y129500D01*
X25829Y129083D01*
X24965Y128421D01*
X24303Y127557D01*
X23886Y126552D01*
X23744Y125472D01*
X23886Y124393D01*
X24303Y123388D01*
X24965Y122524D01*
X25829Y121862D01*
X26834Y121445D01*
X27913Y121303D01*
X28993Y121445D01*
X29998Y121862D01*
X30862Y122524D01*
X31524Y123388D01*
X31941Y124393D01*
X32083Y125472D01*
X31941Y126552D01*
X31524Y127557D01*
X30862Y128421D01*
X29998Y129083D01*
X28993Y129500D01*
X27913Y129642D01*
D02*
G37*
G36*
X219241Y185984D02*
X215866D01*
Y182610D01*
X216461Y182688D01*
X217383Y183070D01*
X218174Y183677D01*
X218781Y184468D01*
X219162Y185389D01*
X219241Y185984D01*
D02*
G37*
G36*
X215079D02*
X211704D01*
X211783Y185389D01*
X212164Y184468D01*
X212771Y183677D01*
X213562Y183070D01*
X214484Y182688D01*
X215079Y182610D01*
Y185984D01*
D02*
G37*
G36*
X68032Y191254D02*
X67004Y191119D01*
X66046Y190722D01*
X65224Y190091D01*
X64592Y189269D01*
X64196Y188311D01*
X64060Y187284D01*
X64196Y186256D01*
X64592Y185298D01*
X65224Y184476D01*
X66046Y183844D01*
X67004Y183448D01*
X68032Y183312D01*
X69059Y183448D01*
X70017Y183844D01*
X70839Y184476D01*
X71470Y185298D01*
X71867Y186256D01*
X72002Y187284D01*
X71867Y188311D01*
X71470Y189269D01*
X70839Y190091D01*
X70017Y190722D01*
X69059Y191119D01*
X68032Y191254D01*
D02*
G37*
G36*
X325709Y189999D02*
X324771Y189876D01*
X323898Y189514D01*
X323148Y188939D01*
X322572Y188189D01*
X322211Y187315D01*
X322087Y186378D01*
X322211Y185441D01*
X322572Y184567D01*
X323148Y183817D01*
X323898Y183242D01*
X324771Y182880D01*
X325709Y182756D01*
X326646Y182880D01*
X327519Y183242D01*
X328270Y183817D01*
X328845Y184567D01*
X329207Y185441D01*
X329330Y186378D01*
X329207Y187315D01*
X328845Y188189D01*
X328270Y188939D01*
X327519Y189514D01*
X326646Y189876D01*
X325709Y189999D01*
D02*
G37*
G36*
X372756Y172007D02*
X371819Y171884D01*
X370945Y171522D01*
X370195Y170947D01*
X369620Y170197D01*
X369258Y169323D01*
X369134Y168386D01*
X369258Y167448D01*
X369620Y166575D01*
X370195Y165825D01*
X370945Y165250D01*
X371819Y164888D01*
X372756Y164764D01*
X373693Y164888D01*
X374567Y165250D01*
X375317Y165825D01*
X375892Y166575D01*
X376254Y167448D01*
X376377Y168386D01*
X376254Y169323D01*
X375892Y170197D01*
X375317Y170947D01*
X374567Y171522D01*
X373693Y171884D01*
X372756Y172007D01*
D02*
G37*
G36*
X353543Y197795D02*
X352606Y197671D01*
X351732Y197310D01*
X350982Y196734D01*
X350407Y195984D01*
X350045Y195110D01*
X349922Y194173D01*
X350045Y193236D01*
X350407Y192362D01*
X350982Y191612D01*
X351667Y191087D01*
Y171691D01*
X351260Y171522D01*
X350510Y170947D01*
X349935Y170197D01*
X349573Y169323D01*
X349449Y168386D01*
X349573Y167448D01*
X349935Y166575D01*
X350510Y165825D01*
X351260Y165250D01*
X352134Y164888D01*
X353071Y164764D01*
X354008Y164888D01*
X354882Y165250D01*
X355632Y165825D01*
X356207Y166575D01*
X356569Y167448D01*
X356692Y168386D01*
X356569Y169323D01*
X356207Y170197D01*
X355632Y170947D01*
X355420Y171109D01*
Y191087D01*
X356104Y191612D01*
X356680Y192362D01*
X357041Y193236D01*
X357165Y194173D01*
X357041Y195110D01*
X356680Y195984D01*
X356104Y196734D01*
X355354Y197310D01*
X354481Y197671D01*
X353543Y197795D01*
D02*
G37*
G36*
X188228Y177426D02*
X187345Y177251D01*
X186596Y176750D01*
X186096Y176001D01*
X185920Y175118D01*
X185974Y174850D01*
X182666Y171543D01*
X180249D01*
X180050Y171841D01*
X179268Y172363D01*
X178347Y172546D01*
X177425Y172363D01*
X176643Y171841D01*
X176121Y171060D01*
X175938Y170138D01*
X176121Y169216D01*
X176643Y168435D01*
X177425Y167913D01*
X178347Y167729D01*
X179268Y167913D01*
X180050Y168435D01*
X180249Y168733D01*
X183248D01*
X183786Y168840D01*
X184241Y169144D01*
X187960Y172863D01*
X188228Y172810D01*
X189112Y172986D01*
X189860Y173486D01*
X190361Y174235D01*
X190536Y175118D01*
X190361Y176001D01*
X189860Y176750D01*
X189112Y177251D01*
X188228Y177426D01*
D02*
G37*
G36*
X27874Y178067D02*
X26795Y177925D01*
X25789Y177508D01*
X24926Y176846D01*
X24263Y175982D01*
X23847Y174977D01*
X23705Y173898D01*
X23847Y172819D01*
X24263Y171813D01*
X24926Y170949D01*
X25789Y170287D01*
X26795Y169870D01*
X27874Y169728D01*
X28953Y169870D01*
X29959Y170287D01*
X30822Y170949D01*
X31485Y171813D01*
X31901Y172819D01*
X32043Y173898D01*
X31901Y174977D01*
X31485Y175982D01*
X30822Y176846D01*
X29959Y177508D01*
X28953Y177925D01*
X27874Y178067D01*
D02*
G37*
%LPD*%
D22*
X308898Y11535D02*
X309055Y11693D01*
X296811Y11535D02*
X308898D01*
X324882Y14921D02*
Y15787D01*
X238268Y74213D02*
Y86968D01*
Y98386D02*
Y106063D01*
X238386Y106181D01*
X301654Y14527D02*
X324882D01*
X306772Y109409D02*
X306811Y109449D01*
X284921Y109409D02*
X306772D01*
D23*
X183248Y170138D02*
X188228Y175118D01*
X178347Y170138D02*
X183248D01*
X182028Y102303D02*
X188110Y108386D01*
X178543Y102303D02*
X182028D01*
X188110Y50591D02*
Y63504D01*
X183346Y36102D02*
X188110Y40866D01*
X183346Y35984D02*
Y36102D01*
X247126Y73858D02*
Y86874D01*
X246980Y87020D02*
X247126Y86874D01*
X257283Y32244D02*
X257323Y32283D01*
X250866Y32244D02*
X257283D01*
X188110Y40866D02*
X192205Y36772D01*
Y28583D02*
Y36772D01*
X223228Y135827D02*
X230591D01*
X247087Y119331D01*
X230591Y135827D02*
X239213D01*
X239252Y135866D01*
X299803Y128465D02*
Y130630D01*
X303465Y134291D01*
D24*
X353543Y168858D02*
Y194173D01*
X353071Y168386D02*
X353543Y168858D01*
D25*
X360827Y221378D02*
D03*
Y241378D02*
D03*
X27913Y16850D02*
D03*
Y36850D02*
D03*
Y56850D02*
D03*
Y85472D02*
D03*
Y105472D02*
D03*
Y125472D02*
D03*
X27874Y153898D02*
D03*
Y173898D02*
D03*
Y193898D02*
D03*
X27913Y221575D02*
D03*
Y241575D02*
D03*
Y261575D02*
D03*
D26*
X325709Y186378D02*
D03*
Y246378D02*
D03*
X215472Y216378D02*
D03*
Y186378D02*
D03*
X353071Y168386D02*
D03*
X372756D02*
D03*
X353543Y194173D02*
D03*
X373543D02*
D03*
D27*
X67874Y50039D02*
D03*
X150551D02*
D03*
X81653Y20512D02*
D03*
X150551D02*
D03*
X68228Y117874D02*
D03*
X150906D02*
D03*
X82008Y88346D02*
D03*
X150906D02*
D03*
X68032Y187284D02*
D03*
X150709D02*
D03*
X81811Y157756D02*
D03*
X150709D02*
D03*
X67874Y256299D02*
D03*
X150551D02*
D03*
X81653Y226772D02*
D03*
X150551D02*
D03*
D28*
X252047Y14213D02*
D03*
X232047D02*
D03*
X212047D02*
D03*
X242047D02*
D03*
X222047D02*
D03*
D29*
X202047D02*
D03*
D30*
X242480Y91799D02*
D03*
Y116209D02*
D03*
D31*
X238386Y106181D02*
D03*
X178347Y170138D02*
D03*
X178543Y102303D02*
D03*
X183346Y35984D02*
D03*
X246980Y102004D02*
D03*
D32*
X309055Y11693D02*
D03*
X296811Y11535D02*
D03*
X301654Y14488D02*
D03*
X324882Y14921D02*
D03*
X188228Y175118D02*
D03*
X188110Y108386D02*
D03*
Y63504D02*
D03*
Y50591D02*
D03*
Y40866D02*
D03*
X246980Y87020D02*
D03*
X247087Y119331D02*
D03*
X238268Y74213D02*
D03*
Y86968D02*
D03*
Y98386D02*
D03*
X284921Y109409D02*
D03*
X306811Y109449D02*
D03*
X247126Y73858D02*
D03*
X257323Y32283D02*
D03*
X250866Y32244D02*
D03*
X192205Y28583D02*
D03*
X223228Y135827D02*
D03*
X239252Y135866D02*
D03*
X303465Y134291D02*
D03*
X299803Y128465D02*
D03*
M02*
