G04 Layer_Color=8388736*
%FSLAX25Y25*%
%MOIN*%
G70*
G01*
G75*
%ADD10R,0.07480X0.05118*%
%ADD11R,0.00866X0.06693*%
%ADD12R,0.06693X0.00866*%
G04:AMPARAMS|DCode=13|XSize=39.37mil|YSize=98.42mil|CornerRadius=0mil|HoleSize=0mil|Usage=FLASHONLY|Rotation=315.000|XOffset=0mil|YOffset=0mil|HoleType=Round|Shape=Rectangle|*
%AMROTATEDRECTD13*
4,1,4,-0.04872,-0.02088,0.02088,0.04872,0.04872,0.02088,-0.02088,-0.04872,-0.04872,-0.02088,0.0*
%
%ADD13ROTATEDRECTD13*%

G04:AMPARAMS|DCode=14|XSize=39.37mil|YSize=98.42mil|CornerRadius=0mil|HoleSize=0mil|Usage=FLASHONLY|Rotation=45.000|XOffset=0mil|YOffset=0mil|HoleType=Round|Shape=Rectangle|*
%AMROTATEDRECTD14*
4,1,4,0.02088,-0.04872,-0.04872,0.02088,-0.02088,0.04872,0.04872,-0.02088,0.02088,-0.04872,0.0*
%
%ADD14ROTATEDRECTD14*%

%ADD15R,0.03000X0.03000*%
%ADD16R,0.03000X0.03000*%
%ADD17R,0.05512X0.01378*%
%ADD18R,0.12008X0.16260*%
%ADD19R,0.04134X0.07677*%
%ADD20R,0.03543X0.03150*%
%ADD21R,0.03150X0.03543*%
%ADD25C,0.03937*%
%ADD26O,0.05500X0.07000*%
%ADD27R,0.05500X0.07000*%
%ADD28C,0.07087*%
%ADD29C,0.06000*%
%ADD30C,0.06693*%
%ADD31C,0.03347*%
%ADD32C,0.02559*%
%ADD33C,0.03543*%
D10*
X294370Y155827D02*
D03*
Y143228D02*
D03*
X272716D02*
D03*
Y155827D02*
D03*
D11*
X253293Y127238D02*
D03*
X251325D02*
D03*
X249356D02*
D03*
X247388D02*
D03*
X245419D02*
D03*
X239514D02*
D03*
X235577D02*
D03*
X233608D02*
D03*
X231640D02*
D03*
X229671D02*
D03*
X227703D02*
D03*
Y80770D02*
D03*
X229671D02*
D03*
X231640D02*
D03*
X233608D02*
D03*
X235577D02*
D03*
X237545D02*
D03*
X239514D02*
D03*
X241482D02*
D03*
X243451D02*
D03*
X245419D02*
D03*
X247388D02*
D03*
X249356D02*
D03*
X251325D02*
D03*
X253293D02*
D03*
X255262D02*
D03*
X257230Y80770D02*
D03*
X241482Y127238D02*
D03*
X237545D02*
D03*
X243451D02*
D03*
X255262D02*
D03*
X257230D02*
D03*
D12*
X219246Y118781D02*
D03*
Y116813D02*
D03*
Y114844D02*
D03*
Y112876D02*
D03*
Y110907D02*
D03*
Y108939D02*
D03*
Y106970D02*
D03*
Y105002D02*
D03*
Y103033D02*
D03*
Y101065D02*
D03*
Y99096D02*
D03*
Y97128D02*
D03*
Y91222D02*
D03*
Y89254D02*
D03*
X265715Y93163D02*
D03*
Y95132D02*
D03*
Y97100D02*
D03*
Y99069D02*
D03*
Y101037D02*
D03*
Y103006D02*
D03*
Y104974D02*
D03*
Y106943D02*
D03*
Y108911D02*
D03*
Y112848D02*
D03*
Y114817D02*
D03*
Y116785D02*
D03*
Y118754D02*
D03*
Y91195D02*
D03*
X219246Y95159D02*
D03*
Y93191D02*
D03*
X265715Y110880D02*
D03*
Y89226D02*
D03*
D13*
X266102Y80382D02*
D03*
X218858Y127626D02*
D03*
D14*
X266102D02*
D03*
X218858Y80382D02*
D03*
D15*
X239652Y160827D02*
D03*
X245152D02*
D03*
X213943Y162799D02*
D03*
X219443D02*
D03*
X277526Y124252D02*
D03*
X283026D02*
D03*
X274809Y134882D02*
D03*
X280309D02*
D03*
D16*
X312756Y109612D02*
D03*
Y115112D02*
D03*
X168740Y228923D02*
D03*
Y234423D02*
D03*
Y250565D02*
D03*
Y245065D02*
D03*
X168898Y158339D02*
D03*
Y163839D02*
D03*
Y180368D02*
D03*
Y174868D02*
D03*
X169095Y91679D02*
D03*
Y97179D02*
D03*
Y113715D02*
D03*
Y108215D02*
D03*
X168740Y23057D02*
D03*
Y28557D02*
D03*
Y45486D02*
D03*
Y39986D02*
D03*
X206524Y157465D02*
D03*
Y162965D02*
D03*
X197638Y216529D02*
D03*
Y211030D02*
D03*
X256181Y146411D02*
D03*
Y140911D02*
D03*
X250079Y146490D02*
D03*
Y140990D02*
D03*
X209980Y87754D02*
D03*
Y82254D02*
D03*
X264567Y71333D02*
D03*
Y65833D02*
D03*
X209842Y117112D02*
D03*
Y122612D02*
D03*
D17*
X216299Y55354D02*
D03*
Y52795D02*
D03*
Y50236D02*
D03*
Y47677D02*
D03*
Y45118D02*
D03*
Y42559D02*
D03*
Y40000D02*
D03*
Y37441D02*
D03*
Y34882D02*
D03*
Y32323D02*
D03*
X238740Y55354D02*
D03*
Y52795D02*
D03*
Y50236D02*
D03*
Y47677D02*
D03*
Y45118D02*
D03*
Y42559D02*
D03*
Y40000D02*
D03*
Y37441D02*
D03*
Y34882D02*
D03*
Y32323D02*
D03*
D18*
X227480Y44252D02*
D03*
D19*
X297378Y28417D02*
D03*
X305252D02*
D03*
X313126D02*
D03*
X321000D02*
D03*
X328874D02*
D03*
X336748D02*
D03*
X344622D02*
D03*
X352496D02*
D03*
Y86685D02*
D03*
X344622D02*
D03*
X336748D02*
D03*
X328874D02*
D03*
X321000D02*
D03*
X313126D02*
D03*
X305252D02*
D03*
X297378D02*
D03*
D20*
X226079Y155114D02*
D03*
Y160626D02*
D03*
X245866Y26850D02*
D03*
Y32362D02*
D03*
D21*
X229921Y149882D02*
D03*
X235433D02*
D03*
D25*
X242480Y91799D02*
D03*
Y116209D02*
D03*
D26*
X222047Y14213D02*
D03*
X242047D02*
D03*
X212047D02*
D03*
X232047D02*
D03*
X252047D02*
D03*
D27*
X202047D02*
D03*
D28*
X27913Y16850D02*
D03*
Y36850D02*
D03*
Y56850D02*
D03*
Y85472D02*
D03*
Y105472D02*
D03*
Y125472D02*
D03*
X27874Y153898D02*
D03*
Y173898D02*
D03*
Y193898D02*
D03*
X27913Y221575D02*
D03*
Y241575D02*
D03*
Y261575D02*
D03*
X360827Y241378D02*
D03*
Y221378D02*
D03*
D29*
X373543Y194173D02*
D03*
X353543D02*
D03*
X372756Y168386D02*
D03*
X353071D02*
D03*
X215472Y186378D02*
D03*
Y216378D02*
D03*
X325709Y246378D02*
D03*
Y186378D02*
D03*
D30*
X150551Y226772D02*
D03*
X81653D02*
D03*
X150551Y256299D02*
D03*
X67874D02*
D03*
X150709Y157756D02*
D03*
X81811D02*
D03*
X150709Y187284D02*
D03*
X68032D02*
D03*
X150906Y88346D02*
D03*
X82008D02*
D03*
X150906Y117874D02*
D03*
X68228D02*
D03*
X150551Y20512D02*
D03*
X81653D02*
D03*
X150551Y50039D02*
D03*
X67874D02*
D03*
D31*
X192598Y193268D02*
D03*
X250079Y136693D02*
D03*
X234961Y143661D02*
D03*
X262559Y142402D02*
D03*
X249370Y4213D02*
D03*
X299803Y128465D02*
D03*
X303465Y134291D02*
D03*
X239252Y135866D02*
D03*
X223228Y135827D02*
D03*
X192205Y28583D02*
D03*
X250866Y32244D02*
D03*
X257323Y32283D02*
D03*
X247126Y73858D02*
D03*
X306811Y109449D02*
D03*
X284921Y109409D02*
D03*
X238268Y98386D02*
D03*
Y86968D02*
D03*
Y74213D02*
D03*
X247087Y119331D02*
D03*
X246980Y87020D02*
D03*
X188110Y40866D02*
D03*
Y50591D02*
D03*
Y63504D02*
D03*
Y108386D02*
D03*
X188228Y175118D02*
D03*
X324882Y14921D02*
D03*
X301654Y14488D02*
D03*
X296811Y11535D02*
D03*
X309055Y11693D02*
D03*
X270512Y71614D02*
D03*
X226024Y90866D02*
D03*
X204449Y87677D02*
D03*
X225709Y113150D02*
D03*
X203976Y116772D02*
D03*
X277716Y118347D02*
D03*
X257716Y117913D02*
D03*
X280715Y129213D02*
D03*
D32*
X293779Y20906D02*
D03*
X257598Y100079D02*
D03*
X207795Y97835D02*
D03*
D33*
X183346Y35984D02*
D03*
X178543Y102303D02*
D03*
X178347Y170138D02*
D03*
X238386Y106181D02*
D03*
M02*
