G04 Layer_Color=16711935*
%FSLAX25Y25*%
%MOIN*%
G70*
G01*
G75*
%ADD25C,0.03347*%
%ADD26C,0.07087*%
%ADD27C,0.06000*%
%ADD28C,0.06693*%
%ADD29O,0.05500X0.07000*%
%ADD30R,0.05500X0.07000*%
%ADD31C,0.03937*%
%ADD32C,0.02000*%
%ADD33C,0.03543*%
D25*
X192598Y193268D02*
D03*
X280715Y129213D02*
D03*
X257716Y117913D02*
D03*
X277716Y118347D02*
D03*
X203976Y116772D02*
D03*
X225709Y113150D02*
D03*
X204449Y87677D02*
D03*
X226024Y90866D02*
D03*
X270512Y71614D02*
D03*
X309055Y11693D02*
D03*
X296811Y11535D02*
D03*
X301654Y14488D02*
D03*
X324882Y14921D02*
D03*
X188228Y175118D02*
D03*
X188110Y108386D02*
D03*
Y63504D02*
D03*
Y50591D02*
D03*
Y40866D02*
D03*
X246980Y87020D02*
D03*
X247087Y119331D02*
D03*
X238268Y74213D02*
D03*
Y86968D02*
D03*
Y98386D02*
D03*
X284921Y109409D02*
D03*
X306811Y109449D02*
D03*
X247126Y73858D02*
D03*
X257323Y32283D02*
D03*
X250866Y32244D02*
D03*
X192205Y28583D02*
D03*
X223228Y135827D02*
D03*
X239252Y135866D02*
D03*
X303465Y134291D02*
D03*
X299803Y128465D02*
D03*
X249370Y4213D02*
D03*
D26*
X360827Y221378D02*
D03*
Y241378D02*
D03*
X27913Y261575D02*
D03*
Y241575D02*
D03*
Y221575D02*
D03*
X27874Y193898D02*
D03*
Y173898D02*
D03*
Y153898D02*
D03*
X27913Y125472D02*
D03*
Y105472D02*
D03*
Y85472D02*
D03*
Y56850D02*
D03*
Y36850D02*
D03*
Y16850D02*
D03*
D27*
X325709Y186378D02*
D03*
Y246378D02*
D03*
X215472Y216378D02*
D03*
Y186378D02*
D03*
X353071Y168386D02*
D03*
X372756D02*
D03*
X353543Y194173D02*
D03*
X373543D02*
D03*
D28*
X67874Y50039D02*
D03*
X150551D02*
D03*
X81653Y20512D02*
D03*
X150551D02*
D03*
X68228Y117874D02*
D03*
X150906D02*
D03*
X82008Y88346D02*
D03*
X150906D02*
D03*
X68032Y187284D02*
D03*
X150709D02*
D03*
X81811Y157756D02*
D03*
X150709D02*
D03*
X67874Y256299D02*
D03*
X150551D02*
D03*
X81653Y226772D02*
D03*
X150551D02*
D03*
D29*
X252047Y14213D02*
D03*
X232047D02*
D03*
X212047D02*
D03*
X242047D02*
D03*
X222047D02*
D03*
D30*
X202047D02*
D03*
D31*
X242480Y116209D02*
D03*
Y91799D02*
D03*
D32*
X197008Y56260D02*
D03*
X208622Y55787D02*
D03*
X207402Y48150D02*
D03*
X204331Y72205D02*
D03*
X204095Y101260D02*
D03*
X211378Y95866D02*
D03*
X202008Y79173D02*
D03*
X222008Y70157D02*
D03*
X193622Y117835D02*
D03*
X193228Y154252D02*
D03*
X193622Y128150D02*
D03*
X201772Y133780D02*
D03*
X202323Y123504D02*
D03*
X193701Y139724D02*
D03*
X262205Y142480D02*
D03*
X261693Y151654D02*
D03*
X295079Y114488D02*
D03*
X295315Y132087D02*
D03*
X293268Y20945D02*
D03*
D33*
X238386Y106181D02*
D03*
X178347Y170138D02*
D03*
X178543Y102303D02*
D03*
X183346Y35984D02*
D03*
M02*
