G04 Layer_Color=8421504*
%FSLAX25Y25*%
%MOIN*%
G70*
G01*
G75*
%ADD10R,0.03000X0.03000*%
%ADD11R,0.03543X0.03150*%
%ADD12R,0.03150X0.03543*%
%ADD13R,0.04134X0.07677*%
%ADD14R,0.12008X0.16260*%
%ADD15R,0.05512X0.01378*%
%ADD16R,0.03000X0.03000*%
%ADD17R,0.06693X0.00866*%
%ADD18R,0.00866X0.06693*%
G04:AMPARAMS|DCode=19|XSize=39.37mil|YSize=98.42mil|CornerRadius=0mil|HoleSize=0mil|Usage=FLASHONLY|Rotation=45.000|XOffset=0mil|YOffset=0mil|HoleType=Round|Shape=Rectangle|*
%AMROTATEDRECTD19*
4,1,4,0.02088,-0.04872,-0.04872,0.02088,-0.02088,0.04872,0.04872,-0.02088,0.02088,-0.04872,0.0*
%
%ADD19ROTATEDRECTD19*%

G04:AMPARAMS|DCode=20|XSize=39.37mil|YSize=98.42mil|CornerRadius=0mil|HoleSize=0mil|Usage=FLASHONLY|Rotation=315.000|XOffset=0mil|YOffset=0mil|HoleType=Round|Shape=Rectangle|*
%AMROTATEDRECTD20*
4,1,4,-0.04872,-0.02088,0.02088,0.04872,0.04872,0.02088,-0.02088,-0.04872,-0.04872,-0.02088,0.0*
%
%ADD20ROTATEDRECTD20*%

%ADD21R,0.07480X0.05118*%
D10*
X280309Y134882D02*
D03*
X274809D02*
D03*
X283026Y124252D02*
D03*
X277526D02*
D03*
X219443Y162799D02*
D03*
X213943D02*
D03*
X245152Y160827D02*
D03*
X239652D02*
D03*
D11*
X245866Y32362D02*
D03*
Y26850D02*
D03*
X226079Y160626D02*
D03*
Y155114D02*
D03*
D12*
X235433Y149882D02*
D03*
X229921D02*
D03*
D13*
X297378Y86685D02*
D03*
X305252D02*
D03*
X313126D02*
D03*
X321000D02*
D03*
X328874D02*
D03*
X336748D02*
D03*
X344622D02*
D03*
X352496D02*
D03*
Y28417D02*
D03*
X344622D02*
D03*
X336748D02*
D03*
X328874D02*
D03*
X321000D02*
D03*
X313126D02*
D03*
X305252D02*
D03*
X297378D02*
D03*
D14*
X227480Y44252D02*
D03*
D15*
X238740Y32323D02*
D03*
Y34882D02*
D03*
Y37441D02*
D03*
Y40000D02*
D03*
Y42559D02*
D03*
Y45118D02*
D03*
Y47677D02*
D03*
Y50236D02*
D03*
Y52795D02*
D03*
Y55354D02*
D03*
X216299Y32323D02*
D03*
Y34882D02*
D03*
Y37441D02*
D03*
Y40000D02*
D03*
Y42559D02*
D03*
Y45118D02*
D03*
Y47677D02*
D03*
Y50236D02*
D03*
Y52795D02*
D03*
Y55354D02*
D03*
D16*
X209842Y122612D02*
D03*
Y117112D02*
D03*
X264567Y65833D02*
D03*
Y71333D02*
D03*
X209980Y82254D02*
D03*
Y87754D02*
D03*
X250079Y140990D02*
D03*
Y146490D02*
D03*
X256181Y140911D02*
D03*
Y146411D02*
D03*
X197638Y211030D02*
D03*
Y216529D02*
D03*
X206524Y162965D02*
D03*
Y157465D02*
D03*
X168740Y39986D02*
D03*
Y45486D02*
D03*
Y28557D02*
D03*
Y23057D02*
D03*
X169095Y108215D02*
D03*
Y113715D02*
D03*
Y97179D02*
D03*
Y91679D02*
D03*
X168898Y174868D02*
D03*
Y180368D02*
D03*
Y163839D02*
D03*
Y158339D02*
D03*
X168740Y245065D02*
D03*
Y250565D02*
D03*
Y234423D02*
D03*
Y228923D02*
D03*
X312756Y115112D02*
D03*
Y109612D02*
D03*
D17*
X265715Y89226D02*
D03*
Y110880D02*
D03*
X219246Y93191D02*
D03*
Y95159D02*
D03*
X265715Y91195D02*
D03*
Y118754D02*
D03*
Y116785D02*
D03*
Y114817D02*
D03*
Y112848D02*
D03*
Y108911D02*
D03*
Y106943D02*
D03*
Y104974D02*
D03*
Y103006D02*
D03*
Y101037D02*
D03*
Y99069D02*
D03*
Y97100D02*
D03*
Y95132D02*
D03*
Y93163D02*
D03*
X219246Y89254D02*
D03*
Y91222D02*
D03*
Y97128D02*
D03*
Y99096D02*
D03*
Y101065D02*
D03*
Y103033D02*
D03*
Y105002D02*
D03*
Y106970D02*
D03*
Y108939D02*
D03*
Y110907D02*
D03*
Y112876D02*
D03*
Y114844D02*
D03*
Y116813D02*
D03*
Y118781D02*
D03*
D18*
X257230Y127238D02*
D03*
X255262D02*
D03*
X243451D02*
D03*
X237545D02*
D03*
X241482D02*
D03*
X257230Y80770D02*
D03*
X255262Y80770D02*
D03*
X253293D02*
D03*
X251325D02*
D03*
X249356D02*
D03*
X247388D02*
D03*
X245419D02*
D03*
X243451D02*
D03*
X241482D02*
D03*
X239514D02*
D03*
X237545D02*
D03*
X235577D02*
D03*
X233608D02*
D03*
X231640D02*
D03*
X229671D02*
D03*
X227703D02*
D03*
Y127238D02*
D03*
X229671D02*
D03*
X231640D02*
D03*
X233608D02*
D03*
X235577D02*
D03*
X239514D02*
D03*
X245419D02*
D03*
X247388D02*
D03*
X249356D02*
D03*
X251325D02*
D03*
X253293D02*
D03*
D19*
X218858Y80382D02*
D03*
X266102Y127626D02*
D03*
D20*
X218858D02*
D03*
X266102Y80382D02*
D03*
D21*
X272716Y155827D02*
D03*
Y143228D02*
D03*
X294370D02*
D03*
Y155827D02*
D03*
M02*
