M48
;Layer_Color=9474304
;FILE_FORMAT=2:5
INCH,TZ
;TYPE=PLATED
T1F00S00C0.01968
T2F00S00C0.02756
T3F00S00C0.03000
T4F00S00C0.03150
T5F00S00C0.04000
T6F00S00C0.04921
T7F00S00C0.05118
%
T01
X183346Y35984
X188110Y40866
Y50591
X192205Y28583
X250866Y32244
X257323Y32283
X296811Y11535
X301654Y14488
X309055Y11693
X324882Y14921
X306811Y109449
X284921Y109409
X299803Y128465
X303465Y134291
X239252Y135866
X223228Y135827
X247087Y119331
X246980Y102004
X238268Y98386
X238386Y106181
X238268Y86968
X246980Y87020
X247126Y73858
X238268Y74213
X188110Y63504
Y108386
X178543Y102303
X178347Y170138
X188228Y175118
T02
X372756Y168386
X353071
T03
X353543Y194173
T04
X373543Y194173
X325709Y186378
X215472
Y216378
X325709Y246378
T05
X202047Y14213
X212047
X222047
X232047
X242047
X252047
T06
X81653Y20512
X67874Y50039
X150551
Y20512
X150906Y88346
Y117874
X150709Y157756
Y187284
X68032
X81811Y157756
X68228Y117874
X82008Y88346
X81653Y226772
X67874Y256299
X150551
Y226772
T07
X27913Y16850
Y36850
Y56850
Y85472
Y105472
Y125472
X27874Y153898
Y173898
Y193898
X27913Y221575
Y241575
Y261575
X360827Y241378
Y221378
M30
