G04 Layer_Color=65535*
%FSLAX25Y25*%
%MOIN*%
G70*
G01*
G75*
%ADD22C,0.01000*%
%ADD33C,0.01500*%
%ADD34C,0.00984*%
%ADD35C,0.00787*%
%ADD36C,0.00800*%
%ADD37C,0.00600*%
%ADD38C,0.00500*%
%ADD39C,0.00472*%
%ADD40C,0.00598*%
G36*
X298112Y18102D02*
X296590D01*
Y20150D01*
X298112D01*
Y18102D01*
D02*
G37*
D22*
X268043Y144028D02*
G03*
X268043Y144028I-500J0D01*
G01*
X377362Y209409D02*
Y253346D01*
X347441Y209409D02*
Y253346D01*
X377362D01*
X347441Y209409D02*
X377362D01*
X41299Y4882D02*
Y68819D01*
X11378Y4882D02*
Y68819D01*
Y4882D02*
X41299D01*
X11378Y68819D02*
X41299D01*
Y73504D02*
Y137441D01*
X11378Y73504D02*
Y137441D01*
Y73504D02*
X41299D01*
X11378Y137441D02*
X41299D01*
X41260Y141929D02*
Y205866D01*
X11339Y141929D02*
Y205866D01*
Y141929D02*
X41260D01*
X11339Y205866D02*
X41260D01*
X41299Y209606D02*
Y273543D01*
X11378Y209606D02*
Y273543D01*
Y209606D02*
X41299D01*
X11378Y273543D02*
X41299D01*
X203661Y253307D02*
X336339D01*
X203661Y178504D02*
Y253307D01*
X336339Y178504D02*
Y253307D01*
X203661Y178504D02*
X336339D01*
X156457Y15394D02*
Y54764D01*
X61968Y15394D02*
Y54764D01*
X156457D01*
X61968Y15394D02*
X156457D01*
X156811Y83228D02*
Y122598D01*
X62323Y83228D02*
Y122598D01*
X156811D01*
X62323Y83228D02*
X156811D01*
X156614Y152638D02*
Y192008D01*
X62126Y152638D02*
Y192008D01*
X156614D01*
X62126Y152638D02*
X156614D01*
X156457Y221654D02*
Y261024D01*
X61968Y221654D02*
Y261024D01*
X156457D01*
X61968Y221654D02*
X156457D01*
X347165Y202047D02*
X380039D01*
X347165Y186299D02*
X380039D01*
X347165D02*
Y202047D01*
X380039Y186299D02*
Y202047D01*
X135197Y56732D02*
Y62730D01*
X138196D01*
X139196Y61731D01*
Y59731D01*
X138196Y58732D01*
X135197D01*
X137196D02*
X139196Y56732D01*
X145194Y62730D02*
X141195D01*
Y56732D01*
X145194D01*
X141195Y59731D02*
X143194D01*
X147193Y62730D02*
Y56732D01*
X151192D01*
X156190D02*
Y62730D01*
X153191Y59731D01*
X157190D01*
X135158Y124961D02*
Y130959D01*
X138156D01*
X139156Y129959D01*
Y127960D01*
X138156Y126960D01*
X135158D01*
X137157D02*
X139156Y124961D01*
X145154Y130959D02*
X141156D01*
Y124961D01*
X145154D01*
X141156Y127960D02*
X143155D01*
X147154Y130959D02*
Y124961D01*
X151152D01*
X153152Y129959D02*
X154151Y130959D01*
X156151D01*
X157150Y129959D01*
Y128959D01*
X156151Y127960D01*
X155151D01*
X156151D01*
X157150Y126960D01*
Y125960D01*
X156151Y124961D01*
X154151D01*
X153152Y125960D01*
X134961Y195158D02*
Y201155D01*
X137960D01*
X138959Y200156D01*
Y198156D01*
X137960Y197157D01*
X134961D01*
X136960D02*
X138959Y195158D01*
X144957Y201155D02*
X140959D01*
Y195158D01*
X144957D01*
X140959Y198156D02*
X142958D01*
X146957Y201155D02*
Y195158D01*
X150955D01*
X156954D02*
X152955D01*
X156954Y199156D01*
Y200156D01*
X155954Y201155D01*
X153955D01*
X152955Y200156D01*
X136378Y263779D02*
Y269778D01*
X139377D01*
X140377Y268778D01*
Y266779D01*
X139377Y265779D01*
X136378D01*
X138377D02*
X140377Y263779D01*
X146375Y269778D02*
X142376D01*
Y263779D01*
X146375D01*
X142376Y266779D02*
X144375D01*
X148374Y269778D02*
Y263779D01*
X152373D01*
X154372D02*
X156371D01*
X155372D01*
Y269778D01*
X154372Y268778D01*
X227520Y75486D02*
Y70488D01*
X228519Y69488D01*
X230519D01*
X231518Y70488D01*
Y75486D01*
X233518Y69488D02*
X235517D01*
X234517D01*
Y75486D01*
X233518Y74487D01*
X172677Y228917D02*
Y234915D01*
X175676D01*
X176676Y233916D01*
Y231916D01*
X175676Y230917D01*
X172677D01*
X174677D02*
X176676Y228917D01*
X178675D02*
X180675D01*
X179675D01*
Y234915D01*
X178675Y233916D01*
X173071Y245059D02*
Y251057D01*
X176070D01*
X177070Y250057D01*
Y248058D01*
X176070Y247058D01*
X173071D01*
X175070D02*
X177070Y245059D01*
X183068D02*
X179069D01*
X183068Y249058D01*
Y250057D01*
X182068Y251057D01*
X180069D01*
X179069Y250057D01*
X172835Y158721D02*
Y164718D01*
X175834D01*
X176833Y163719D01*
Y161720D01*
X175834Y160720D01*
X172835D01*
X174834D02*
X176833Y158721D01*
X178833Y163719D02*
X179832Y164718D01*
X181832D01*
X182831Y163719D01*
Y162719D01*
X181832Y161720D01*
X180832D01*
X181832D01*
X182831Y160720D01*
Y159720D01*
X181832Y158721D01*
X179832D01*
X178833Y159720D01*
X172835Y174862D02*
Y180860D01*
X175834D01*
X176833Y179861D01*
Y177861D01*
X175834Y176862D01*
X172835D01*
X174834D02*
X176833Y174862D01*
X181832D02*
Y180860D01*
X178833Y177861D01*
X182831D01*
X173031Y91675D02*
Y97673D01*
X176030D01*
X177030Y96673D01*
Y94674D01*
X176030Y93674D01*
X173031D01*
X175031D02*
X177030Y91675D01*
X179029Y92674D02*
X180029Y91675D01*
X182028D01*
X183028Y92674D01*
Y96673D01*
X182028Y97673D01*
X180029D01*
X179029Y96673D01*
Y95674D01*
X180029Y94674D01*
X183028D01*
X173031Y108209D02*
Y114207D01*
X176031D01*
X177030Y113207D01*
Y111208D01*
X176031Y110208D01*
X173031D01*
X175031D02*
X177030Y108209D01*
X179030D02*
X181029D01*
X180029D01*
Y114207D01*
X179030Y113207D01*
X184028D02*
X185028Y114207D01*
X187027D01*
X188027Y113207D01*
Y109208D01*
X187027Y108209D01*
X185028D01*
X184028Y109208D01*
Y113207D01*
X172677Y23051D02*
Y29049D01*
X175676D01*
X176676Y28050D01*
Y26050D01*
X175676Y25051D01*
X172677D01*
X174677D02*
X176676Y23051D01*
X178675D02*
X180675D01*
X179675D01*
Y29049D01*
X178675Y28050D01*
X183674Y23051D02*
X185673D01*
X184673D01*
Y29049D01*
X183674Y28050D01*
X173031Y42441D02*
Y48439D01*
X176031D01*
X177030Y47439D01*
Y45440D01*
X176031Y44440D01*
X173031D01*
X175031D02*
X177030Y42441D01*
X179030D02*
X181029D01*
X180029D01*
Y48439D01*
X179030Y47439D01*
X188027Y42441D02*
X184028D01*
X188027Y46440D01*
Y47439D01*
X187027Y48439D01*
X185028D01*
X184028Y47439D01*
X326063Y175447D02*
Y170449D01*
X327063Y169449D01*
X329062D01*
X330062Y170449D01*
Y175447D01*
X336060Y169449D02*
X332061D01*
X336060Y173448D01*
Y174447D01*
X335060Y175447D01*
X333061D01*
X332061Y174447D01*
X2480Y21496D02*
X8478D01*
X2480Y17497D01*
X8478D01*
Y12499D02*
Y14498D01*
X7479Y15498D01*
X3480D01*
X2480Y14498D01*
Y12499D01*
X3480Y11499D01*
X7479D01*
X8478Y12499D01*
X8305Y59348D02*
X9305Y60347D01*
Y62347D01*
X8305Y63346D01*
X4307D01*
X3307Y62347D01*
Y60347D01*
X4307Y59348D01*
X9305Y54349D02*
Y56349D01*
X8305Y57348D01*
X4307D01*
X3307Y56349D01*
Y54349D01*
X4307Y53350D01*
X8305D01*
X9305Y54349D01*
X3307Y51350D02*
X9305D01*
X7306Y49351D01*
X9305Y47352D01*
X3307D01*
X3504Y89882D02*
X9502D01*
X3504Y85883D01*
X9502D01*
Y80885D02*
Y82884D01*
X8502Y83884D01*
X4504D01*
X3504Y82884D01*
Y80885D01*
X4504Y79885D01*
X8502D01*
X9502Y80885D01*
X7872Y128364D02*
X8872Y129363D01*
Y131362D01*
X7872Y132362D01*
X3874D01*
X2874Y131362D01*
Y129363D01*
X3874Y128364D01*
X8872Y123365D02*
Y125364D01*
X7872Y126364D01*
X3874D01*
X2874Y125364D01*
Y123365D01*
X3874Y122365D01*
X7872D01*
X8872Y123365D01*
X2874Y120366D02*
X8872D01*
X6873Y118367D01*
X8872Y116367D01*
X2874D01*
X2677Y158937D02*
X8675D01*
X2677Y154938D01*
X8675D01*
Y149940D02*
Y151939D01*
X7676Y152939D01*
X3677D01*
X2677Y151939D01*
Y149940D01*
X3677Y148940D01*
X7676D01*
X8675Y149940D01*
X7676Y197025D02*
X8675Y198025D01*
Y200024D01*
X7676Y201024D01*
X3677D01*
X2677Y200024D01*
Y198025D01*
X3677Y197025D01*
X8675Y192026D02*
Y194026D01*
X7676Y195026D01*
X3677D01*
X2677Y194026D01*
Y192026D01*
X3677Y191027D01*
X7676D01*
X8675Y192026D01*
X2677Y189028D02*
X8675D01*
X6676Y187028D01*
X8675Y185029D01*
X2677D01*
X7676Y263836D02*
X8675Y264836D01*
Y266835D01*
X7676Y267835D01*
X3677D01*
X2677Y266835D01*
Y264836D01*
X3677Y263836D01*
X8675Y258838D02*
Y260837D01*
X7676Y261837D01*
X3677D01*
X2677Y260837D01*
Y258838D01*
X3677Y257838D01*
X7676D01*
X8675Y258838D01*
X2677Y255838D02*
X8675D01*
X6676Y253839D01*
X8675Y251840D01*
X2677D01*
X3307Y225433D02*
X9305D01*
X3307Y221434D01*
X9305D01*
Y216436D02*
Y218435D01*
X8305Y219435D01*
X4307D01*
X3307Y218435D01*
Y216436D01*
X4307Y215436D01*
X8305D01*
X9305Y216436D01*
X379868Y218701D02*
X385866D01*
Y222699D01*
X385669Y239921D02*
X379671D01*
X385669Y243920D01*
X379671D01*
X324173Y143242D02*
Y137244D01*
X328172D01*
X333170Y143242D02*
X331171D01*
X330171Y142243D01*
Y138244D01*
X331171Y137244D01*
X333170D01*
X334170Y138244D01*
Y142243D01*
X333170Y143242D01*
X336169Y137244D02*
Y143242D01*
X339168D01*
X340168Y142243D01*
Y140243D01*
X339168Y139243D01*
X336169D01*
X338169D02*
X340168Y137244D01*
X342167D02*
Y141243D01*
X344167Y143242D01*
X346166Y141243D01*
Y137244D01*
Y140243D01*
X342167D01*
X348165Y136244D02*
X352164D01*
X354164Y137244D02*
Y143242D01*
X357163D01*
X358162Y142243D01*
Y140243D01*
X357163Y139243D01*
X354164D01*
X356163D02*
X358162Y137244D01*
X364160Y143242D02*
X360162D01*
Y137244D01*
X364160D01*
X360162Y140243D02*
X362161D01*
X366160Y143242D02*
Y137244D01*
X370158D01*
X372158D02*
Y141243D01*
X374157Y143242D01*
X376156Y141243D01*
Y137244D01*
Y140243D01*
X372158D01*
X378156Y143242D02*
Y142243D01*
X380155Y140243D01*
X382154Y142243D01*
Y143242D01*
X380155Y140243D02*
Y137244D01*
X384154Y136244D02*
X388153D01*
X390152Y137244D02*
X392151D01*
X391152D01*
Y143242D01*
X390152Y142243D01*
D33*
X202805Y6713D02*
G03*
X202805Y6713I-750J0D01*
G01*
D34*
X257442Y133004D02*
G03*
X257442Y133004I-231J0D01*
G01*
D35*
X298526Y19165D02*
G03*
X298526Y19165I-1148J0D01*
G01*
X228159Y31043D02*
G03*
X226880Y31043I-640J0D01*
G01*
X257047Y9213D02*
Y19213D01*
X197047Y9213D02*
Y19213D01*
X257047D01*
X197047Y9213D02*
X257047D01*
X224701Y163382D02*
X227457D01*
X356433Y26055D02*
Y89047D01*
X293441Y26055D02*
Y89047D01*
X228159Y31043D02*
X232697D01*
X222342D02*
X226880D01*
X222342D02*
Y56634D01*
X232697D01*
Y31043D02*
Y56634D01*
D36*
X310756Y114862D02*
Y117362D01*
X314756D01*
Y114862D02*
Y117362D01*
Y107362D02*
Y109862D01*
X310756Y107362D02*
X314756D01*
X310756D02*
Y109862D01*
X272716Y146228D02*
Y152728D01*
X278043Y157028D02*
X289043D01*
X278043Y142028D02*
X289043D01*
X301043Y143028D02*
Y156028D01*
X266043Y142028D02*
Y157028D01*
X267543D01*
X266043Y142028D02*
X267543D01*
X301043D02*
Y143028D01*
X299543Y142028D02*
X301043D01*
Y156028D02*
Y157028D01*
X299543D02*
X301043D01*
X219193Y164799D02*
X221693D01*
Y160799D02*
Y164799D01*
X219193Y160799D02*
X221693D01*
X211693D02*
X214193D01*
X211693D02*
Y164799D01*
X214193D01*
X244902Y162827D02*
X247402D01*
Y158827D02*
Y162827D01*
X244902Y158827D02*
X247402D01*
X237402D02*
X239902D01*
X237402D02*
Y162827D01*
X239902D01*
X166740Y234173D02*
Y236673D01*
X170740D01*
Y234173D02*
Y236673D01*
Y226673D02*
Y229173D01*
X166740Y226673D02*
X170740D01*
X166740D02*
Y229173D01*
X170740Y242815D02*
Y245315D01*
X166740Y242815D02*
X170740D01*
X166740D02*
Y245315D01*
Y250315D02*
Y252815D01*
X170740D01*
Y250315D02*
Y252815D01*
X166898Y163589D02*
Y166089D01*
X170898D01*
Y163589D02*
Y166089D01*
Y156089D02*
Y158589D01*
X166898Y156089D02*
X170898D01*
X166898D02*
Y158589D01*
X170898Y172618D02*
Y175118D01*
X166898Y172618D02*
X170898D01*
X166898D02*
Y175118D01*
Y180118D02*
Y182618D01*
X170898D01*
Y180118D02*
Y182618D01*
X167095Y96929D02*
Y99429D01*
X171095D01*
Y96929D02*
Y99429D01*
Y89429D02*
Y91929D01*
X167095Y89429D02*
X171095D01*
X167095D02*
Y91929D01*
X171095Y105965D02*
Y108465D01*
X167095Y105965D02*
X171095D01*
X167095D02*
Y108465D01*
Y113465D02*
Y115965D01*
X171095D01*
Y113465D02*
Y115965D01*
X166740Y28307D02*
Y30807D01*
X170740D01*
Y28307D02*
Y30807D01*
Y20807D02*
Y23307D01*
X166740Y20807D02*
X170740D01*
X166740D02*
Y23307D01*
X170740Y37736D02*
Y40236D01*
X166740Y37736D02*
X170740D01*
X166740D02*
Y40236D01*
Y45236D02*
Y47736D01*
X170740D01*
Y45236D02*
Y47736D01*
D37*
X207980Y80004D02*
Y82504D01*
Y80004D02*
X211980D01*
Y82504D01*
Y87504D02*
Y90004D01*
X207980D02*
X211980D01*
X207980Y87504D02*
Y90004D01*
X211842Y122362D02*
Y124862D01*
X207842D02*
X211842D01*
X207842Y122362D02*
Y124862D01*
Y114862D02*
Y117362D01*
Y114862D02*
X211842D01*
Y117362D01*
X280689Y118315D02*
X283189D01*
Y122315D01*
X280689D02*
X283189D01*
X273189D02*
X275689D01*
X273189Y118315D02*
Y122315D01*
Y118315D02*
X275689D01*
X195638Y208780D02*
Y211280D01*
Y208780D02*
X199638D01*
Y211280D01*
Y216280D02*
Y218779D01*
X195638D02*
X199638D01*
X195638Y216280D02*
Y218779D01*
X254181Y138661D02*
Y141161D01*
Y138661D02*
X258181D01*
Y141161D01*
Y146161D02*
Y148661D01*
X254181D02*
X258181D01*
X254181Y146161D02*
Y148661D01*
X262567Y63583D02*
Y66083D01*
Y63583D02*
X266567D01*
Y66083D01*
Y71083D02*
Y73583D01*
X262567D02*
X266567D01*
X262567Y71083D02*
Y73583D01*
X248079Y138740D02*
Y141240D01*
Y138740D02*
X252079D01*
Y141240D01*
Y146240D02*
Y148740D01*
X248079D02*
X252079D01*
X248079Y146240D02*
Y148740D01*
X223419Y123254D02*
X226419D01*
X223419Y120254D02*
Y123254D01*
Y84754D02*
Y87754D01*
Y84754D02*
X226419D01*
X258919D02*
X261919D01*
Y87754D01*
Y119754D02*
Y121754D01*
X259919Y123754D02*
X261919Y121754D01*
X258419Y123754D02*
X259919D01*
D38*
X204024Y164715D02*
X205024Y165715D01*
X208024D02*
X209024Y164715D01*
X204024Y162715D02*
Y164715D01*
X205024Y165715D02*
X208024D01*
X209024Y162715D02*
Y164715D01*
Y155215D02*
Y157715D01*
X204024Y155215D02*
X209024D01*
X204024D02*
Y157715D01*
D39*
X245918Y23569D02*
X245393Y24093D01*
X244344D01*
X243819Y23569D01*
Y21470D01*
X244344Y20945D01*
X245393D01*
X245918Y21470D01*
X246968D02*
X247492Y20945D01*
X248542D01*
X249066Y21470D01*
Y23569D01*
X248542Y24093D01*
X247492D01*
X246968Y23569D01*
Y23044D01*
X247492Y22519D01*
X249066D01*
X197690Y206600D02*
X197165Y207125D01*
X196115D01*
X195591Y206600D01*
Y204501D01*
X196115Y203976D01*
X197165D01*
X197690Y204501D01*
X198739Y203976D02*
X199789D01*
X199264D01*
Y207125D01*
X198739Y206600D01*
X255839Y152663D02*
X255314Y153188D01*
X254265D01*
X253740Y152663D01*
Y150564D01*
X254265Y150039D01*
X255314D01*
X255839Y150564D01*
X258988Y150039D02*
X256889D01*
X258988Y152138D01*
Y152663D01*
X258463Y153188D01*
X257414D01*
X256889Y152663D01*
X249382Y152781D02*
X248858Y153306D01*
X247808D01*
X247284Y152781D01*
Y150682D01*
X247808Y150157D01*
X248858D01*
X249382Y150682D01*
X250432Y152781D02*
X250957Y153306D01*
X252006D01*
X252531Y152781D01*
Y152257D01*
X252006Y151732D01*
X251482D01*
X252006D01*
X252531Y151207D01*
Y150682D01*
X252006Y150157D01*
X250957D01*
X250432Y150682D01*
X234501Y155616D02*
X233976Y156141D01*
X232926D01*
X232402Y155616D01*
Y153517D01*
X232926Y152992D01*
X233976D01*
X234501Y153517D01*
X237124Y152992D02*
Y156141D01*
X235550Y154566D01*
X237649D01*
X209422Y77821D02*
X208897Y78345D01*
X207848D01*
X207323Y77821D01*
Y75722D01*
X207848Y75197D01*
X208897D01*
X209422Y75722D01*
X212571Y78345D02*
X210471D01*
Y76771D01*
X211521Y77296D01*
X212046D01*
X212571Y76771D01*
Y75722D01*
X212046Y75197D01*
X210996D01*
X210471Y75722D01*
X275558Y126876D02*
X275033Y127401D01*
X273983D01*
X273459Y126876D01*
Y124777D01*
X273983Y124252D01*
X275033D01*
X275558Y124777D01*
X278706Y127401D02*
X277657Y126876D01*
X276607Y125826D01*
Y124777D01*
X277132Y124252D01*
X278182D01*
X278706Y124777D01*
Y125302D01*
X278182Y125826D01*
X276607D01*
X270170Y66325D02*
X269645Y66849D01*
X268596D01*
X268071Y66325D01*
Y64226D01*
X268596Y63701D01*
X269645D01*
X270170Y64226D01*
X271219Y66849D02*
X273319D01*
Y66325D01*
X271219Y64226D01*
Y63701D01*
X209579Y129179D02*
X209055Y129704D01*
X208005D01*
X207480Y129179D01*
Y127080D01*
X208005Y126555D01*
X209055D01*
X209579Y127080D01*
X210629Y129179D02*
X211154Y129704D01*
X212203D01*
X212728Y129179D01*
Y128654D01*
X212203Y128129D01*
X212728Y127605D01*
Y127080D01*
X212203Y126555D01*
X211154D01*
X210629Y127080D01*
Y127605D01*
X211154Y128129D01*
X210629Y128654D01*
Y129179D01*
X211154Y128129D02*
X212203D01*
X261312Y11797D02*
X260787Y12322D01*
X259737D01*
X259213Y11797D01*
Y9698D01*
X259737Y9173D01*
X260787D01*
X261312Y9698D01*
X262361Y9173D02*
Y12322D01*
X264460Y9173D01*
Y12322D01*
X265510Y9173D02*
X266559D01*
X266035D01*
Y12322D01*
X265510Y11797D01*
X224016Y168031D02*
Y164882D01*
X226115D01*
X227164D02*
X228214D01*
X227689D01*
Y168031D01*
X227164Y167506D01*
X237283Y164764D02*
Y167912D01*
X238858D01*
X239383Y167388D01*
Y166338D01*
X238858Y165813D01*
X237283D01*
X238333D02*
X239383Y164764D01*
X242531Y167912D02*
X240432D01*
Y166338D01*
X241482Y166863D01*
X242006D01*
X242531Y166338D01*
Y165289D01*
X242006Y164764D01*
X240957D01*
X240432Y165289D01*
X310512Y102638D02*
Y105786D01*
X312086D01*
X312611Y105262D01*
Y104212D01*
X312086Y103687D01*
X310512D01*
X311561D02*
X312611Y102638D01*
X315759Y105786D02*
X314710Y105262D01*
X313660Y104212D01*
Y103163D01*
X314185Y102638D01*
X315235D01*
X315759Y103163D01*
Y103687D01*
X315235Y104212D01*
X313660D01*
X302638Y144842D02*
X304737Y141693D01*
Y144842D02*
X302638Y141693D01*
X305786D02*
X306836D01*
X306311D01*
Y144842D01*
X305786Y144317D01*
X352087Y21578D02*
Y18954D01*
X352611Y18429D01*
X353661D01*
X354186Y18954D01*
Y21578D01*
X355235Y21053D02*
X355760Y21578D01*
X356809D01*
X357334Y21053D01*
Y20528D01*
X356809Y20003D01*
X356285D01*
X356809D01*
X357334Y19479D01*
Y18954D01*
X356809Y18429D01*
X355760D01*
X355235Y18954D01*
X43346Y210354D02*
Y213503D01*
X44921D01*
X45445Y212978D01*
Y211929D01*
X44921Y211404D01*
X43346D01*
X46495Y210354D02*
X47545D01*
X47020D01*
Y213503D01*
X46495Y212978D01*
X43583Y142165D02*
Y145314D01*
X45157D01*
X45682Y144789D01*
Y143740D01*
X45157Y143215D01*
X43583D01*
X48830Y142165D02*
X46731D01*
X48830Y144264D01*
Y144789D01*
X48306Y145314D01*
X47256D01*
X46731Y144789D01*
X42835Y73307D02*
Y76456D01*
X44409D01*
X44934Y75931D01*
Y74881D01*
X44409Y74357D01*
X42835D01*
X45983Y75931D02*
X46508Y76456D01*
X47558D01*
X48082Y75931D01*
Y75406D01*
X47558Y74881D01*
X47033D01*
X47558D01*
X48082Y74357D01*
Y73832D01*
X47558Y73307D01*
X46508D01*
X45983Y73832D01*
X42992Y4764D02*
Y7912D01*
X44566D01*
X45091Y7388D01*
Y6338D01*
X44566Y5813D01*
X42992D01*
X47715Y4764D02*
Y7912D01*
X46141Y6338D01*
X48240D01*
X199371Y155319D02*
X202520D01*
Y157418D01*
X199371Y158467D02*
X202520D01*
Y160042D01*
X201995Y160567D01*
X199896D01*
X199371Y160042D01*
Y158467D01*
X202520Y161616D02*
Y162666D01*
Y162141D01*
X199371D01*
X199896Y161616D01*
X211575Y166736D02*
Y169885D01*
X213149D01*
X213674Y169360D01*
Y168310D01*
X213149Y167786D01*
X211575D01*
X212624D02*
X213674Y166736D01*
X214723Y169885D02*
X216822D01*
Y169360D01*
X214723Y167261D01*
Y166736D01*
X380551Y166378D02*
Y169527D01*
X382125D01*
X382650Y169002D01*
Y167952D01*
X382125Y167428D01*
X380551D01*
X381601D02*
X382650Y166378D01*
X383700Y169002D02*
X384225Y169527D01*
X385274D01*
X385799Y169002D01*
Y168477D01*
X385274Y167952D01*
X385799Y167428D01*
Y166903D01*
X385274Y166378D01*
X384225D01*
X383700Y166903D01*
Y167428D01*
X384225Y167952D01*
X383700Y168477D01*
Y169002D01*
X384225Y167952D02*
X385274D01*
X228622Y26378D02*
Y29526D01*
X229672Y28477D01*
X230721Y29526D01*
Y26378D01*
X231771D02*
X232820D01*
X232295D01*
Y29526D01*
X231771Y29002D01*
X379410Y209370D02*
Y212519D01*
X380984D01*
X381508Y211994D01*
Y210944D01*
X380984Y210420D01*
X379410D01*
X384657Y212519D02*
X382558D01*
Y210944D01*
X383608Y211469D01*
X384132D01*
X384657Y210944D01*
Y209895D01*
X384132Y209370D01*
X383083D01*
X382558Y209895D01*
X384619Y189841D02*
X382520D01*
Y188267D01*
X383569D01*
X382520D01*
Y186693D01*
X385668D02*
X386718D01*
X386193D01*
Y189841D01*
X385668Y189317D01*
D40*
X342087Y129055D02*
Y133054D01*
X344086D01*
X344752Y132387D01*
Y131054D01*
X344086Y130388D01*
X342087D01*
X343420D02*
X344752Y129055D01*
X348085D02*
X346752D01*
X346085Y129722D01*
Y131054D01*
X346752Y131721D01*
X348085D01*
X348751Y131054D01*
Y130388D01*
X346085D01*
X350084Y131721D02*
X351417Y129055D01*
X352750Y131721D01*
X354083Y129055D02*
Y129722D01*
X354749D01*
Y129055D01*
X354083D01*
X361414D02*
X362747D01*
X362080D01*
Y133054D01*
X361414Y132387D01*
X364746Y129055D02*
Y129722D01*
X365412D01*
Y129055D01*
X364746D01*
X368078Y132387D02*
X368745Y133054D01*
X370078D01*
X370744Y132387D01*
Y129722D01*
X370078Y129055D01*
X368745D01*
X368078Y129722D01*
Y132387D01*
M02*
