G04 Layer_Color=16711935*
%FSLAX25Y25*%
%MOIN*%
G70*
G01*
G75*
%ADD25C,0.03937*%
%ADD26O,0.05500X0.07000*%
%ADD27R,0.05500X0.07000*%
%ADD28C,0.07087*%
%ADD29C,0.06000*%
%ADD30C,0.06693*%
%ADD31C,0.03347*%
%ADD32C,0.02559*%
%ADD33C,0.03543*%
D25*
X242480Y91799D02*
D03*
Y116209D02*
D03*
D26*
X222047Y14213D02*
D03*
X242047D02*
D03*
X212047D02*
D03*
X232047D02*
D03*
X252047D02*
D03*
D27*
X202047D02*
D03*
D28*
X27913Y16850D02*
D03*
Y36850D02*
D03*
Y56850D02*
D03*
Y85472D02*
D03*
Y105472D02*
D03*
Y125472D02*
D03*
X27874Y153898D02*
D03*
Y173898D02*
D03*
Y193898D02*
D03*
X27913Y221575D02*
D03*
Y241575D02*
D03*
Y261575D02*
D03*
X360827Y241378D02*
D03*
Y221378D02*
D03*
D29*
X373543Y194173D02*
D03*
X353543D02*
D03*
X372756Y168386D02*
D03*
X353071D02*
D03*
X215472Y186378D02*
D03*
Y216378D02*
D03*
X325709Y246378D02*
D03*
Y186378D02*
D03*
D30*
X150551Y226772D02*
D03*
X81653D02*
D03*
X150551Y256299D02*
D03*
X67874D02*
D03*
X150709Y157756D02*
D03*
X81811D02*
D03*
X150709Y187284D02*
D03*
X68032D02*
D03*
X150906Y88346D02*
D03*
X82008D02*
D03*
X150906Y117874D02*
D03*
X68228D02*
D03*
X150551Y20512D02*
D03*
X81653D02*
D03*
X150551Y50039D02*
D03*
X67874D02*
D03*
D31*
X192598Y193268D02*
D03*
X250079Y136693D02*
D03*
X234961Y143661D02*
D03*
X262559Y142402D02*
D03*
X249370Y4213D02*
D03*
X299803Y128465D02*
D03*
X303465Y134291D02*
D03*
X239252Y135866D02*
D03*
X223228Y135827D02*
D03*
X192205Y28583D02*
D03*
X250866Y32244D02*
D03*
X257323Y32283D02*
D03*
X247126Y73858D02*
D03*
X306811Y109449D02*
D03*
X284921Y109409D02*
D03*
X238268Y98386D02*
D03*
Y86968D02*
D03*
Y74213D02*
D03*
X247087Y119331D02*
D03*
X246980Y87020D02*
D03*
X188110Y40866D02*
D03*
Y50591D02*
D03*
Y63504D02*
D03*
Y108386D02*
D03*
X188228Y175118D02*
D03*
X324882Y14921D02*
D03*
X301654Y14488D02*
D03*
X296811Y11535D02*
D03*
X309055Y11693D02*
D03*
X270512Y71614D02*
D03*
X226024Y90866D02*
D03*
X204449Y87677D02*
D03*
X225709Y113150D02*
D03*
X203976Y116772D02*
D03*
X277716Y118347D02*
D03*
X257716Y117913D02*
D03*
X280715Y129213D02*
D03*
D32*
X293779Y20906D02*
D03*
X257598Y100079D02*
D03*
X207795Y97835D02*
D03*
D33*
X183346Y35984D02*
D03*
X178543Y102303D02*
D03*
X178347Y170138D02*
D03*
X238386Y106181D02*
D03*
M02*
