G04 Layer_Physical_Order=2*
G04 Layer_Color=16711680*
%FSLAX25Y25*%
%MOIN*%
G70*
G01*
G75*
%ADD24C,0.01000*%
%ADD25C,0.01575*%
%ADD26C,0.06000*%
%ADD27C,0.03937*%
%ADD28O,0.05500X0.07000*%
%ADD29R,0.05500X0.07000*%
%ADD30C,0.02559*%
%ADD31C,0.21654*%
%ADD32R,0.03862X0.03862*%
%ADD33C,0.04000*%
%ADD34R,0.05905X0.05905*%
%ADD35C,0.05905*%
%ADD36C,0.05118*%
%ADD37C,0.03347*%
%ADD38C,0.03000*%
%ADD39C,0.03543*%
G36*
X283445Y185907D02*
X283445Y185150D01*
X283455Y185101D01*
X283450Y185052D01*
X283598Y183546D01*
X283613Y183498D01*
Y183448D01*
X283908Y181964D01*
X283927Y181918D01*
X283932Y181869D01*
X284371Y180421D01*
X284395Y180377D01*
X284404Y180328D01*
X284983Y178930D01*
X285011Y178889D01*
X285026Y178841D01*
X285739Y177507D01*
X285770Y177468D01*
X285789Y177422D01*
X286630Y176164D01*
X286665Y176129D01*
X286689Y176085D01*
X287649Y174915D01*
X287687Y174884D01*
X287715Y174842D01*
X288250Y174307D01*
X288250Y174307D01*
X288571Y173986D01*
X288571Y173986D01*
X289081Y173476D01*
X289123Y173448D01*
X289154Y173410D01*
X290270Y172494D01*
X290314Y172471D01*
X290349Y172436D01*
X291549Y171634D01*
X291595Y171615D01*
X291633Y171583D01*
X292906Y170903D01*
X292953Y170888D01*
X292995Y170861D01*
X294328Y170309D01*
X294377Y170299D01*
X294421Y170275D01*
X295802Y169857D01*
X295851Y169852D01*
X295897Y169833D01*
X297313Y169551D01*
X297363D01*
X297410Y169536D01*
X298846Y169395D01*
X298896Y169400D01*
X298945Y169390D01*
X299666Y169390D01*
X313957Y169390D01*
X313957Y31476D01*
X300039Y31476D01*
X299018Y31476D01*
X298953Y31463D01*
X298886Y31467D01*
X296860Y31201D01*
X296798Y31179D01*
X296732Y31175D01*
X294758Y30646D01*
X294698Y30617D01*
X294633Y30604D01*
X292745Y29822D01*
X292690Y29785D01*
X292627Y29764D01*
X290857Y28742D01*
X290808Y28698D01*
X290748Y28669D01*
X289127Y27425D01*
X289083Y27375D01*
X289028Y27338D01*
X287583Y25893D01*
X287546Y25838D01*
X287496Y25794D01*
X286252Y24173D01*
X286223Y24114D01*
X286179Y24064D01*
X285157Y22294D01*
X285136Y22231D01*
X285100Y22176D01*
X284317Y20288D01*
X284304Y20223D01*
X284275Y20164D01*
X283746Y18190D01*
X283742Y18124D01*
X283721Y18061D01*
X283454Y16035D01*
X283458Y15969D01*
X283445Y15904D01*
X283445Y14882D01*
X283445Y1003D01*
X31515Y1003D01*
X31515Y13586D01*
X31594Y14678D01*
X31585Y14749D01*
X31594Y14821D01*
X31433Y17076D01*
X31414Y17145D01*
X31413Y17218D01*
X30933Y19427D01*
X30904Y19493D01*
X30892Y19564D01*
X30103Y21682D01*
X30065Y21744D01*
X30043Y21813D01*
X28960Y23797D01*
X28914Y23852D01*
X28882Y23918D01*
X27528Y25727D01*
X27474Y25776D01*
X27434Y25835D01*
X25835Y27434D01*
X25775Y27474D01*
X25727Y27528D01*
X23917Y28883D01*
X23852Y28914D01*
X23797Y28960D01*
X21813Y30043D01*
X21744Y30065D01*
X21682Y30103D01*
X19564Y30892D01*
X19493Y30904D01*
X19426Y30933D01*
X17217Y31413D01*
X17145Y31414D01*
X17076Y31433D01*
X14821Y31594D01*
X14749Y31585D01*
X14677Y31594D01*
X13587Y31515D01*
X1003Y31515D01*
X1003Y169115D01*
X14685Y169115D01*
X15720Y169115D01*
X15785Y169128D01*
X15851Y169123D01*
X17903Y169393D01*
X17965Y169414D01*
X18031Y169419D01*
X20030Y169955D01*
X20090Y169984D01*
X20155Y169997D01*
X22067Y170789D01*
X22122Y170825D01*
X22184Y170847D01*
X23977Y171881D01*
X24026Y171925D01*
X24086Y171954D01*
X25728Y173214D01*
X25771Y173264D01*
X25826Y173301D01*
X27290Y174764D01*
X27327Y174819D01*
X27376Y174863D01*
X28636Y176505D01*
X28665Y176564D01*
X28709Y176614D01*
X29744Y178406D01*
X29765Y178469D01*
X29802Y178524D01*
X30594Y180436D01*
X30607Y180501D01*
X30636Y180560D01*
X31172Y182559D01*
X31176Y182625D01*
X31197Y182688D01*
X31467Y184740D01*
X31463Y184806D01*
X31476Y184871D01*
X31476Y185906D01*
X31476Y199784D01*
X283445Y199784D01*
X283445Y185907D01*
D02*
G37*
%LPC*%
G36*
X136315Y44134D02*
X132953D01*
Y40772D01*
X135512D01*
X135819Y40833D01*
X136080Y41007D01*
X136253Y41268D01*
X136315Y41575D01*
Y44134D01*
D02*
G37*
G36*
X132165D02*
X128804D01*
Y41575D01*
X128865Y41268D01*
X129039Y41007D01*
X129299Y40833D01*
X129606Y40772D01*
X132165D01*
Y44134D01*
D02*
G37*
G36*
X142559Y48101D02*
X141634Y47980D01*
X140772Y47623D01*
X140032Y47055D01*
X139464Y46314D01*
X139107Y45453D01*
X138985Y44528D01*
X139107Y43603D01*
X139464Y42741D01*
X140032Y42000D01*
X140772Y41432D01*
X141634Y41076D01*
X142559Y40954D01*
X143484Y41076D01*
X144346Y41432D01*
X145086Y42000D01*
X145654Y42741D01*
X146011Y43603D01*
X146133Y44528D01*
X146011Y45453D01*
X145654Y46314D01*
X145086Y47055D01*
X144346Y47623D01*
X143484Y47980D01*
X142559Y48101D01*
D02*
G37*
G36*
X30315Y45579D02*
X29720Y45501D01*
X28799Y45119D01*
X28008Y44512D01*
X27400Y43721D01*
X27019Y42800D01*
X26940Y42205D01*
X30315D01*
Y45579D01*
D02*
G37*
G36*
X31102D02*
Y42205D01*
X34477D01*
X34399Y42800D01*
X34017Y43721D01*
X33410Y44512D01*
X32619Y45119D01*
X31697Y45501D01*
X31102Y45579D01*
D02*
G37*
G36*
X30315Y41417D02*
X26940D01*
X27019Y40822D01*
X27400Y39901D01*
X28008Y39110D01*
X28799Y38503D01*
X29720Y38121D01*
X30315Y38043D01*
Y41417D01*
D02*
G37*
G36*
X256299Y51807D02*
X254508Y51666D01*
X252760Y51246D01*
X251100Y50559D01*
X249568Y49620D01*
X248201Y48453D01*
X247034Y47086D01*
X246095Y45554D01*
X245407Y43893D01*
X244988Y42146D01*
X244847Y40354D01*
X244988Y38563D01*
X245407Y36815D01*
X246095Y35155D01*
X247034Y33623D01*
X248201Y32256D01*
X249568Y31089D01*
X251100Y30150D01*
X252760Y29462D01*
X254508Y29043D01*
X256299Y28902D01*
X258091Y29043D01*
X259838Y29462D01*
X261499Y30150D01*
X263031Y31089D01*
X264397Y32256D01*
X265565Y33623D01*
X266504Y35155D01*
X267191Y36815D01*
X267611Y38563D01*
X267752Y40354D01*
X267611Y42146D01*
X267191Y43893D01*
X266504Y45554D01*
X265565Y47086D01*
X264397Y48453D01*
X263031Y49620D01*
X261499Y50559D01*
X259838Y51246D01*
X258091Y51666D01*
X256299Y51807D01*
D02*
G37*
G36*
X34477Y41417D02*
X31102D01*
Y38043D01*
X31697Y38121D01*
X32619Y38503D01*
X33410Y39110D01*
X34017Y39901D01*
X34399Y40822D01*
X34477Y41417D01*
D02*
G37*
G36*
X175541Y41227D02*
X174811Y41082D01*
X174329Y40760D01*
X173991Y40703D01*
X173652Y40760D01*
X173171Y41082D01*
X172441Y41227D01*
X171711Y41082D01*
X171093Y40669D01*
X170679Y40050D01*
X170534Y39320D01*
X170679Y38591D01*
X171001Y38109D01*
X171059Y37771D01*
X171001Y37432D01*
X170679Y36950D01*
X170534Y36220D01*
X170679Y35491D01*
X171093Y34872D01*
X171711Y34459D01*
X172441Y34314D01*
X173171Y34459D01*
X173652Y34781D01*
X173991Y34838D01*
X174329Y34781D01*
X174811Y34459D01*
X175541Y34314D01*
X176271Y34459D01*
X176889Y34872D01*
X177303Y35491D01*
X177448Y36220D01*
X177303Y36950D01*
X176981Y37432D01*
X176923Y37771D01*
X176981Y38109D01*
X177303Y38591D01*
X177448Y39320D01*
X177303Y40050D01*
X176889Y40669D01*
X176271Y41082D01*
X175541Y41227D01*
D02*
G37*
G36*
X81968Y54788D02*
X81085Y54613D01*
X80336Y54112D01*
X79836Y53364D01*
X79660Y52480D01*
X79836Y51597D01*
X80336Y50848D01*
X80857Y50501D01*
Y43226D01*
X80651Y43089D01*
X80151Y42340D01*
X79975Y41457D01*
X80151Y40573D01*
X80651Y39825D01*
X81400Y39324D01*
X82284Y39149D01*
X83167Y39324D01*
X83916Y39825D01*
X84416Y40573D01*
X84592Y41457D01*
X84416Y42340D01*
X83916Y43089D01*
X83167Y43589D01*
X83140Y43594D01*
X83080Y43684D01*
Y50501D01*
X83601Y50848D01*
X84101Y51597D01*
X84277Y52480D01*
X84101Y53364D01*
X83601Y54112D01*
X82852Y54613D01*
X81968Y54788D01*
D02*
G37*
G36*
X132165Y48283D02*
X129606D01*
X129299Y48222D01*
X129039Y48048D01*
X128865Y47787D01*
X128804Y47480D01*
Y44921D01*
X132165D01*
Y48283D01*
D02*
G37*
G36*
X113998Y65276D02*
X112362D01*
Y63640D01*
X112775Y63722D01*
X113459Y64179D01*
X113916Y64863D01*
X113998Y65276D01*
D02*
G37*
G36*
X111575D02*
X109939D01*
X110021Y64863D01*
X110478Y64179D01*
X111162Y63722D01*
X111575Y63640D01*
Y65276D01*
D02*
G37*
G36*
Y67698D02*
X111162Y67616D01*
X110478Y67159D01*
X110021Y66476D01*
X109939Y66063D01*
X111575D01*
Y67698D01*
D02*
G37*
G36*
X217323Y75669D02*
X216386Y75545D01*
X215512Y75184D01*
X214762Y74608D01*
X214187Y73858D01*
X213825Y72985D01*
X213701Y72047D01*
X213825Y71110D01*
X214187Y70236D01*
X214762Y69486D01*
X215512Y68911D01*
X216386Y68549D01*
X217323Y68426D01*
X218260Y68549D01*
X219134Y68911D01*
X219884Y69486D01*
X220459Y70236D01*
X220821Y71110D01*
X220944Y72047D01*
X220821Y72985D01*
X220459Y73858D01*
X219884Y74608D01*
X219134Y75184D01*
X218260Y75545D01*
X217323Y75669D01*
D02*
G37*
G36*
X112362Y67698D02*
Y66063D01*
X113998D01*
X113916Y66476D01*
X113459Y67159D01*
X112775Y67616D01*
X112362Y67698D01*
D02*
G37*
G36*
X30709Y55433D02*
X29771Y55309D01*
X28898Y54947D01*
X28148Y54372D01*
X27572Y53622D01*
X27211Y52748D01*
X27087Y51811D01*
X27211Y50874D01*
X27572Y50000D01*
X28148Y49250D01*
X28898Y48675D01*
X29771Y48313D01*
X30709Y48189D01*
X31646Y48313D01*
X32519Y48675D01*
X33270Y49250D01*
X33845Y50000D01*
X34207Y50874D01*
X34330Y51811D01*
X34207Y52748D01*
X33845Y53622D01*
X33270Y54372D01*
X32519Y54947D01*
X31646Y55309D01*
X30709Y55433D01*
D02*
G37*
G36*
X135512Y48283D02*
X132953D01*
Y44921D01*
X136315D01*
Y47480D01*
X136253Y47787D01*
X136080Y48048D01*
X135819Y48222D01*
X135512Y48283D01*
D02*
G37*
G36*
X124409Y70418D02*
X123526Y70243D01*
X122777Y69742D01*
X122277Y68994D01*
X122101Y68110D01*
X122277Y67227D01*
X122777Y66478D01*
X123526Y65978D01*
X124345Y65815D01*
X128416Y61744D01*
X128366Y61247D01*
X128295Y61199D01*
X127795Y60450D01*
X127619Y59567D01*
X127795Y58684D01*
X128295Y57935D01*
X129044Y57434D01*
X129927Y57259D01*
X130810Y57434D01*
X131559Y57935D01*
X132060Y58684D01*
X132235Y59567D01*
X132060Y60450D01*
X131559Y61199D01*
X131039Y61547D01*
Y61805D01*
X130954Y62231D01*
X130713Y62591D01*
X130713Y62591D01*
X126356Y66949D01*
X126542Y67227D01*
X126718Y68110D01*
X126542Y68994D01*
X126041Y69742D01*
X125293Y70243D01*
X124409Y70418D01*
D02*
G37*
G36*
X30709Y65433D02*
X29771Y65309D01*
X28898Y64947D01*
X28148Y64372D01*
X27572Y63622D01*
X27211Y62748D01*
X27087Y61811D01*
X27211Y60874D01*
X27572Y60000D01*
X28148Y59250D01*
X28898Y58675D01*
X29771Y58313D01*
X30709Y58189D01*
X31646Y58313D01*
X32519Y58675D01*
X33270Y59250D01*
X33845Y60000D01*
X34207Y60874D01*
X34330Y61811D01*
X34207Y62748D01*
X33845Y63622D01*
X33270Y64372D01*
X32519Y64947D01*
X31646Y65309D01*
X30709Y65433D01*
D02*
G37*
G36*
X88307Y60354D02*
X85941D01*
X85985Y60020D01*
X86266Y59342D01*
X86713Y58760D01*
X87295Y58313D01*
X87973Y58032D01*
X88307Y57988D01*
Y60354D01*
D02*
G37*
G36*
X53144Y22250D02*
X47644D01*
X47192Y22062D01*
X47005Y21610D01*
Y14610D01*
X47192Y14158D01*
X47644Y13971D01*
X53144D01*
X53596Y14158D01*
X53783Y14610D01*
Y21610D01*
X53596Y22062D01*
X53144Y22250D01*
D02*
G37*
G36*
X63962Y17717D02*
X60787D01*
Y13844D01*
X61317Y13914D01*
X62178Y14270D01*
X62917Y14837D01*
X63484Y15576D01*
X63840Y16437D01*
X63962Y17360D01*
Y17717D01*
D02*
G37*
G36*
X70394Y22230D02*
X69522Y22115D01*
X68709Y21778D01*
X68011Y21243D01*
X67476Y20545D01*
X67139Y19732D01*
X67024Y18860D01*
Y17360D01*
X67139Y16488D01*
X67476Y15676D01*
X68011Y14978D01*
X68709Y14442D01*
X69522Y14106D01*
X70394Y13991D01*
X71266Y14106D01*
X72078Y14442D01*
X72776Y14978D01*
X73312Y15676D01*
X73648Y16488D01*
X73763Y17360D01*
Y18860D01*
X73648Y19732D01*
X73312Y20545D01*
X72776Y21243D01*
X72078Y21778D01*
X71266Y22115D01*
X70394Y22230D01*
D02*
G37*
G36*
X90394D02*
X89522Y22115D01*
X88709Y21778D01*
X88011Y21243D01*
X87476Y20545D01*
X87139Y19732D01*
X87024Y18860D01*
Y17360D01*
X87139Y16488D01*
X87476Y15676D01*
X88011Y14978D01*
X88709Y14442D01*
X89522Y14106D01*
X90394Y13991D01*
X91266Y14106D01*
X92078Y14442D01*
X92776Y14978D01*
X93312Y15676D01*
X93648Y16488D01*
X93763Y17360D01*
Y18860D01*
X93648Y19732D01*
X93312Y20545D01*
X92776Y21243D01*
X92078Y21778D01*
X91266Y22115D01*
X90394Y22230D01*
D02*
G37*
G36*
X80394D02*
X79522Y22115D01*
X78709Y21778D01*
X78011Y21243D01*
X77476Y20545D01*
X77139Y19732D01*
X77024Y18860D01*
Y17360D01*
X77139Y16488D01*
X77476Y15676D01*
X78011Y14978D01*
X78709Y14442D01*
X79522Y14106D01*
X80394Y13991D01*
X81266Y14106D01*
X82078Y14442D01*
X82776Y14978D01*
X83312Y15676D01*
X83648Y16488D01*
X83763Y17360D01*
Y18860D01*
X83648Y19732D01*
X83312Y20545D01*
X82776Y21243D01*
X82078Y21778D01*
X81266Y22115D01*
X80394Y22230D01*
D02*
G37*
G36*
X201540Y9129D02*
X199680D01*
Y7269D01*
X200179Y7368D01*
X200935Y7873D01*
X201441Y8630D01*
X201540Y9129D01*
D02*
G37*
G36*
X198892D02*
X197032D01*
X197132Y8630D01*
X197637Y7873D01*
X198394Y7368D01*
X198892Y7269D01*
Y9129D01*
D02*
G37*
G36*
Y11776D02*
X198394Y11677D01*
X197637Y11172D01*
X197132Y10415D01*
X197032Y9916D01*
X198892D01*
Y11776D01*
D02*
G37*
G36*
X60000Y17717D02*
X56826D01*
Y17360D01*
X56947Y16437D01*
X57304Y15576D01*
X57871Y14837D01*
X58610Y14270D01*
X59470Y13914D01*
X60000Y13844D01*
Y17717D01*
D02*
G37*
G36*
X199680Y11776D02*
Y9916D01*
X201540D01*
X201441Y10415D01*
X200935Y11172D01*
X200179Y11677D01*
X199680Y11776D01*
D02*
G37*
G36*
X100394Y22230D02*
X99522Y22115D01*
X98709Y21778D01*
X98011Y21243D01*
X97476Y20545D01*
X97139Y19732D01*
X97024Y18860D01*
Y17360D01*
X97139Y16488D01*
X97476Y15676D01*
X98011Y14978D01*
X98709Y14442D01*
X99522Y14106D01*
X100394Y13991D01*
X101266Y14106D01*
X102078Y14442D01*
X102776Y14978D01*
X103312Y15676D01*
X103648Y16488D01*
X103763Y17360D01*
Y18860D01*
X103648Y19732D01*
X103312Y20545D01*
X102776Y21243D01*
X102078Y21778D01*
X101266Y22115D01*
X100394Y22230D01*
D02*
G37*
G36*
X171703Y27638D02*
X169843D01*
Y25778D01*
X170341Y25877D01*
X171098Y26382D01*
X171604Y27139D01*
X171703Y27638D01*
D02*
G37*
G36*
X169055D02*
X167195D01*
X167294Y27139D01*
X167800Y26382D01*
X168556Y25877D01*
X169055Y25778D01*
Y27638D01*
D02*
G37*
G36*
Y30285D02*
X168556Y30186D01*
X167800Y29681D01*
X167294Y28924D01*
X167195Y28425D01*
X169055D01*
Y30285D01*
D02*
G37*
G36*
X58661Y51807D02*
X56870Y51666D01*
X55122Y51246D01*
X53462Y50559D01*
X51930Y49620D01*
X50563Y48453D01*
X49396Y47086D01*
X48457Y45554D01*
X47769Y43893D01*
X47350Y42146D01*
X47209Y40354D01*
X47350Y38563D01*
X47769Y36815D01*
X48457Y35155D01*
X49396Y33623D01*
X50563Y32256D01*
X51930Y31089D01*
X53462Y30150D01*
X55122Y29462D01*
X56870Y29043D01*
X58661Y28902D01*
X60453Y29043D01*
X62200Y29462D01*
X63861Y30150D01*
X65393Y31089D01*
X66760Y32256D01*
X67927Y33623D01*
X68866Y35155D01*
X69554Y36815D01*
X69973Y38563D01*
X70114Y40354D01*
X69973Y42146D01*
X69554Y43893D01*
X68866Y45554D01*
X67927Y47086D01*
X66760Y48453D01*
X65393Y49620D01*
X63861Y50559D01*
X62200Y51246D01*
X60453Y51666D01*
X58661Y51807D01*
D02*
G37*
G36*
X169843Y30285D02*
Y28425D01*
X171703D01*
X171604Y28924D01*
X171098Y29681D01*
X170341Y30186D01*
X169843Y30285D01*
D02*
G37*
G36*
X60787Y22376D02*
Y18504D01*
X63962D01*
Y18860D01*
X63840Y19784D01*
X63484Y20644D01*
X62917Y21383D01*
X62178Y21950D01*
X61317Y22307D01*
X60787Y22376D01*
D02*
G37*
G36*
X60000D02*
X59470Y22307D01*
X58610Y21950D01*
X57871Y21383D01*
X57304Y20644D01*
X56947Y19784D01*
X56826Y18860D01*
Y18504D01*
X60000D01*
Y22376D01*
D02*
G37*
G36*
X132283Y29212D02*
X131346Y29089D01*
X130473Y28727D01*
X129723Y28151D01*
X129147Y27401D01*
X128785Y26528D01*
X128662Y25591D01*
X128785Y24653D01*
X129147Y23780D01*
X129723Y23030D01*
X130473Y22454D01*
X131346Y22092D01*
X132283Y21969D01*
X133221Y22092D01*
X134094Y22454D01*
X134844Y23030D01*
X135420Y23780D01*
X135782Y24653D01*
X135905Y25591D01*
X135782Y26528D01*
X135420Y27401D01*
X134844Y28151D01*
X134094Y28727D01*
X133221Y29089D01*
X132283Y29212D01*
D02*
G37*
G36*
X185433Y23785D02*
X184617Y23623D01*
X183926Y23161D01*
X183464Y22469D01*
X183459Y22445D01*
X180683D01*
X180419Y22841D01*
X179727Y23303D01*
X178911Y23465D01*
X178096Y23303D01*
X177404Y22841D01*
X176942Y22149D01*
X176780Y21334D01*
X176942Y20518D01*
X177404Y19826D01*
X178096Y19364D01*
X178911Y19202D01*
X179727Y19364D01*
X180419Y19826D01*
X180683Y20222D01*
X183876D01*
X183926Y20146D01*
X184617Y19684D01*
X185433Y19522D01*
X186249Y19684D01*
X186940Y20146D01*
X187402Y20838D01*
X187565Y21654D01*
X187402Y22469D01*
X186940Y23161D01*
X186249Y23623D01*
X185433Y23785D01*
D02*
G37*
G36*
X142283Y29212D02*
X141346Y29089D01*
X140473Y28727D01*
X139723Y28151D01*
X139147Y27401D01*
X138785Y26528D01*
X138662Y25591D01*
X138785Y24653D01*
X139147Y23780D01*
X139723Y23030D01*
X140473Y22454D01*
X141346Y22092D01*
X142283Y21969D01*
X143221Y22092D01*
X144094Y22454D01*
X144844Y23030D01*
X145420Y23780D01*
X145782Y24653D01*
X145905Y25591D01*
X145782Y26528D01*
X145420Y27401D01*
X144844Y28151D01*
X144094Y28727D01*
X143221Y29089D01*
X142283Y29212D01*
D02*
G37*
G36*
X227323Y75669D02*
X226385Y75545D01*
X225512Y75184D01*
X224762Y74608D01*
X224186Y73858D01*
X223825Y72985D01*
X223701Y72047D01*
X223825Y71110D01*
X224186Y70236D01*
X224762Y69486D01*
X225512Y68911D01*
X226385Y68549D01*
X227323Y68426D01*
X228260Y68549D01*
X229134Y68911D01*
X229884Y69486D01*
X230459Y70236D01*
X230821Y71110D01*
X230944Y72047D01*
X230821Y72985D01*
X230459Y73858D01*
X229884Y74608D01*
X229134Y75184D01*
X228260Y75545D01*
X227323Y75669D01*
D02*
G37*
G36*
X297992Y124358D02*
X297170Y124250D01*
X296404Y123932D01*
X295746Y123427D01*
X295241Y122769D01*
X294924Y122003D01*
X294815Y121181D01*
X294924Y120359D01*
X295241Y119593D01*
X295746Y118935D01*
X296404Y118430D01*
X297170Y118113D01*
X297992Y118004D01*
X298814Y118113D01*
X299581Y118430D01*
X300238Y118935D01*
X300743Y119593D01*
X301061Y120359D01*
X301169Y121181D01*
X301061Y122003D01*
X300743Y122769D01*
X300238Y123427D01*
X299581Y123932D01*
X298814Y124250D01*
X297992Y124358D01*
D02*
G37*
G36*
X226772Y166623D02*
X164567D01*
X164115Y166436D01*
X163928Y165984D01*
Y116693D01*
X164115Y116241D01*
X164567Y116054D01*
X226772D01*
X227224Y116241D01*
X227411Y116693D01*
Y165984D01*
X227224Y166436D01*
X226772Y166623D01*
D02*
G37*
G36*
X57205Y131718D02*
X56321Y131542D01*
X55573Y131042D01*
X55072Y130293D01*
X54897Y129409D01*
X55072Y128526D01*
X55573Y127777D01*
X56321Y127277D01*
X57205Y127101D01*
X58088Y127277D01*
X58837Y127777D01*
X59067Y128123D01*
X64890D01*
X70487Y122526D01*
X70434Y122258D01*
X70610Y121375D01*
X71110Y120626D01*
X71859Y120125D01*
X72742Y119950D01*
X73625Y120125D01*
X74374Y120626D01*
X74875Y121375D01*
X75050Y122258D01*
X74875Y123141D01*
X74374Y123890D01*
X73625Y124390D01*
X72742Y124566D01*
X72474Y124513D01*
X66466Y130521D01*
X66010Y130826D01*
X65472Y130932D01*
X58910D01*
X58837Y131042D01*
X58088Y131542D01*
X57205Y131718D01*
D02*
G37*
G36*
X139655Y124016D02*
X137795D01*
Y122155D01*
X138294Y122255D01*
X139051Y122760D01*
X139556Y123517D01*
X139655Y124016D01*
D02*
G37*
G36*
X137008D02*
X135148D01*
X135247Y123517D01*
X135752Y122760D01*
X136509Y122255D01*
X137008Y122155D01*
Y124016D01*
D02*
G37*
G36*
X157520Y113543D02*
X155884D01*
X155966Y113130D01*
X156423Y112447D01*
X157107Y111990D01*
X157520Y111908D01*
Y113543D01*
D02*
G37*
G36*
X31890Y116614D02*
X30952Y116490D01*
X30079Y116129D01*
X29329Y115553D01*
X28753Y114803D01*
X28392Y113929D01*
X28268Y112992D01*
X28392Y112055D01*
X28753Y111181D01*
X29329Y110431D01*
X30079Y109856D01*
X30952Y109494D01*
X31890Y109371D01*
X32827Y109494D01*
X33700Y109856D01*
X34451Y110431D01*
X35026Y111181D01*
X35388Y112055D01*
X35511Y112992D01*
X35388Y113929D01*
X35026Y114803D01*
X34451Y115553D01*
X33700Y116129D01*
X32827Y116490D01*
X31890Y116614D01*
D02*
G37*
G36*
X159942Y113543D02*
X158307D01*
Y111908D01*
X158720Y111990D01*
X159404Y112447D01*
X159860Y113130D01*
X159942Y113543D01*
D02*
G37*
G36*
X158307Y115966D02*
Y114331D01*
X159942D01*
X159860Y114743D01*
X159404Y115427D01*
X158720Y115884D01*
X158307Y115966D01*
D02*
G37*
G36*
X157520D02*
X157107Y115884D01*
X156423Y115427D01*
X155966Y114743D01*
X155884Y114331D01*
X157520D01*
Y115966D01*
D02*
G37*
G36*
X137008Y126663D02*
X136509Y126564D01*
X135752Y126059D01*
X135247Y125302D01*
X135148Y124803D01*
X137008D01*
Y126663D01*
D02*
G37*
G36*
X256299Y171886D02*
X254508Y171745D01*
X252760Y171325D01*
X251100Y170637D01*
X249568Y169698D01*
X248201Y168531D01*
X247034Y167165D01*
X246095Y165632D01*
X245407Y163972D01*
X244988Y162225D01*
X244847Y160433D01*
X244988Y158642D01*
X245407Y156894D01*
X246095Y155234D01*
X247034Y153701D01*
X248201Y152335D01*
X249568Y151168D01*
X251100Y150229D01*
X252760Y149541D01*
X254508Y149121D01*
X256299Y148980D01*
X258091Y149121D01*
X259838Y149541D01*
X261499Y150229D01*
X263031Y151168D01*
X264397Y152335D01*
X265565Y153701D01*
X266504Y155234D01*
X267191Y156894D01*
X267611Y158642D01*
X267752Y160433D01*
X267611Y162225D01*
X267191Y163972D01*
X266504Y165632D01*
X265565Y167165D01*
X264397Y168531D01*
X263031Y169698D01*
X261499Y170637D01*
X259838Y171325D01*
X258091Y171745D01*
X256299Y171886D01*
D02*
G37*
G36*
X58661D02*
X56870Y171745D01*
X55122Y171325D01*
X53462Y170637D01*
X51930Y169698D01*
X50563Y168531D01*
X49396Y167165D01*
X48457Y165632D01*
X47769Y163972D01*
X47350Y162225D01*
X47209Y160433D01*
X47350Y158642D01*
X47769Y156894D01*
X48457Y155234D01*
X49396Y153701D01*
X50563Y152335D01*
X51930Y151168D01*
X53462Y150229D01*
X55122Y149541D01*
X56870Y149121D01*
X58661Y148980D01*
X60453Y149121D01*
X62200Y149541D01*
X63861Y150229D01*
X65393Y151168D01*
X66760Y152335D01*
X67927Y153701D01*
X68866Y155234D01*
X69554Y156894D01*
X69973Y158642D01*
X70114Y160433D01*
X69973Y162225D01*
X69554Y163972D01*
X68866Y165632D01*
X67927Y167165D01*
X66760Y168531D01*
X65393Y169698D01*
X63861Y170637D01*
X62200Y171325D01*
X60453Y171745D01*
X58661Y171886D01*
D02*
G37*
G36*
X91339Y154377D02*
X90417Y154194D01*
X89635Y153672D01*
X89113Y152890D01*
X88930Y151969D01*
X89113Y151047D01*
X89635Y150266D01*
X90417Y149743D01*
X91339Y149560D01*
X92260Y149743D01*
X93042Y150266D01*
X93241Y150564D01*
X94207D01*
X94358Y150064D01*
X94162Y149932D01*
X93700Y149241D01*
X93538Y148425D01*
X93700Y147609D01*
X94162Y146918D01*
X94854Y146456D01*
X95669Y146294D01*
X96485Y146456D01*
X96564Y146509D01*
X97914Y145159D01*
X97914Y145159D01*
X98275Y144918D01*
X98701Y144833D01*
X101300D01*
X101564Y144438D01*
X102255Y143976D01*
X103071Y143813D01*
X103887Y143976D01*
X104578Y144438D01*
X105040Y145129D01*
X105202Y145945D01*
X105040Y146761D01*
X104578Y147452D01*
X103887Y147914D01*
X103071Y148076D01*
X102255Y147914D01*
X101564Y147452D01*
X101300Y147057D01*
X99161D01*
X97799Y148419D01*
X97801Y148425D01*
X97638Y149241D01*
X97176Y149932D01*
X96980Y150064D01*
X97132Y150564D01*
X103334D01*
X103486Y150336D01*
X104235Y149836D01*
X105118Y149660D01*
X106001Y149836D01*
X106750Y150336D01*
X107250Y151085D01*
X107426Y151969D01*
X107250Y152852D01*
X106750Y153601D01*
X106001Y154101D01*
X105118Y154277D01*
X104235Y154101D01*
X103486Y153601D01*
X103334Y153374D01*
X93241D01*
X93042Y153672D01*
X92260Y154194D01*
X91339Y154377D01*
D02*
G37*
G36*
X215472Y194277D02*
X214589Y194101D01*
X213840Y193601D01*
X213340Y192852D01*
X213164Y191969D01*
X213340Y191085D01*
X213840Y190336D01*
X214589Y189836D01*
X215472Y189660D01*
X215593Y189684D01*
X223392Y181886D01*
X223379Y181868D01*
X223204Y180984D01*
X223379Y180101D01*
X223880Y179352D01*
X224628Y178852D01*
X225512Y178676D01*
X226395Y178852D01*
X227144Y179352D01*
X227644Y180101D01*
X227820Y180984D01*
X227644Y181868D01*
X227144Y182616D01*
X226395Y183117D01*
X225512Y183292D01*
X225194Y183229D01*
X217498Y190925D01*
X217605Y191085D01*
X217781Y191969D01*
X217605Y192852D01*
X217105Y193601D01*
X216356Y194101D01*
X215472Y194277D01*
D02*
G37*
G36*
X191693Y189710D02*
X190810Y189534D01*
X190061Y189034D01*
X189560Y188285D01*
X189385Y187402D01*
X189560Y186518D01*
X190061Y185769D01*
X190288Y185618D01*
Y181272D01*
X190108Y181152D01*
X189586Y180370D01*
X189402Y179449D01*
X189586Y178527D01*
X190108Y177746D01*
X190889Y177224D01*
X191811Y177040D01*
X192733Y177224D01*
X193514Y177746D01*
X194036Y178527D01*
X194220Y179449D01*
X194036Y180370D01*
X193514Y181152D01*
X193098Y181430D01*
Y185618D01*
X193325Y185769D01*
X193825Y186518D01*
X194001Y187402D01*
X193825Y188285D01*
X193325Y189034D01*
X192576Y189534D01*
X191693Y189710D01*
D02*
G37*
G36*
X125472Y157938D02*
X124589Y157762D01*
X123840Y157262D01*
X123340Y156513D01*
X123164Y155630D01*
X123340Y154747D01*
X123840Y153998D01*
X124067Y153846D01*
Y136684D01*
X112646Y125263D01*
X109478D01*
X109287Y125725D01*
X120482Y136920D01*
X120786Y137376D01*
X120893Y137913D01*
Y138964D01*
X121120Y139116D01*
X121621Y139865D01*
X121796Y140748D01*
X121621Y141631D01*
X121120Y142380D01*
X120371Y142880D01*
X119488Y143056D01*
X118605Y142880D01*
X117856Y142380D01*
X117356Y141631D01*
X117180Y140748D01*
X117356Y139865D01*
X117856Y139116D01*
X118054Y138983D01*
X118081Y138494D01*
X105701Y126113D01*
X105433Y126166D01*
X104550Y125991D01*
X103801Y125490D01*
X103301Y124742D01*
X103125Y123858D01*
X103301Y122975D01*
X103801Y122226D01*
X104550Y121726D01*
X105433Y121550D01*
X106316Y121726D01*
X107065Y122226D01*
X107217Y122453D01*
X109183D01*
X109374Y121991D01*
X101449Y114066D01*
X101181Y114119D01*
X100298Y113944D01*
X99549Y113443D01*
X99049Y112694D01*
X98873Y111811D01*
X99049Y110928D01*
X99549Y110179D01*
X100298Y109679D01*
X101181Y109503D01*
X101449Y109556D01*
X128910Y82095D01*
Y80076D01*
X128504Y79908D01*
X127754Y79333D01*
X127179Y78582D01*
X126817Y77709D01*
X126693Y76772D01*
X126817Y75834D01*
X127179Y74961D01*
X127754Y74211D01*
X128504Y73635D01*
X129378Y73273D01*
X130315Y73150D01*
X131252Y73273D01*
X132126Y73635D01*
X132876Y74211D01*
X133451Y74961D01*
X133813Y75834D01*
X133937Y76772D01*
X133813Y77709D01*
X133451Y78582D01*
X132876Y79333D01*
X132126Y79908D01*
X131720Y80076D01*
Y82677D01*
X131613Y83215D01*
X131308Y83671D01*
X103436Y111543D01*
X103489Y111811D01*
X103436Y112079D01*
X113810Y122453D01*
X122008D01*
X122546Y122560D01*
X123001Y122865D01*
X127606Y127470D01*
X127874Y127416D01*
X128757Y127592D01*
X129506Y128092D01*
X130006Y128841D01*
X130182Y129724D01*
X130006Y130608D01*
X129506Y131357D01*
X128757Y131857D01*
X127874Y132033D01*
X126991Y131857D01*
X126242Y131357D01*
X125742Y130608D01*
X125566Y129724D01*
X125619Y129456D01*
X121426Y125263D01*
X117273D01*
X117082Y125725D01*
X126466Y135109D01*
X126770Y135565D01*
X126877Y136102D01*
Y140076D01*
X127377Y140228D01*
X127526Y140006D01*
X128209Y139549D01*
X128622Y139467D01*
Y141496D01*
Y143525D01*
X128209Y143443D01*
X127526Y142986D01*
X127377Y142764D01*
X126877Y142916D01*
Y153846D01*
X127104Y153998D01*
X127605Y154747D01*
X127781Y155630D01*
X127605Y156513D01*
X127104Y157262D01*
X126356Y157762D01*
X125472Y157938D01*
D02*
G37*
G36*
X137795Y126663D02*
Y124803D01*
X139655D01*
X139556Y125302D01*
X139051Y126059D01*
X138294Y126564D01*
X137795Y126663D01*
D02*
G37*
G36*
X89101Y126256D02*
X88976Y126231D01*
X88852Y126256D01*
X88084Y126103D01*
X87978Y126033D01*
X87853Y126008D01*
X87202Y125573D01*
X87131Y125467D01*
X87026Y125396D01*
X86591Y124745D01*
X86566Y124621D01*
X86495Y124515D01*
X86342Y123747D01*
X86355Y123682D01*
X86330Y123622D01*
X86355Y123562D01*
X86342Y123497D01*
X86495Y122729D01*
X86566Y122624D01*
X86591Y122499D01*
X87026Y121848D01*
X87131Y121777D01*
X87202Y121671D01*
X87853Y121236D01*
X87978Y121212D01*
X88084Y121141D01*
X88852Y120988D01*
X88976Y121013D01*
X89101Y120988D01*
X89869Y121141D01*
X89975Y121212D01*
X90100Y121236D01*
X90751Y121671D01*
X90821Y121777D01*
X90927Y121848D01*
X91362Y122499D01*
X91387Y122624D01*
X91458Y122729D01*
X91610Y123497D01*
X91598Y123562D01*
X91623Y123622D01*
X91598Y123683D01*
X91610Y123747D01*
X91458Y124515D01*
X91387Y124621D01*
X91362Y124745D01*
X90927Y125396D01*
X90821Y125467D01*
X90751Y125573D01*
X90100Y126008D01*
X89975Y126033D01*
X89869Y126103D01*
X89101Y126256D01*
D02*
G37*
G36*
X129409Y143525D02*
Y141890D01*
X131045D01*
X130963Y142303D01*
X130506Y142986D01*
X129822Y143443D01*
X129409Y143525D01*
D02*
G37*
G36*
X131045Y141102D02*
X129409D01*
Y139467D01*
X129822Y139549D01*
X130506Y140006D01*
X130963Y140690D01*
X131045Y141102D01*
D02*
G37*
G36*
X262441Y88020D02*
X261846Y87942D01*
X260925Y87560D01*
X260133Y86953D01*
X259526Y86162D01*
X259145Y85241D01*
X259066Y84646D01*
X262441D01*
Y88020D01*
D02*
G37*
G36*
X61417Y82053D02*
X60602Y81890D01*
X59910Y81428D01*
X59646Y81033D01*
X56889D01*
X56625Y81428D01*
X55934Y81890D01*
X55118Y82053D01*
X54302Y81890D01*
X53611Y81428D01*
X53149Y80737D01*
X52987Y79921D01*
X53149Y79106D01*
X53611Y78414D01*
X54302Y77952D01*
X55118Y77790D01*
X55934Y77952D01*
X56625Y78414D01*
X56889Y78809D01*
X59646D01*
X59910Y78414D01*
X60602Y77952D01*
X61417Y77790D01*
X62233Y77952D01*
X62924Y78414D01*
X63387Y79106D01*
X63549Y79921D01*
X63387Y80737D01*
X62924Y81428D01*
X62233Y81890D01*
X61417Y82053D01*
D02*
G37*
G36*
X263228Y88020D02*
Y84646D01*
X266603D01*
X266525Y85241D01*
X266143Y86162D01*
X265536Y86953D01*
X264745Y87560D01*
X263823Y87942D01*
X263228Y88020D01*
D02*
G37*
G36*
X301316Y90787D02*
X298386D01*
Y87858D01*
X298866Y87921D01*
X299680Y88258D01*
X300379Y88794D01*
X300915Y89493D01*
X301252Y90307D01*
X301316Y90787D01*
D02*
G37*
G36*
X297599D02*
X294669D01*
X294732Y90307D01*
X295069Y89493D01*
X295605Y88794D01*
X296304Y88258D01*
X297118Y87921D01*
X297599Y87858D01*
Y90787D01*
D02*
G37*
G36*
X140315Y80393D02*
X139378Y80270D01*
X138504Y79908D01*
X137754Y79333D01*
X137179Y78582D01*
X136817Y77709D01*
X136693Y76772D01*
X136817Y75834D01*
X137179Y74961D01*
X137754Y74211D01*
X138504Y73635D01*
X139378Y73273D01*
X140315Y73150D01*
X141252Y73273D01*
X142126Y73635D01*
X142876Y74211D01*
X143451Y74961D01*
X143813Y75834D01*
X143937Y76772D01*
X143813Y77709D01*
X143451Y78582D01*
X142876Y79333D01*
X142126Y79908D01*
X141252Y80270D01*
X140315Y80393D01*
D02*
G37*
G36*
X93701Y73361D02*
X93024Y73272D01*
X92394Y73011D01*
X91853Y72596D01*
X91481Y72111D01*
X91201Y72080D01*
X90920Y72111D01*
X90548Y72596D01*
X90007Y73011D01*
X89377Y73272D01*
X88701Y73361D01*
X88024Y73272D01*
X87394Y73011D01*
X86853Y72596D01*
X86438Y72054D01*
X86177Y71424D01*
X86088Y70748D01*
X86177Y70072D01*
X86438Y69442D01*
X86853Y68901D01*
X87338Y68529D01*
X87368Y68248D01*
X87338Y67967D01*
X86853Y67596D01*
X86438Y67054D01*
X86177Y66424D01*
X86088Y65748D01*
X86177Y65072D01*
X86438Y64442D01*
X86853Y63901D01*
X87157Y63667D01*
X87191Y63548D01*
X87151Y63072D01*
X86713Y62736D01*
X86266Y62154D01*
X85985Y61476D01*
X85941Y61142D01*
X88701D01*
Y60748D01*
X89095D01*
Y57988D01*
X89428Y58032D01*
X90106Y58313D01*
X90662Y58740D01*
X90682Y58743D01*
X90797Y58731D01*
X91212Y58620D01*
X91318Y58365D01*
X91770Y58178D01*
X95632D01*
X96084Y58365D01*
X96271Y58817D01*
Y59676D01*
X101642D01*
X101990Y59155D01*
X102739Y58655D01*
X103622Y58479D01*
X104505Y58655D01*
X105254Y59155D01*
X105754Y59904D01*
X105930Y60787D01*
X105754Y61671D01*
X105254Y62419D01*
X104505Y62920D01*
X103622Y63095D01*
X102739Y62920D01*
X101990Y62419D01*
X101642Y61899D01*
X96271D01*
Y62679D01*
X96084Y63131D01*
X95632Y63318D01*
X95611D01*
X95441Y63818D01*
X95548Y63901D01*
X95964Y64442D01*
X96225Y65072D01*
X96314Y65748D01*
X96225Y66424D01*
X95964Y67054D01*
X95548Y67596D01*
X95064Y67967D01*
X95033Y68248D01*
X95064Y68529D01*
X95548Y68901D01*
X95964Y69442D01*
X96225Y70072D01*
X96314Y70748D01*
X96225Y71424D01*
X95964Y72054D01*
X95548Y72596D01*
X95007Y73011D01*
X94377Y73272D01*
X93701Y73361D01*
D02*
G37*
G36*
X101181Y97466D02*
X100298Y97290D01*
X99549Y96790D01*
X99049Y96041D01*
X98873Y95157D01*
X99049Y94274D01*
X99549Y93525D01*
X100298Y93025D01*
X101181Y92849D01*
X101449Y92903D01*
X104697Y89654D01*
Y74519D01*
X103890Y73712D01*
X103622Y73765D01*
X102739Y73589D01*
X101990Y73089D01*
X101490Y72340D01*
X101314Y71457D01*
X101490Y70573D01*
X101990Y69825D01*
X102739Y69324D01*
X103622Y69149D01*
X104505Y69324D01*
X105254Y69825D01*
X105754Y70573D01*
X105930Y71457D01*
X105877Y71725D01*
X107096Y72944D01*
X107400Y73399D01*
X107507Y73937D01*
Y90236D01*
X107400Y90774D01*
X107096Y91230D01*
X103436Y94889D01*
X103489Y95157D01*
X103314Y96041D01*
X102813Y96790D01*
X102064Y97290D01*
X101181Y97466D01*
D02*
G37*
G36*
X266603Y83858D02*
X263228D01*
Y80484D01*
X263823Y80562D01*
X264745Y80944D01*
X265536Y81551D01*
X266143Y82342D01*
X266525Y83263D01*
X266603Y83858D01*
D02*
G37*
G36*
X262441D02*
X259066D01*
X259145Y83263D01*
X259526Y82342D01*
X260133Y81551D01*
X260925Y80944D01*
X261846Y80562D01*
X262441Y80484D01*
Y83858D01*
D02*
G37*
G36*
X262835Y97874D02*
X261897Y97750D01*
X261024Y97388D01*
X260274Y96813D01*
X259698Y96063D01*
X259336Y95189D01*
X259213Y94252D01*
X259336Y93315D01*
X259698Y92441D01*
X260274Y91691D01*
X261024Y91116D01*
X261897Y90754D01*
X262835Y90630D01*
X263772Y90754D01*
X264645Y91116D01*
X265395Y91691D01*
X265971Y92441D01*
X266333Y93315D01*
X266456Y94252D01*
X266333Y95189D01*
X265971Y96063D01*
X265395Y96813D01*
X264645Y97388D01*
X263772Y97750D01*
X262835Y97874D01*
D02*
G37*
G36*
X163228Y104730D02*
X162413Y104568D01*
X161721Y104106D01*
X161259Y103414D01*
X161097Y102598D01*
X161259Y101783D01*
X161721Y101091D01*
X162413Y100629D01*
X163228Y100467D01*
X163273Y100476D01*
X163623Y100036D01*
X163498Y99410D01*
X163661Y98594D01*
X164123Y97902D01*
X164814Y97440D01*
X165630Y97278D01*
X166446Y97440D01*
X167137Y97902D01*
X167401Y98298D01*
X174081D01*
X174477Y97705D01*
X175169Y97243D01*
X175984Y97081D01*
X176800Y97243D01*
X177491Y97705D01*
X177954Y98397D01*
X178116Y99213D01*
X177954Y100028D01*
X177491Y100720D01*
X177092Y100987D01*
X177244Y101487D01*
X193609D01*
X193926Y101013D01*
X194617Y100550D01*
X195433Y100388D01*
X196249Y100550D01*
X196940Y101013D01*
X197402Y101704D01*
X197565Y102520D01*
X197402Y103335D01*
X196940Y104027D01*
X196249Y104489D01*
X195433Y104651D01*
X194617Y104489D01*
X193926Y104027D01*
X193714Y103710D01*
X165000D01*
X164736Y104106D01*
X164044Y104568D01*
X163228Y104730D01*
D02*
G37*
G36*
X31890Y106614D02*
X30952Y106490D01*
X30079Y106129D01*
X29329Y105553D01*
X28753Y104803D01*
X28392Y103929D01*
X28268Y102992D01*
X28392Y102055D01*
X28753Y101181D01*
X29329Y100431D01*
X30079Y99856D01*
X30952Y99494D01*
X31890Y99371D01*
X32827Y99494D01*
X33700Y99856D01*
X34451Y100431D01*
X35026Y101181D01*
X35388Y102055D01*
X35511Y102992D01*
X35388Y103929D01*
X35026Y104803D01*
X34451Y105553D01*
X33700Y106129D01*
X32827Y106490D01*
X31890Y106614D01*
D02*
G37*
G36*
X89101Y101847D02*
X88976Y101822D01*
X88852Y101847D01*
X88084Y101694D01*
X87978Y101623D01*
X87853Y101598D01*
X87202Y101163D01*
X87131Y101058D01*
X87026Y100987D01*
X86591Y100336D01*
X86566Y100211D01*
X86495Y100105D01*
X86342Y99337D01*
X86355Y99273D01*
X86330Y99213D01*
X86355Y99152D01*
X86342Y99088D01*
X86495Y98320D01*
X86566Y98214D01*
X86591Y98089D01*
X87026Y97438D01*
X87131Y97368D01*
X87202Y97262D01*
X87853Y96827D01*
X87978Y96802D01*
X88084Y96731D01*
X88852Y96579D01*
X88976Y96603D01*
X89101Y96579D01*
X89869Y96731D01*
X89975Y96802D01*
X90100Y96827D01*
X90751Y97262D01*
X90821Y97368D01*
X90927Y97438D01*
X91362Y98089D01*
X91387Y98214D01*
X91458Y98320D01*
X91610Y99088D01*
X91598Y99152D01*
X91623Y99213D01*
X91598Y99273D01*
X91610Y99337D01*
X91458Y100105D01*
X91387Y100211D01*
X91362Y100336D01*
X90927Y100987D01*
X90821Y101058D01*
X90751Y101163D01*
X90100Y101598D01*
X89975Y101623D01*
X89869Y101694D01*
X89101Y101847D01*
D02*
G37*
G36*
X297992Y114358D02*
X297170Y114250D01*
X296404Y113932D01*
X295746Y113427D01*
X295241Y112769D01*
X294924Y112003D01*
X294815Y111181D01*
X294924Y110359D01*
X295241Y109593D01*
X295746Y108935D01*
X296404Y108430D01*
X297170Y108113D01*
X297992Y108004D01*
X298814Y108113D01*
X299581Y108430D01*
X300238Y108935D01*
X300743Y109593D01*
X301061Y110359D01*
X301169Y111181D01*
X301061Y112003D01*
X300743Y112769D01*
X300238Y113427D01*
X299581Y113932D01*
X298814Y114250D01*
X297992Y114358D01*
D02*
G37*
G36*
X93701Y120812D02*
X92817Y120636D01*
X92069Y120136D01*
X91568Y119387D01*
X91393Y118504D01*
X91568Y117621D01*
X92069Y116872D01*
X92589Y116524D01*
Y110641D01*
X92069Y110293D01*
X91568Y109545D01*
X91393Y108661D01*
X91568Y107778D01*
X92069Y107029D01*
X92817Y106529D01*
X93701Y106353D01*
X94584Y106529D01*
X95333Y107029D01*
X95833Y107778D01*
X96009Y108661D01*
X95833Y109545D01*
X95333Y110293D01*
X94813Y110641D01*
Y116524D01*
X95333Y116872D01*
X95833Y117621D01*
X96009Y118504D01*
X95833Y119387D01*
X95333Y120136D01*
X94584Y120636D01*
X93701Y120812D01*
D02*
G37*
G36*
X298386Y94505D02*
Y91575D01*
X301316D01*
X301252Y92055D01*
X300915Y92869D01*
X300379Y93568D01*
X299680Y94104D01*
X298866Y94441D01*
X298386Y94505D01*
D02*
G37*
G36*
X297599D02*
X297118Y94441D01*
X296304Y94104D01*
X295605Y93568D01*
X295069Y92869D01*
X294732Y92055D01*
X294669Y91575D01*
X297599D01*
Y94505D01*
D02*
G37*
G36*
X93701Y97190D02*
X92817Y97014D01*
X92069Y96514D01*
X91568Y95765D01*
X91393Y94882D01*
X91515Y94268D01*
X81182Y83936D01*
X80941Y83575D01*
X80857Y83150D01*
X80857Y83149D01*
Y77165D01*
X80461Y76901D01*
X79999Y76209D01*
X79837Y75394D01*
X79999Y74578D01*
X80461Y73887D01*
X81153Y73424D01*
X81968Y73262D01*
X82784Y73424D01*
X83476Y73887D01*
X83938Y74578D01*
X84100Y75394D01*
X83938Y76209D01*
X83476Y76901D01*
X83080Y77165D01*
Y82689D01*
X93087Y92696D01*
X93701Y92574D01*
X94584Y92750D01*
X95333Y93250D01*
X95833Y93999D01*
X96009Y94882D01*
X95833Y95765D01*
X95333Y96514D01*
X94584Y97014D01*
X93701Y97190D01*
D02*
G37*
G36*
X297992Y104358D02*
X297170Y104250D01*
X296404Y103932D01*
X295746Y103427D01*
X295241Y102769D01*
X294924Y102003D01*
X294815Y101181D01*
X294924Y100359D01*
X295241Y99593D01*
X295746Y98935D01*
X296404Y98430D01*
X297170Y98113D01*
X297992Y98004D01*
X298814Y98113D01*
X299581Y98430D01*
X300238Y98935D01*
X300743Y99593D01*
X301061Y100359D01*
X301169Y101181D01*
X301061Y102003D01*
X300743Y102769D01*
X300238Y103427D01*
X299581Y103932D01*
X298814Y104250D01*
X297992Y104358D01*
D02*
G37*
G36*
X66142Y108098D02*
X46457D01*
X45919Y107991D01*
X45463Y107686D01*
X43259Y105482D01*
X42954Y105026D01*
X42847Y104488D01*
Y101784D01*
X42620Y101632D01*
X42120Y100883D01*
X41944Y100000D01*
X42120Y99117D01*
X42620Y98368D01*
X43369Y97868D01*
X44252Y97692D01*
X45135Y97868D01*
X45884Y98368D01*
X46384Y99117D01*
X46560Y100000D01*
X46384Y100883D01*
X45884Y101632D01*
X45657Y101784D01*
Y103906D01*
X47039Y105288D01*
X55097D01*
X55364Y104788D01*
X55157Y104477D01*
X54994Y103661D01*
X55157Y102846D01*
X55619Y102154D01*
X56014Y101890D01*
Y94055D01*
X56014Y94055D01*
X56099Y93630D01*
X56237Y93422D01*
X56136Y92913D01*
X56299Y92098D01*
X56761Y91406D01*
X57452Y90944D01*
X58268Y90782D01*
X59083Y90944D01*
X59775Y91406D01*
X60237Y92098D01*
X60399Y92913D01*
X60237Y93729D01*
X59775Y94421D01*
X59083Y94883D01*
X58268Y95045D01*
X58238Y95069D01*
Y101890D01*
X58633Y102154D01*
X59095Y102846D01*
X59258Y103661D01*
X59095Y104477D01*
X58887Y104788D01*
X59155Y105288D01*
X65560D01*
X70580Y100268D01*
X70526Y100000D01*
X70665Y99303D01*
X61603Y89577D01*
X56862D01*
X56514Y90097D01*
X55765Y90597D01*
X54882Y90773D01*
X53999Y90597D01*
X53250Y90097D01*
X52750Y89348D01*
X52574Y88465D01*
X52750Y87581D01*
X53250Y86832D01*
X53999Y86332D01*
X54882Y86156D01*
X55765Y86332D01*
X56514Y86832D01*
X56862Y87353D01*
X62087D01*
X62106Y87357D01*
X62126Y87353D01*
X62318Y87399D01*
X62512Y87437D01*
X62529Y87448D01*
X62548Y87453D01*
X62708Y87568D01*
X62873Y87678D01*
X62884Y87695D01*
X62900Y87707D01*
X72303Y97798D01*
X72835Y97692D01*
X73718Y97868D01*
X74467Y98368D01*
X74967Y99117D01*
X75143Y100000D01*
X74967Y100883D01*
X74467Y101632D01*
X73718Y102132D01*
X72835Y102308D01*
X72567Y102255D01*
X67135Y107686D01*
X66679Y107991D01*
X66142Y108098D01*
D02*
G37*
%LPD*%
D24*
X96220Y148425D02*
X98701Y145945D01*
X95669Y148425D02*
X96220D01*
X98701Y145945D02*
X103071D01*
X93740Y60787D02*
X103622D01*
X93701Y60748D02*
X93740Y60787D01*
X163228Y102598D02*
X195354D01*
X195433Y102520D01*
X165630Y99410D02*
X175787D01*
X175984Y99213D01*
X81968Y83150D02*
X93701Y94882D01*
X81968Y75394D02*
Y83150D01*
X82284Y41457D02*
Y42913D01*
X124409Y67323D02*
X129927Y61805D01*
Y59567D02*
Y61805D01*
X124409Y67323D02*
Y68110D01*
X215472Y191378D02*
Y191969D01*
Y191378D02*
X225512Y181339D01*
Y180984D02*
Y181339D01*
X178911Y21334D02*
X185113D01*
X185433Y21654D01*
X55118Y79921D02*
X61417D01*
X55118Y79921D02*
X55118Y79921D01*
X93701Y108661D02*
Y118504D01*
X54882Y88465D02*
X62087D01*
X72835Y100000D01*
X57126Y94055D02*
X58268Y92913D01*
X57126Y94055D02*
Y103661D01*
X81968Y41457D02*
Y52480D01*
D25*
X191693Y179567D02*
Y187402D01*
Y179567D02*
X191811Y179449D01*
X130315Y76772D02*
Y82677D01*
X101181Y111811D02*
X130315Y82677D01*
X91339Y151969D02*
X105118D01*
X65472Y129528D02*
X72742Y122258D01*
X57323Y129528D02*
X65472D01*
X57205Y129409D02*
X57323Y129528D01*
X122008Y123858D02*
X127874Y129724D01*
X105433Y123858D02*
X113228D01*
X122008D01*
X101181Y111811D02*
X113228Y123858D01*
X125472Y136102D02*
Y155630D01*
X113228Y123858D02*
X125472Y136102D01*
X105433Y123858D02*
X119488Y137913D01*
Y140748D01*
X103622Y71457D02*
X106102Y73937D01*
Y90236D01*
X101181Y95157D02*
X106102Y90236D01*
X44252Y100000D02*
Y104488D01*
X46457Y106693D01*
X66142D01*
X72835Y100000D01*
D26*
X227323Y72047D02*
D03*
X217323D02*
D03*
X130315Y76772D02*
D03*
X140315D02*
D03*
X142283Y25591D02*
D03*
X132283D02*
D03*
X262835Y94252D02*
D03*
Y84252D02*
D03*
X31890Y112992D02*
D03*
Y102992D02*
D03*
X30709Y41811D02*
D03*
Y51811D02*
D03*
Y61811D02*
D03*
D27*
X88976Y99213D02*
D03*
Y123622D02*
D03*
D28*
X70394Y18110D02*
D03*
X90394D02*
D03*
X60394D02*
D03*
X80394D02*
D03*
X100394D02*
D03*
D29*
X50394D02*
D03*
D30*
X172441Y36220D02*
D03*
Y39320D02*
D03*
X175541Y36220D02*
D03*
Y39320D02*
D03*
X111969Y65669D02*
D03*
X157913Y113937D02*
D03*
X129016Y141496D02*
D03*
D31*
X256299Y160433D02*
D03*
Y40354D02*
D03*
X58661Y160433D02*
D03*
Y40354D02*
D03*
D32*
X93701Y60748D02*
D03*
D33*
X88701D02*
D03*
Y65748D02*
D03*
Y70748D02*
D03*
X93701Y65748D02*
D03*
Y70748D02*
D03*
D34*
X132559Y44528D02*
D03*
D35*
X142559D02*
D03*
D36*
X297992Y91181D02*
D03*
Y121181D02*
D03*
Y111181D02*
D03*
Y101181D02*
D03*
D37*
X101181Y111811D02*
D03*
X103622Y60787D02*
D03*
X82284Y41457D02*
D03*
X81968Y52480D02*
D03*
X129927Y59567D02*
D03*
X124409Y68110D02*
D03*
X191693Y187402D02*
D03*
X215472Y191969D02*
D03*
X225512Y180984D02*
D03*
X105118Y151969D02*
D03*
X93701Y94882D02*
D03*
Y108661D02*
D03*
Y118504D02*
D03*
X72742Y122258D02*
D03*
X57205Y129409D02*
D03*
X105433Y123858D02*
D03*
X127874Y129724D02*
D03*
X125472Y155630D02*
D03*
X119488Y140748D02*
D03*
X101181Y95157D02*
D03*
X103622Y71457D02*
D03*
X72835Y100000D02*
D03*
X44252D02*
D03*
X54882Y88465D02*
D03*
D38*
X137402Y124409D02*
D03*
X103071Y145945D02*
D03*
X199286Y9522D02*
D03*
X169449Y28032D02*
D03*
X195433Y102520D02*
D03*
X165630Y99410D02*
D03*
X175984Y99213D02*
D03*
X163228Y102598D02*
D03*
X81968Y75394D02*
D03*
X185433Y21654D02*
D03*
X95669Y148425D02*
D03*
X178911Y21334D02*
D03*
X58268Y92913D02*
D03*
X61417Y79921D02*
D03*
X55118Y79921D02*
D03*
X57126Y103661D02*
D03*
D39*
X191811Y179449D02*
D03*
X91339Y151969D02*
D03*
M02*
