M48
;Layer_Color=9474304
;FILE_FORMAT=2:5
INCH,TZ
;TYPE=PLATED
T1F00S00C0.01181
T2F00S00C0.01500
T3F00S00C0.01772
T4F00S00C0.01968
T5F00S00C0.02358
T6F00S00C0.02362
T7F00S00C0.03000
T8F00S00C0.03150
T9F00S00C0.03543
T10F00S00C0.04000
T11F00S00C0.13976
%
T01
X111969Y65669
X172441Y39320
Y36220
X175541
Y39320
X157913Y113937
X129016Y141496
T02
X55118Y79921
X61417Y79921
X58268Y92913
X57126Y103661
X81968Y75394
X137402Y124409
X163228Y102598
X165630Y99410
X175984Y99213
X195433Y102520
X185433Y21654
X178911Y21334
X169449Y28032
X199286Y9522
X103071Y145945
X95669Y148425
T03
X91339Y151969
X191811Y179449
T04
X54882Y88465
X44252Y100000
X72835
X72742Y122258
X57205Y129409
X93701Y118504
Y108661
X101181Y111811
X105433Y123858
X127874Y129724
X101181Y95157
X93701Y94882
X103622Y71457
Y60787
X129927Y59567
X124409Y68110
X81968Y52480
X82284Y41457
X225512Y180984
X215472Y191969
X191693Y187402
X125472Y155630
X119488Y140748
X105118Y151969
T05
X88701Y60748
Y65748
Y70748
X93701
Y65748
T06
X93701Y60748
T07
X30709Y41811
Y51811
Y61811
X31890Y102992
Y112992
X262835Y94252
Y84252
T08
X297992Y91181
Y101181
Y111181
Y121181
T09
X132559Y44528
X142559
T10
X50394Y18110
X60394
X70394
X80394
X90394
X100394
X132283Y25591
X142283
X140315Y76772
X130315
X217323Y72047
X227323
T11
X58661Y40354
X256299
Y160433
X58661
M30
