G04 Layer_Physical_Order=1*
G04 Layer_Color=255*
%FSLAX25Y25*%
%MOIN*%
G70*
G01*
G75*
%ADD10R,0.03000X0.03000*%
%ADD11R,0.04134X0.07677*%
%ADD12R,0.03543X0.03150*%
%ADD13R,0.03150X0.03543*%
%ADD14R,0.05200X0.02200*%
%ADD15R,0.06693X0.06693*%
%ADD16R,0.01102X0.03347*%
%ADD17R,0.03347X0.01102*%
%ADD18R,0.03000X0.03000*%
%ADD19R,0.06693X0.00866*%
%ADD20R,0.00866X0.06693*%
G04:AMPARAMS|DCode=21|XSize=39.37mil|YSize=98.42mil|CornerRadius=0mil|HoleSize=0mil|Usage=FLASHONLY|Rotation=45.000|XOffset=0mil|YOffset=0mil|HoleType=Round|Shape=Rectangle|*
%AMROTATEDRECTD21*
4,1,4,0.02088,-0.04872,-0.04872,0.02088,-0.02088,0.04872,0.04872,-0.02088,0.02088,-0.04872,0.0*
%
%ADD21ROTATEDRECTD21*%

G04:AMPARAMS|DCode=22|XSize=39.37mil|YSize=98.42mil|CornerRadius=0mil|HoleSize=0mil|Usage=FLASHONLY|Rotation=315.000|XOffset=0mil|YOffset=0mil|HoleType=Round|Shape=Rectangle|*
%AMROTATEDRECTD22*
4,1,4,-0.04872,-0.02088,0.02088,0.04872,0.04872,0.02088,-0.02088,-0.04872,-0.04872,-0.02088,0.0*
%
%ADD22ROTATEDRECTD22*%

%ADD23R,0.07480X0.05118*%
%ADD24C,0.01575*%
%ADD25C,0.01000*%
%ADD26C,0.03347*%
%ADD27C,0.05118*%
%ADD28C,0.06000*%
%ADD29C,0.05905*%
%ADD30R,0.05905X0.05905*%
%ADD31C,0.04000*%
%ADD32R,0.03862X0.03862*%
%ADD33C,0.21654*%
%ADD34C,0.02000*%
%ADD35O,0.05500X0.07000*%
%ADD36R,0.05500X0.07000*%
%ADD37C,0.03937*%
%ADD38C,0.03000*%
%ADD39C,0.03543*%
%ADD40C,0.01890*%
G36*
X283445Y185907D02*
X283445Y185150D01*
X283455Y185101D01*
X283450Y185052D01*
X283598Y183546D01*
X283613Y183498D01*
Y183448D01*
X283908Y181964D01*
X283927Y181918D01*
X283932Y181869D01*
X284371Y180421D01*
X284395Y180377D01*
X284404Y180328D01*
X284983Y178930D01*
X285011Y178889D01*
X285026Y178841D01*
X285739Y177507D01*
X285770Y177468D01*
X285789Y177422D01*
X286630Y176164D01*
X286665Y176129D01*
X286689Y176085D01*
X287649Y174915D01*
X287687Y174884D01*
X287715Y174842D01*
X288250Y174307D01*
X288250Y174307D01*
X288571Y173986D01*
X288571Y173986D01*
X289081Y173476D01*
X289123Y173448D01*
X289154Y173410D01*
X290270Y172494D01*
X290314Y172471D01*
X290349Y172436D01*
X291549Y171634D01*
X291595Y171615D01*
X291633Y171583D01*
X292906Y170903D01*
X292953Y170888D01*
X292995Y170861D01*
X294328Y170309D01*
X294377Y170299D01*
X294421Y170275D01*
X295802Y169857D01*
X295851Y169852D01*
X295897Y169833D01*
X297313Y169551D01*
X297363D01*
X297410Y169536D01*
X298846Y169395D01*
X298896Y169400D01*
X298945Y169390D01*
X299666Y169390D01*
X313957Y169390D01*
X313957Y31476D01*
X300039Y31476D01*
X299018Y31476D01*
X298953Y31463D01*
X298886Y31467D01*
X296860Y31201D01*
X296798Y31179D01*
X296732Y31175D01*
X294758Y30646D01*
X294698Y30617D01*
X294633Y30604D01*
X292745Y29822D01*
X292690Y29785D01*
X292627Y29764D01*
X290857Y28742D01*
X290808Y28698D01*
X290748Y28669D01*
X289127Y27425D01*
X289083Y27375D01*
X289028Y27338D01*
X287583Y25893D01*
X287546Y25838D01*
X287496Y25794D01*
X286252Y24173D01*
X286223Y24114D01*
X286179Y24064D01*
X285157Y22294D01*
X285136Y22231D01*
X285100Y22176D01*
X284317Y20288D01*
X284304Y20223D01*
X284275Y20164D01*
X283746Y18190D01*
X283742Y18124D01*
X283721Y18061D01*
X283454Y16035D01*
X283458Y15969D01*
X283445Y15904D01*
X283445Y14882D01*
X283445Y1003D01*
X31515Y1003D01*
X31515Y13586D01*
X31594Y14678D01*
X31585Y14749D01*
X31594Y14821D01*
X31433Y17076D01*
X31414Y17145D01*
X31413Y17218D01*
X30933Y19427D01*
X30904Y19493D01*
X30892Y19564D01*
X30103Y21682D01*
X30065Y21744D01*
X30043Y21813D01*
X28960Y23797D01*
X28914Y23852D01*
X28882Y23918D01*
X27528Y25727D01*
X27474Y25776D01*
X27434Y25835D01*
X25835Y27434D01*
X25775Y27474D01*
X25727Y27528D01*
X23917Y28883D01*
X23852Y28914D01*
X23797Y28960D01*
X21813Y30043D01*
X21744Y30065D01*
X21682Y30103D01*
X19564Y30892D01*
X19493Y30904D01*
X19426Y30933D01*
X17217Y31413D01*
X17145Y31414D01*
X17076Y31433D01*
X14821Y31594D01*
X14749Y31585D01*
X14677Y31594D01*
X13587Y31515D01*
X1003Y31515D01*
X1003Y169115D01*
X14685Y169115D01*
X15720Y169115D01*
X15785Y169128D01*
X15851Y169123D01*
X17903Y169393D01*
X17965Y169414D01*
X18031Y169419D01*
X20030Y169955D01*
X20090Y169984D01*
X20155Y169997D01*
X22067Y170789D01*
X22122Y170825D01*
X22184Y170847D01*
X23977Y171881D01*
X24026Y171925D01*
X24086Y171954D01*
X25728Y173214D01*
X25771Y173264D01*
X25826Y173301D01*
X27290Y174764D01*
X27327Y174819D01*
X27376Y174863D01*
X28636Y176505D01*
X28665Y176564D01*
X28709Y176614D01*
X29744Y178406D01*
X29765Y178469D01*
X29802Y178524D01*
X30594Y180436D01*
X30607Y180501D01*
X30636Y180560D01*
X31172Y182559D01*
X31176Y182625D01*
X31197Y182688D01*
X31467Y184740D01*
X31463Y184806D01*
X31476Y184871D01*
X31476Y185906D01*
X31476Y199784D01*
X283445Y199784D01*
X283445Y185907D01*
D02*
G37*
%LPC*%
G36*
X63266Y93306D02*
X62814Y93119D01*
X60031Y90335D01*
X59843Y89883D01*
X60031Y89431D01*
X66990Y82472D01*
X67442Y82284D01*
X67894Y82472D01*
X70678Y85255D01*
X70865Y85707D01*
X70678Y86159D01*
X63718Y93119D01*
X63266Y93306D01*
D02*
G37*
G36*
X266603Y83858D02*
X263228D01*
Y80484D01*
X263823Y80562D01*
X264745Y80944D01*
X265536Y81551D01*
X266143Y82342D01*
X266525Y83263D01*
X266603Y83858D01*
D02*
G37*
G36*
X262441D02*
X259066D01*
X259145Y83263D01*
X259526Y82342D01*
X260133Y81551D01*
X260925Y80944D01*
X261846Y80562D01*
X262441Y80484D01*
Y83858D01*
D02*
G37*
G36*
X297599Y90787D02*
X294669D01*
X294732Y90307D01*
X295069Y89493D01*
X295605Y88794D01*
X296304Y88258D01*
X297118Y87921D01*
X297599Y87858D01*
Y90787D01*
D02*
G37*
G36*
X301316D02*
X298386D01*
Y87858D01*
X298866Y87921D01*
X299680Y88258D01*
X300379Y88794D01*
X300915Y89493D01*
X301252Y90307D01*
X301316Y90787D01*
D02*
G37*
G36*
X262441Y88020D02*
X261846Y87942D01*
X260925Y87560D01*
X260133Y86953D01*
X259526Y86162D01*
X259145Y85241D01*
X259066Y84646D01*
X262441D01*
Y88020D01*
D02*
G37*
G36*
X263228D02*
Y84646D01*
X266603D01*
X266525Y85241D01*
X266143Y86162D01*
X265536Y86953D01*
X264745Y87560D01*
X263823Y87942D01*
X263228Y88020D01*
D02*
G37*
G36*
X148425Y73557D02*
X147319D01*
X147012Y73496D01*
X146751Y73322D01*
X146577Y73061D01*
X146516Y72754D01*
Y71648D01*
X148425D01*
Y73557D01*
D02*
G37*
G36*
X150319D02*
X149213D01*
Y71648D01*
X151122D01*
Y72754D01*
X151061Y73061D01*
X150887Y73322D01*
X150626Y73496D01*
X150319Y73557D01*
D02*
G37*
G36*
X154743Y72598D02*
X151733D01*
Y71891D01*
X151795Y71584D01*
X151969Y71324D01*
X152229Y71150D01*
X152536Y71088D01*
X154743D01*
Y72598D01*
D02*
G37*
G36*
X158539D02*
X155530D01*
Y71088D01*
X157736D01*
X158044Y71150D01*
X158304Y71324D01*
X158478Y71584D01*
X158539Y71891D01*
Y72598D01*
D02*
G37*
G36*
X154743Y74894D02*
X152536D01*
X152229Y74833D01*
X151969Y74659D01*
X151795Y74399D01*
X151733Y74091D01*
Y73385D01*
X154743D01*
Y74894D01*
D02*
G37*
G36*
X157736D02*
X155530D01*
Y73385D01*
X158539D01*
Y74091D01*
X158478Y74399D01*
X158304Y74659D01*
X158044Y74833D01*
X157736Y74894D01*
D02*
G37*
G36*
X66535Y74338D02*
X65429D01*
X65122Y74277D01*
X64861Y74103D01*
X64687Y73843D01*
X64626Y73536D01*
Y72429D01*
X66535D01*
Y74338D01*
D02*
G37*
G36*
X68429D02*
X67323D01*
Y72429D01*
X69232D01*
Y73536D01*
X69171Y73843D01*
X68997Y74103D01*
X68736Y74277D01*
X68429Y74338D01*
D02*
G37*
G36*
X226098Y111811D02*
X223622D01*
Y107563D01*
X225295D01*
X225603Y107624D01*
X225863Y107799D01*
X226037Y108059D01*
X226098Y108366D01*
Y111811D01*
D02*
G37*
G36*
X222835D02*
X220359D01*
Y108366D01*
X220420Y108059D01*
X220594Y107799D01*
X220854Y107624D01*
X221161Y107563D01*
X222835D01*
Y111811D01*
D02*
G37*
G36*
X52323Y104620D02*
X51217D01*
X50909Y104559D01*
X50649Y104385D01*
X50475Y104124D01*
X50414Y103817D01*
Y102711D01*
X52323D01*
Y104620D01*
D02*
G37*
G36*
X225512Y183292D02*
X224628Y183117D01*
X223880Y182616D01*
X223379Y181868D01*
X223204Y180984D01*
X223379Y180101D01*
X223880Y179352D01*
X224628Y178852D01*
X225512Y178676D01*
X226395Y178852D01*
X226414Y178864D01*
X229754Y175524D01*
Y152565D01*
X229754Y152565D01*
X229839Y152139D01*
X230080Y151779D01*
X269017Y112842D01*
X269017Y112842D01*
X269378Y112601D01*
X269803Y112516D01*
X278294D01*
Y112128D01*
X278481Y111676D01*
X278933Y111489D01*
X281933D01*
X282385Y111676D01*
X282572Y112128D01*
Y112516D01*
X294595D01*
X294929Y112016D01*
X294924Y112003D01*
X294815Y111181D01*
X294924Y110359D01*
X295241Y109593D01*
X295746Y108935D01*
X296404Y108430D01*
X297170Y108113D01*
X297992Y108004D01*
X298814Y108113D01*
X299581Y108430D01*
X300238Y108935D01*
X300743Y109593D01*
X301061Y110359D01*
X301169Y111181D01*
X301061Y112003D01*
X300743Y112769D01*
X300238Y113427D01*
X299581Y113932D01*
X298814Y114250D01*
X297992Y114358D01*
X297170Y114250D01*
X296693Y114052D01*
X296332Y114414D01*
X295971Y114655D01*
X295545Y114740D01*
X295545Y114740D01*
X282572D01*
Y115128D01*
X282385Y115580D01*
X281933Y115767D01*
X278933D01*
X278481Y115580D01*
X278294Y115128D01*
Y114740D01*
X270264D01*
X231978Y153025D01*
Y175984D01*
X231978Y175984D01*
X231893Y176410D01*
X231652Y176770D01*
X231652Y176770D01*
X227757Y180666D01*
X227820Y180984D01*
X227644Y181868D01*
X227144Y182616D01*
X226395Y183117D01*
X225512Y183292D01*
D02*
G37*
G36*
X53883Y122047D02*
X51974D01*
Y120138D01*
X53081D01*
X53388Y120199D01*
X53648Y120373D01*
X53822Y120634D01*
X53883Y120941D01*
Y122047D01*
D02*
G37*
G36*
X51187D02*
X49278D01*
Y120941D01*
X49339Y120634D01*
X49513Y120373D01*
X49773Y120199D01*
X50081Y120138D01*
X51187D01*
Y122047D01*
D02*
G37*
G36*
X191693Y189710D02*
X190810Y189534D01*
X190061Y189034D01*
X189909Y188806D01*
X132520D01*
X131982Y188700D01*
X131526Y188395D01*
X124518Y181387D01*
X124214Y180931D01*
X124107Y180394D01*
Y163653D01*
X113828Y153374D01*
X106902D01*
X106750Y153601D01*
X106001Y154101D01*
X105118Y154277D01*
X104235Y154101D01*
X103486Y153601D01*
X103384Y153447D01*
X102884Y153599D01*
Y162550D01*
X105512D01*
X105964Y162737D01*
X106151Y163189D01*
Y164636D01*
X110465D01*
Y164248D01*
X110652Y163796D01*
X111104Y163609D01*
X114104D01*
X114556Y163796D01*
X114743Y164248D01*
Y167248D01*
X114556Y167700D01*
X114104Y167887D01*
X111104D01*
X110652Y167700D01*
X110465Y167248D01*
Y166860D01*
X106151D01*
Y168307D01*
X105964Y168759D01*
X105512Y168946D01*
X98032D01*
X97579Y168759D01*
X97392Y168307D01*
Y163189D01*
X97579Y162737D01*
X98032Y162550D01*
X100660D01*
Y150264D01*
X98184Y147788D01*
X97723Y148034D01*
X97801Y148425D01*
X97638Y149241D01*
X97176Y149932D01*
X96781Y150197D01*
Y171783D01*
X100146Y175148D01*
X105512D01*
X105964Y175335D01*
X106151Y175787D01*
Y177235D01*
X110465D01*
Y176847D01*
X110652Y176394D01*
X111104Y176207D01*
X114104D01*
X114556Y176394D01*
X114743Y176847D01*
Y179847D01*
X114556Y180298D01*
X114104Y180486D01*
X111104D01*
X110652Y180298D01*
X110465Y179847D01*
Y179458D01*
X106151D01*
Y180905D01*
X105964Y181358D01*
X105512Y181545D01*
X98032D01*
X97579Y181358D01*
X97392Y180905D01*
Y175787D01*
X97465Y175612D01*
X94883Y173030D01*
X94642Y172670D01*
X94557Y172244D01*
X94557Y172244D01*
Y150197D01*
X94162Y149932D01*
X93700Y149241D01*
X93538Y148425D01*
X93700Y147609D01*
X94162Y146918D01*
X94854Y146456D01*
X95669Y146294D01*
X96337Y146427D01*
X96680Y146142D01*
X96746Y146037D01*
X96709Y145852D01*
X96709Y145852D01*
Y138912D01*
X96293Y138634D01*
X96285Y138637D01*
X95419D01*
X94967Y138450D01*
X94769Y138450D01*
X94317Y138637D01*
X93451D01*
X92999Y138450D01*
X92800Y138450D01*
X92348Y138637D01*
X91482D01*
X91030Y138450D01*
X90832Y138450D01*
X90380Y138637D01*
X89514D01*
X89062Y138450D01*
X88863Y138450D01*
X88411Y138637D01*
X87545D01*
X87093Y138450D01*
X86895Y138450D01*
X86443Y138637D01*
X85577D01*
X85125Y138450D01*
X84926Y138450D01*
X84474Y138637D01*
X83608D01*
X83156Y138450D01*
X83156Y138450D01*
X83144Y138460D01*
X83074Y138566D01*
X82813Y138740D01*
X82506Y138801D01*
X82467D01*
Y134652D01*
Y130502D01*
X82506D01*
X82752Y130551D01*
X82813Y130563D01*
X82813Y130563D01*
X83074Y130737D01*
X83144Y130843D01*
X83578Y130678D01*
X83587Y130675D01*
X83608Y130666D01*
X84474D01*
X84926Y130853D01*
X85125Y130853D01*
X85577Y130666D01*
X86443D01*
X86895Y130853D01*
X87093Y130853D01*
X87545Y130666D01*
X88411D01*
X88863Y130853D01*
X89062Y130853D01*
X89514Y130666D01*
X90380D01*
X90388Y130669D01*
X90803Y130391D01*
Y129305D01*
X90803Y129305D01*
X90888Y128879D01*
X91129Y128519D01*
X92589Y127059D01*
Y120484D01*
X92069Y120136D01*
X91568Y119387D01*
X91393Y118504D01*
X91568Y117621D01*
X92069Y116872D01*
X92078Y116866D01*
X91926Y116366D01*
X86015D01*
X79129Y123251D01*
X78673Y123556D01*
X78136Y123663D01*
X74526D01*
X74374Y123890D01*
X73625Y124390D01*
X72742Y124566D01*
X71859Y124390D01*
X71110Y123890D01*
X70610Y123141D01*
X70434Y122258D01*
X70610Y121375D01*
X71110Y120626D01*
X71859Y120125D01*
X72742Y119950D01*
X73625Y120125D01*
X74374Y120626D01*
X74526Y120853D01*
X77554D01*
X84440Y113967D01*
X84895Y113663D01*
X84997Y113642D01*
X84989Y113134D01*
X84938Y113126D01*
X84918Y113113D01*
X84895Y113109D01*
X84686Y112969D01*
X84472Y112836D01*
X73171Y102241D01*
X72835Y102308D01*
X71951Y102132D01*
X71203Y101632D01*
X70702Y100883D01*
X70526Y100000D01*
X70702Y99117D01*
X71203Y98368D01*
X71951Y97868D01*
X72835Y97692D01*
X73718Y97868D01*
X74467Y98368D01*
X74967Y99117D01*
X75143Y100000D01*
X75103Y100201D01*
X85989Y110406D01*
X91543D01*
X91810Y109906D01*
X91568Y109545D01*
X91393Y108661D01*
X91568Y107778D01*
X92069Y107029D01*
X92589Y106682D01*
Y96861D01*
X92069Y96514D01*
X91568Y95765D01*
X91393Y94882D01*
X91568Y93999D01*
X92069Y93250D01*
X92817Y92750D01*
X93377Y92638D01*
X93400Y92493D01*
X93361Y92132D01*
X92999Y91982D01*
X92800Y91982D01*
X92348Y92169D01*
X91482D01*
X91030Y91982D01*
X90832Y91982D01*
X90380Y92169D01*
X89514D01*
X89062Y91982D01*
X88863Y91982D01*
X88411Y92169D01*
X87545D01*
X87093Y91982D01*
X86895Y91982D01*
X86443Y92169D01*
X85577D01*
X85125Y91982D01*
X84926Y91982D01*
X84474Y92169D01*
X83608D01*
X83156Y91982D01*
X82958Y91982D01*
X82506Y92169D01*
X81640D01*
X81188Y91982D01*
X80989Y91982D01*
X80537Y92169D01*
X79671D01*
X79219Y91982D01*
X79021Y91982D01*
X78569Y92169D01*
X77703D01*
X77251Y91982D01*
X77052Y91982D01*
X76600Y92169D01*
X75734D01*
X75282Y91982D01*
X75084Y91982D01*
X74632Y92169D01*
X73766D01*
X73314Y91982D01*
X73127Y91530D01*
Y84837D01*
X73314Y84385D01*
X73766Y84197D01*
X74632D01*
X75084Y84385D01*
X75282Y84385D01*
X75734Y84197D01*
X76600D01*
X77052Y84385D01*
X77251Y84385D01*
X77703Y84197D01*
X78569D01*
X79021Y84385D01*
X79219Y84385D01*
X79671Y84197D01*
X80537D01*
X80989Y84385D01*
X81188Y84385D01*
X81640Y84197D01*
X82506D01*
X82514Y84201D01*
X82929Y83923D01*
Y82534D01*
X81429Y81033D01*
X63189D01*
X62924Y81428D01*
X62233Y81890D01*
X61417Y82053D01*
X60602Y81890D01*
X59910Y81428D01*
X59880Y81383D01*
X59380Y81534D01*
Y91142D01*
X59775Y91406D01*
X60237Y92098D01*
X60399Y92913D01*
X60237Y93729D01*
X59775Y94421D01*
X59083Y94883D01*
X58268Y95045D01*
X57452Y94883D01*
X56761Y94421D01*
X56299Y93729D01*
X56136Y92913D01*
X56299Y92098D01*
X56761Y91406D01*
X57156Y91142D01*
Y90036D01*
X56656Y89884D01*
X56514Y90097D01*
X55765Y90597D01*
X54882Y90773D01*
X53999Y90597D01*
X53250Y90097D01*
X52902Y89577D01*
X45224D01*
X43070Y91731D01*
X42709Y91972D01*
X42283Y92057D01*
X42283Y92057D01*
X39533D01*
X39348Y92503D01*
X38896Y92690D01*
X35896D01*
X35444Y92503D01*
X35256Y92051D01*
Y89051D01*
X35444Y88599D01*
X35896Y88412D01*
X38896D01*
X39348Y88599D01*
X39535Y89051D01*
Y89833D01*
X41823D01*
X43191Y88465D01*
X30645Y75919D01*
X29411D01*
X28959Y75731D01*
X28772Y75279D01*
Y72280D01*
X28959Y71828D01*
X29411Y71640D01*
X29597D01*
Y65237D01*
X28898Y64947D01*
X28148Y64372D01*
X27572Y63622D01*
X27211Y62748D01*
X27087Y61811D01*
X27211Y60874D01*
X27572Y60000D01*
X28148Y59250D01*
X28898Y58675D01*
X29771Y58313D01*
X30709Y58189D01*
X31646Y58313D01*
X32519Y58675D01*
X33270Y59250D01*
X33845Y60000D01*
X34207Y60874D01*
X34330Y61811D01*
X34207Y62748D01*
X33845Y63622D01*
X33270Y64372D01*
X32519Y64947D01*
X31821Y65237D01*
Y71640D01*
X32411D01*
X32863Y71828D01*
X33051Y72280D01*
Y75179D01*
X45224Y87353D01*
X52902D01*
X53250Y86832D01*
X53999Y86332D01*
X54882Y86156D01*
X55765Y86332D01*
X56514Y86832D01*
X56656Y87045D01*
X57156Y86893D01*
Y81534D01*
X56656Y81383D01*
X56625Y81428D01*
X55934Y81890D01*
X55118Y82053D01*
X54302Y81890D01*
X53611Y81428D01*
X53347Y81033D01*
X40551D01*
X40126Y80949D01*
X39765Y80708D01*
X39765Y80708D01*
X35816Y76759D01*
X35575Y76398D01*
X35490Y75972D01*
X35009Y75919D01*
X34911D01*
X34459Y75731D01*
X34272Y75279D01*
Y72280D01*
X34459Y71828D01*
X34911Y71640D01*
X35490D01*
Y58165D01*
X32345Y55020D01*
X31646Y55309D01*
X30709Y55433D01*
X29771Y55309D01*
X28898Y54947D01*
X28148Y54372D01*
X27572Y53622D01*
X27211Y52748D01*
X27087Y51811D01*
X27211Y50874D01*
X27572Y50000D01*
X28148Y49250D01*
X28898Y48675D01*
X29771Y48313D01*
X30709Y48189D01*
X31646Y48313D01*
X32519Y48675D01*
X33270Y49250D01*
X33845Y50000D01*
X34207Y50874D01*
X34330Y51811D01*
X34207Y52748D01*
X33917Y53447D01*
X37389Y56919D01*
X37630Y57279D01*
X37714Y57705D01*
X37714Y57705D01*
Y71640D01*
X37911D01*
X38363Y71828D01*
X38551Y72280D01*
Y75279D01*
X38363Y75731D01*
X38292Y76090D01*
X41012Y78809D01*
X53347D01*
X53611Y78414D01*
X54302Y77952D01*
X55118Y77790D01*
X55934Y77952D01*
X56625Y78414D01*
X56656Y78460D01*
X57156Y78308D01*
Y74181D01*
X56768D01*
X56316Y73993D01*
X56129Y73541D01*
Y70541D01*
X56316Y70089D01*
X56768Y69902D01*
X59768D01*
X60220Y70089D01*
X60407Y70541D01*
Y73541D01*
X60220Y73993D01*
X59768Y74181D01*
X59380D01*
Y78308D01*
X59880Y78460D01*
X59910Y78414D01*
X60602Y77952D01*
X61417Y77790D01*
X62233Y77952D01*
X62924Y78414D01*
X63189Y78809D01*
X81890D01*
X81890Y78809D01*
X82315Y78894D01*
X82676Y79135D01*
X84828Y81287D01*
X85069Y81647D01*
X85153Y82073D01*
X85153Y82073D01*
Y83923D01*
X85569Y84201D01*
X85577Y84197D01*
X86443D01*
X86451Y84201D01*
X86866Y83923D01*
Y78203D01*
X84518Y75854D01*
X83976Y76019D01*
X83938Y76209D01*
X83476Y76901D01*
X82784Y77363D01*
X81968Y77525D01*
X81153Y77363D01*
X80461Y76901D01*
X79999Y76209D01*
X79837Y75394D01*
X79999Y74578D01*
X80461Y73887D01*
X80857Y73622D01*
Y54460D01*
X80336Y54112D01*
X79836Y53364D01*
X79660Y52480D01*
X79836Y51597D01*
X80336Y50848D01*
X81085Y50348D01*
X81968Y50172D01*
X82852Y50348D01*
X83601Y50848D01*
X84101Y51597D01*
X84277Y52480D01*
X84101Y53364D01*
X83601Y54112D01*
X83080Y54460D01*
Y73536D01*
X83464Y73819D01*
X83927Y73668D01*
Y69291D01*
X83927Y69291D01*
X84012Y68866D01*
X84253Y68505D01*
X86223Y66535D01*
X86177Y66424D01*
X86088Y65748D01*
X86177Y65072D01*
X86438Y64442D01*
X86853Y63901D01*
X87157Y63667D01*
X87191Y63548D01*
X87151Y63072D01*
X86713Y62736D01*
X86266Y62154D01*
X85985Y61476D01*
X85941Y61142D01*
X88701D01*
Y60748D01*
X89095D01*
Y57988D01*
X89428Y58032D01*
X90106Y58313D01*
X90662Y58740D01*
X90682Y58743D01*
X90797Y58731D01*
X91212Y58620D01*
X91318Y58365D01*
X91543Y58272D01*
X91694Y57716D01*
X69600Y35622D01*
X69176Y35905D01*
X69554Y36815D01*
X69973Y38563D01*
X70114Y40354D01*
X69973Y42146D01*
X69554Y43893D01*
X68866Y45554D01*
X67927Y47086D01*
X66760Y48453D01*
X65393Y49620D01*
X63861Y50559D01*
X62200Y51246D01*
X60453Y51666D01*
X58661Y51807D01*
X56870Y51666D01*
X55122Y51246D01*
X53462Y50559D01*
X51930Y49620D01*
X50563Y48453D01*
X49396Y47086D01*
X48457Y45554D01*
X47769Y43893D01*
X47350Y42146D01*
X47209Y40354D01*
X47350Y38563D01*
X47769Y36815D01*
X48457Y35155D01*
X49396Y33623D01*
X50563Y32256D01*
X51930Y31089D01*
X53462Y30150D01*
X55122Y29462D01*
X56870Y29043D01*
X58661Y28902D01*
X60453Y29043D01*
X62200Y29462D01*
X63111Y29839D01*
X63394Y29416D01*
X54245Y20266D01*
X53783Y20458D01*
Y21610D01*
X53596Y22062D01*
X53144Y22250D01*
X47644D01*
X47192Y22062D01*
X47005Y21610D01*
Y19222D01*
X43571D01*
X42297Y20496D01*
Y22360D01*
X42110Y22812D01*
X41658Y22999D01*
X38658D01*
X38206Y22812D01*
X38018Y22360D01*
Y19360D01*
X38206Y18908D01*
X38658Y18721D01*
X40927D01*
X41649Y18000D01*
X41441Y17500D01*
X38658D01*
X38206Y17312D01*
X38018Y16860D01*
Y13860D01*
X38206Y13408D01*
X38658Y13221D01*
X39046D01*
Y12205D01*
X39046Y12205D01*
X39130Y11779D01*
X39371Y11418D01*
X43308Y7481D01*
X43308Y7481D01*
X43669Y7241D01*
X44094Y7156D01*
X67323D01*
X67323Y7156D01*
X67748Y7241D01*
X68109Y7481D01*
X71180Y10552D01*
X71180Y10552D01*
X71421Y10913D01*
X71506Y11339D01*
Y14205D01*
X72078Y14442D01*
X72776Y14978D01*
X73312Y15676D01*
X73648Y16488D01*
X73763Y17360D01*
Y18860D01*
X73648Y19732D01*
X73312Y20545D01*
X72776Y21243D01*
X72078Y21778D01*
X71506Y22016D01*
Y25051D01*
X83070Y36615D01*
X83311Y36976D01*
X83395Y37402D01*
X83395Y37402D01*
Y39477D01*
X83916Y39825D01*
X84416Y40573D01*
X84592Y41457D01*
X84416Y42340D01*
X83916Y43089D01*
X83167Y43589D01*
X82284Y43765D01*
X81425Y43594D01*
X81393Y43615D01*
X81167Y44043D01*
X94487Y57363D01*
X94487Y57363D01*
X94728Y57724D01*
X94813Y58150D01*
X95289Y58178D01*
X95632D01*
X96084Y58365D01*
X96271Y58817D01*
Y62679D01*
X96084Y63131D01*
X95632Y63318D01*
X95611D01*
X95441Y63818D01*
X95548Y63901D01*
X95964Y64442D01*
X96225Y65072D01*
X96314Y65748D01*
X96225Y66424D01*
X96123Y66670D01*
X97971Y68519D01*
X97971Y68519D01*
X98126Y68751D01*
X98626Y68599D01*
Y41760D01*
X79607Y22741D01*
X79366Y22381D01*
X79295Y22021D01*
X78709Y21778D01*
X78011Y21243D01*
X77476Y20545D01*
X77139Y19732D01*
X77024Y18860D01*
Y17360D01*
X77139Y16488D01*
X77476Y15676D01*
X78011Y14978D01*
X78709Y14442D01*
X79522Y14106D01*
X80394Y13991D01*
X81266Y14106D01*
X82078Y14442D01*
X82776Y14978D01*
X83312Y15676D01*
X83648Y16488D01*
X83763Y17360D01*
Y18860D01*
X83648Y19732D01*
X83312Y20545D01*
X82776Y21243D01*
X82315Y21597D01*
X82227Y22217D01*
X88820Y28809D01*
X89282Y28618D01*
Y22016D01*
X88709Y21778D01*
X88011Y21243D01*
X87476Y20545D01*
X87139Y19732D01*
X87024Y18860D01*
Y17360D01*
X87139Y16488D01*
X87476Y15676D01*
X88011Y14978D01*
X88709Y14442D01*
X89522Y14106D01*
X90394Y13991D01*
X91266Y14106D01*
X92078Y14442D01*
X92776Y14978D01*
X93312Y15676D01*
X93648Y16488D01*
X93763Y17360D01*
Y18860D01*
X93648Y19732D01*
X93312Y20545D01*
X92776Y21243D01*
X92078Y21778D01*
X91506Y22016D01*
Y28910D01*
X119944Y57348D01*
X119944Y57348D01*
X120185Y57708D01*
X120269Y58134D01*
X120269Y58134D01*
Y64459D01*
X120769Y64666D01*
X122836Y62600D01*
X123196Y62359D01*
X123622Y62274D01*
X123622Y62274D01*
X129369D01*
X129419Y61774D01*
X129044Y61699D01*
X128295Y61199D01*
X127795Y60450D01*
X127619Y59567D01*
X127795Y58684D01*
X128295Y57935D01*
X128815Y57587D01*
Y55801D01*
X128466D01*
X128015Y55613D01*
X127827Y55161D01*
Y52161D01*
X128015Y51709D01*
X128466Y51522D01*
X131466D01*
X131919Y51709D01*
X132106Y52161D01*
Y55161D01*
X131919Y55613D01*
X131466Y55801D01*
X131039D01*
Y57587D01*
X131559Y57935D01*
X132060Y58684D01*
X132235Y59567D01*
X132060Y60450D01*
X131559Y61199D01*
X130810Y61699D01*
X130436Y61774D01*
X130485Y62274D01*
X134315D01*
Y55801D01*
X133967D01*
X133515Y55613D01*
X133327Y55161D01*
Y52161D01*
X133515Y51709D01*
X133967Y51522D01*
X136967D01*
X137418Y51709D01*
X137606Y52161D01*
Y55161D01*
X137418Y55613D01*
X136967Y55801D01*
X136539D01*
Y63392D01*
Y66365D01*
X136927D01*
X137379Y66552D01*
X137566Y67004D01*
Y70004D01*
X137379Y70456D01*
X136927Y70643D01*
X133927D01*
X133475Y70456D01*
X133288Y70004D01*
Y67004D01*
X133475Y66552D01*
X133927Y66365D01*
X134315D01*
Y64498D01*
X124083D01*
X122555Y66025D01*
X122874Y66414D01*
X123526Y65978D01*
X124409Y65802D01*
X125293Y65978D01*
X126041Y66478D01*
X126542Y67227D01*
X126718Y68110D01*
X126542Y68994D01*
X126041Y69742D01*
X125521Y70090D01*
Y96609D01*
X126021Y96816D01*
X131891Y90946D01*
X132252Y90705D01*
X132677Y90620D01*
X132677Y90620D01*
X192913D01*
X192913Y90620D01*
X193339Y90705D01*
X193700Y90946D01*
X208267Y105513D01*
X208508Y105874D01*
X208592Y106299D01*
X208592Y106299D01*
Y107727D01*
X209547D01*
X209999Y107914D01*
X210187Y108366D01*
Y116043D01*
X210193Y116054D01*
X212641D01*
X212648Y116043D01*
Y108366D01*
X212835Y107914D01*
X213287Y107727D01*
X217421D01*
X217873Y107914D01*
X218060Y108366D01*
Y116043D01*
X218067Y116054D01*
X220350D01*
X220359Y116043D01*
Y112599D01*
X223228D01*
X226098D01*
Y116043D01*
X226107Y116054D01*
X226772D01*
X227224Y116241D01*
X227411Y116693D01*
Y165984D01*
X227224Y166436D01*
X226772Y166623D01*
X225941D01*
X225935Y166634D01*
Y174311D01*
X225747Y174763D01*
X225295Y174950D01*
X221161D01*
X220709Y174763D01*
X220522Y174311D01*
Y166634D01*
X220515Y166623D01*
X218233D01*
X218224Y166634D01*
Y170079D01*
X215354D01*
X212485D01*
Y166634D01*
X212476Y166623D01*
X210193D01*
X210187Y166634D01*
Y174311D01*
X209999Y174763D01*
X209547Y174950D01*
X208592D01*
Y178740D01*
X208508Y179166D01*
X208267Y179526D01*
X208266Y179526D01*
X203542Y184251D01*
X203181Y184492D01*
X202756Y184576D01*
X202756Y184576D01*
X137008D01*
X136582Y184492D01*
X136222Y184251D01*
X136222Y184251D01*
X129135Y177164D01*
X128894Y176804D01*
X128809Y176378D01*
X128809Y176378D01*
Y154870D01*
X124776Y150836D01*
X115971D01*
X115764Y151336D01*
X123606Y159178D01*
X124067Y158986D01*
Y157414D01*
X123840Y157262D01*
X123340Y156513D01*
X123164Y155630D01*
X123340Y154747D01*
X123840Y153998D01*
X124589Y153498D01*
X125472Y153322D01*
X126356Y153498D01*
X127104Y153998D01*
X127605Y154747D01*
X127781Y155630D01*
X127605Y156513D01*
X127104Y157262D01*
X126877Y157414D01*
Y162873D01*
X126917Y163071D01*
Y179812D01*
X133102Y185997D01*
X189909D01*
X190061Y185769D01*
X190810Y185269D01*
X191693Y185093D01*
X192576Y185269D01*
X193325Y185769D01*
X193477Y185997D01*
X224812D01*
X234501Y176308D01*
Y153026D01*
X234608Y152488D01*
X234912Y152032D01*
X268810Y118134D01*
X269266Y117830D01*
X269803Y117723D01*
X278294D01*
Y117628D01*
X278481Y117176D01*
X278933Y116989D01*
X281933D01*
X282385Y117176D01*
X282572Y117628D01*
Y117723D01*
X295939D01*
X296477Y117830D01*
X296932Y118134D01*
X296987Y118189D01*
X297170Y118113D01*
X297992Y118004D01*
X298814Y118113D01*
X299581Y118430D01*
X300238Y118935D01*
X300743Y119593D01*
X301061Y120359D01*
X301169Y121181D01*
X301061Y122003D01*
X300743Y122769D01*
X300238Y123427D01*
X299581Y123932D01*
X298814Y124250D01*
X297992Y124358D01*
X297170Y124250D01*
X296404Y123932D01*
X295746Y123427D01*
X295241Y122769D01*
X294924Y122003D01*
X294815Y121181D01*
X294851Y120909D01*
X294521Y120533D01*
X282572D01*
Y120628D01*
X282385Y121080D01*
X281933Y121267D01*
X278933D01*
X278481Y121080D01*
X278294Y120628D01*
Y120533D01*
X270385D01*
X237311Y153607D01*
Y176890D01*
X237204Y177427D01*
X236899Y177883D01*
X226387Y188395D01*
X225931Y188700D01*
X225394Y188806D01*
X193477D01*
X193325Y189034D01*
X192576Y189534D01*
X191693Y189710D01*
D02*
G37*
G36*
X89101Y101847D02*
X88976Y101822D01*
X88852Y101847D01*
X88084Y101694D01*
X87978Y101623D01*
X87853Y101598D01*
X87202Y101163D01*
X87131Y101058D01*
X87026Y100987D01*
X86591Y100336D01*
X86566Y100211D01*
X86495Y100105D01*
X86342Y99337D01*
X86355Y99273D01*
X86330Y99213D01*
X86355Y99152D01*
X86342Y99088D01*
X86495Y98320D01*
X86566Y98214D01*
X86591Y98089D01*
X87026Y97438D01*
X87131Y97368D01*
X87202Y97262D01*
X87853Y96827D01*
X87978Y96802D01*
X88084Y96731D01*
X88852Y96579D01*
X88976Y96603D01*
X89101Y96579D01*
X89869Y96731D01*
X89975Y96802D01*
X90100Y96827D01*
X90751Y97262D01*
X90821Y97368D01*
X90927Y97438D01*
X91362Y98089D01*
X91387Y98214D01*
X91458Y98320D01*
X91610Y99088D01*
X91598Y99152D01*
X91623Y99213D01*
X91598Y99273D01*
X91610Y99337D01*
X91458Y100105D01*
X91387Y100211D01*
X91362Y100336D01*
X90927Y100987D01*
X90821Y101058D01*
X90751Y101163D01*
X90100Y101598D01*
X89975Y101623D01*
X89869Y101694D01*
X89101Y101847D01*
D02*
G37*
G36*
X297599Y94505D02*
X297118Y94441D01*
X296304Y94104D01*
X295605Y93568D01*
X295069Y92869D01*
X294732Y92055D01*
X294669Y91575D01*
X297599D01*
Y94505D01*
D02*
G37*
G36*
X262835Y97874D02*
X261897Y97750D01*
X261024Y97388D01*
X260274Y96813D01*
X259698Y96063D01*
X259530Y95657D01*
X249528D01*
X248990Y95550D01*
X248534Y95245D01*
X228666Y75377D01*
X228260Y75545D01*
X227323Y75669D01*
X226385Y75545D01*
X225512Y75184D01*
X224762Y74608D01*
X224186Y73858D01*
X223825Y72985D01*
X223701Y72047D01*
X223825Y71110D01*
X224186Y70236D01*
X224762Y69486D01*
X225512Y68911D01*
X226385Y68549D01*
X227323Y68426D01*
X228260Y68549D01*
X229134Y68911D01*
X229884Y69486D01*
X230459Y70236D01*
X230821Y71110D01*
X230944Y72047D01*
X230821Y72985D01*
X230653Y73390D01*
X250110Y92847D01*
X259530D01*
X259698Y92441D01*
X260274Y91691D01*
X261024Y91116D01*
X261897Y90754D01*
X262835Y90630D01*
X263772Y90754D01*
X264645Y91116D01*
X265395Y91691D01*
X265971Y92441D01*
X266333Y93315D01*
X266456Y94252D01*
X266333Y95189D01*
X265971Y96063D01*
X265395Y96813D01*
X264645Y97388D01*
X263772Y97750D01*
X262835Y97874D01*
D02*
G37*
G36*
X31890Y106614D02*
X30952Y106490D01*
X30079Y106129D01*
X29329Y105553D01*
X28753Y104803D01*
X28392Y103929D01*
X28268Y102992D01*
X28392Y102055D01*
X28753Y101181D01*
X29329Y100431D01*
X30079Y99856D01*
X30778Y99566D01*
Y92690D01*
X30396D01*
X29944Y92503D01*
X29757Y92051D01*
Y89051D01*
X29944Y88599D01*
X30396Y88412D01*
X33396D01*
X33848Y88599D01*
X34035Y89051D01*
Y92051D01*
X33848Y92503D01*
X33396Y92690D01*
X33002D01*
Y99566D01*
X33700Y99856D01*
X34451Y100431D01*
X35026Y101181D01*
X35388Y102055D01*
X35511Y102992D01*
X35388Y103929D01*
X35026Y104803D01*
X34451Y105553D01*
X33700Y106129D01*
X32827Y106490D01*
X31890Y106614D01*
D02*
G37*
G36*
X298386Y94505D02*
Y91575D01*
X301316D01*
X301252Y92055D01*
X300915Y92869D01*
X300379Y93568D01*
X299680Y94104D01*
X298866Y94441D01*
X298386Y94505D01*
D02*
G37*
G36*
X52323Y101923D02*
X50414D01*
Y100817D01*
X50475Y100510D01*
X50649Y100249D01*
X50909Y100075D01*
X51217Y100014D01*
X52323D01*
Y101923D01*
D02*
G37*
G36*
X297992Y104358D02*
X297170Y104250D01*
X296404Y103932D01*
X295746Y103427D01*
X295241Y102769D01*
X294924Y102003D01*
X294815Y101181D01*
X294924Y100359D01*
X295241Y99593D01*
X295746Y98935D01*
X296404Y98430D01*
X297170Y98113D01*
X297992Y98004D01*
X298814Y98113D01*
X299581Y98430D01*
X300238Y98935D01*
X300743Y99593D01*
X301061Y100359D01*
X301169Y101181D01*
X301061Y102003D01*
X300743Y102769D01*
X300238Y103427D01*
X299581Y103932D01*
X298814Y104250D01*
X297992Y104358D01*
D02*
G37*
G36*
X44252Y102308D02*
X43369Y102132D01*
X42620Y101632D01*
X42120Y100883D01*
X41944Y100000D01*
X42120Y99117D01*
X42620Y98368D01*
X43369Y97868D01*
X44227Y97697D01*
X45525Y95972D01*
X45599Y95906D01*
X45654Y95824D01*
X45802Y95725D01*
X45934Y95607D01*
X46027Y95574D01*
X46110Y95519D01*
X46284Y95484D01*
X46451Y95426D01*
X46550Y95431D01*
X46648Y95412D01*
X50577D01*
Y95317D01*
X50765Y94865D01*
X51217Y94678D01*
X54216D01*
X54668Y94865D01*
X54856Y95317D01*
Y95555D01*
X65742D01*
X65941Y95595D01*
X69089D01*
X69541Y95782D01*
X69728Y96234D01*
Y97100D01*
X69541Y97552D01*
X69541Y97552D01*
X69551Y97565D01*
X69656Y97635D01*
X69830Y97896D01*
X69891Y98203D01*
Y98242D01*
X65742D01*
X61593D01*
Y98203D01*
X61176Y97779D01*
X54856D01*
Y98317D01*
X54668Y98769D01*
X54216Y98956D01*
X51217D01*
X50765Y98769D01*
X50577Y98317D01*
Y98222D01*
X47349D01*
X46445Y99422D01*
X46560Y100000D01*
X46384Y100883D01*
X45884Y101632D01*
X45135Y102132D01*
X44252Y102308D01*
D02*
G37*
G36*
X167790Y42077D02*
X166511D01*
X166203Y42016D01*
X165943Y41842D01*
X165769Y41582D01*
X165708Y41274D01*
Y41117D01*
X167790D01*
Y42077D01*
D02*
G37*
G36*
X136315Y44134D02*
X132953D01*
Y40772D01*
X135512D01*
X135819Y40833D01*
X136080Y41007D01*
X136253Y41268D01*
X136315Y41575D01*
Y44134D01*
D02*
G37*
G36*
X132165D02*
X128804D01*
Y41575D01*
X128865Y41268D01*
X129039Y41007D01*
X129299Y40833D01*
X129606Y40772D01*
X132165D01*
Y44134D01*
D02*
G37*
G36*
X30315Y45579D02*
X29720Y45501D01*
X28799Y45119D01*
X28008Y44512D01*
X27400Y43721D01*
X27019Y42800D01*
X26940Y42205D01*
X30315D01*
Y45579D01*
D02*
G37*
G36*
X132165Y48283D02*
X129606D01*
X129299Y48222D01*
X129039Y48048D01*
X128865Y47787D01*
X128804Y47480D01*
Y44921D01*
X132165D01*
Y48283D01*
D02*
G37*
G36*
X177496Y46054D02*
X177338D01*
Y43971D01*
X178298D01*
Y45251D01*
X178237Y45558D01*
X178063Y45818D01*
X177803Y45992D01*
X177496Y46054D01*
D02*
G37*
G36*
X31102Y45579D02*
Y42205D01*
X34477D01*
X34399Y42800D01*
X34017Y43721D01*
X33410Y44512D01*
X32619Y45119D01*
X31697Y45501D01*
X31102Y45579D01*
D02*
G37*
G36*
X34477Y41417D02*
X31102D01*
Y38043D01*
X31697Y38121D01*
X32619Y38503D01*
X33410Y39110D01*
X34017Y39901D01*
X34399Y40822D01*
X34477Y41417D01*
D02*
G37*
G36*
X36614Y35758D02*
X36189Y35673D01*
X35828Y35432D01*
X35587Y35071D01*
X35502Y34646D01*
Y33858D01*
X35587Y33433D01*
X35828Y33072D01*
X36189Y32831D01*
X36614Y32746D01*
X37040Y32831D01*
X37400Y33072D01*
X37641Y33433D01*
X37726Y33858D01*
Y34646D01*
X37641Y35071D01*
X37400Y35432D01*
X37040Y35673D01*
X36614Y35758D01*
D02*
G37*
G36*
X256299Y51807D02*
X254508Y51666D01*
X252760Y51246D01*
X251100Y50559D01*
X249568Y49620D01*
X248201Y48453D01*
X247034Y47086D01*
X246095Y45554D01*
X245407Y43893D01*
X244988Y42146D01*
X244847Y40354D01*
X244988Y38563D01*
X245407Y36815D01*
X246095Y35155D01*
X247034Y33623D01*
X248201Y32256D01*
X249568Y31089D01*
X251100Y30150D01*
X252760Y29462D01*
X254508Y29043D01*
X256299Y28902D01*
X258091Y29043D01*
X259838Y29462D01*
X261499Y30150D01*
X263031Y31089D01*
X264397Y32256D01*
X265565Y33623D01*
X266504Y35155D01*
X267191Y36815D01*
X267611Y38563D01*
X267752Y40354D01*
X267611Y42146D01*
X267191Y43893D01*
X266504Y45554D01*
X265565Y47086D01*
X264397Y48453D01*
X263031Y49620D01*
X261499Y50559D01*
X259838Y51246D01*
X258091Y51666D01*
X256299Y51807D01*
D02*
G37*
G36*
X100394Y22230D02*
X99522Y22115D01*
X98709Y21778D01*
X98011Y21243D01*
X97476Y20545D01*
X97139Y19732D01*
X97024Y18860D01*
Y17360D01*
X97139Y16488D01*
X97476Y15676D01*
X98011Y14978D01*
X98709Y14442D01*
X99522Y14106D01*
X100394Y13991D01*
X101266Y14106D01*
X102078Y14442D01*
X102776Y14978D01*
X103312Y15676D01*
X103648Y16488D01*
X103763Y17360D01*
Y18860D01*
X103648Y19732D01*
X103312Y20545D01*
X102776Y21243D01*
X102078Y21778D01*
X101266Y22115D01*
X100394Y22230D01*
D02*
G37*
G36*
X135675Y35472D02*
X133766D01*
Y34366D01*
X133827Y34059D01*
X134001Y33799D01*
X134262Y33624D01*
X134569Y33563D01*
X135675D01*
Y35472D01*
D02*
G37*
G36*
X30315Y41417D02*
X26940D01*
X27019Y40822D01*
X27400Y39901D01*
X28008Y39110D01*
X28799Y38503D01*
X29720Y38121D01*
X30315Y38043D01*
Y41417D01*
D02*
G37*
G36*
X137569Y38169D02*
X136463D01*
Y36260D01*
X138372D01*
Y37366D01*
X138311Y37673D01*
X138137Y37934D01*
X137876Y38108D01*
X137569Y38169D01*
D02*
G37*
G36*
X135675D02*
X134569D01*
X134262Y38108D01*
X134001Y37934D01*
X133827Y37673D01*
X133766Y37366D01*
Y36260D01*
X135675D01*
Y38169D01*
D02*
G37*
G36*
X151122Y70860D02*
X149213D01*
Y68951D01*
X150319D01*
X150626Y69012D01*
X150887Y69186D01*
X151061Y69447D01*
X151122Y69754D01*
Y70860D01*
D02*
G37*
G36*
X148425D02*
X146516D01*
Y69754D01*
X146577Y69447D01*
X146751Y69186D01*
X147012Y69012D01*
X147319Y68951D01*
X148425D01*
Y70860D01*
D02*
G37*
G36*
X217323Y75669D02*
X216386Y75545D01*
X215512Y75184D01*
X214762Y74608D01*
X214187Y73858D01*
X213825Y72985D01*
X213701Y72047D01*
X213825Y71110D01*
X213993Y70704D01*
X193512Y50224D01*
X181150D01*
X180816Y50724D01*
X180874Y50862D01*
Y53862D01*
X180686Y54314D01*
X180234Y54501D01*
X180139D01*
Y56255D01*
X180464Y56389D01*
X180651Y56841D01*
Y59841D01*
X180464Y60293D01*
X180012Y60480D01*
X179917D01*
Y62066D01*
X180292Y62221D01*
X180480Y62673D01*
Y65673D01*
X180292Y66125D01*
X179841Y66312D01*
X176841D01*
X176389Y66125D01*
X176201Y65673D01*
Y62673D01*
X176389Y62221D01*
X176841Y62034D01*
X177107D01*
Y60480D01*
X177012D01*
X176560Y60293D01*
X176373Y59841D01*
Y56841D01*
X176560Y56389D01*
X177012Y56202D01*
X177329D01*
Y54501D01*
X177234D01*
X176782Y54314D01*
X176595Y53862D01*
Y50862D01*
X176658Y50711D01*
X176391Y50148D01*
X176234Y50117D01*
X175778Y49812D01*
X174873Y48908D01*
X174411Y49099D01*
Y50223D01*
X174734D01*
X175186Y50410D01*
X175373Y50862D01*
Y53862D01*
X175186Y54314D01*
X174734Y54501D01*
X174417D01*
Y56202D01*
X174512D01*
X174964Y56389D01*
X175151Y56841D01*
Y59841D01*
X174964Y60293D01*
X174512Y60480D01*
X171512D01*
X171060Y60293D01*
X170873Y59841D01*
Y56841D01*
X171060Y56389D01*
X171512Y56202D01*
X171607D01*
Y54449D01*
X171282Y54314D01*
X171095Y53862D01*
Y50862D01*
X171282Y50410D01*
X171601Y50278D01*
Y47692D01*
X171140Y47501D01*
X168454Y50186D01*
X168523Y50532D01*
X168710Y50984D01*
Y54528D01*
X168523Y54980D01*
X168071Y55167D01*
X164921D01*
X164469Y54980D01*
X164282Y54528D01*
Y50984D01*
X164469Y50532D01*
X164921Y50345D01*
X165091D01*
Y50157D01*
X165198Y49620D01*
X165503Y49164D01*
X169632Y45034D01*
Y43578D01*
X169739Y43040D01*
X169847Y42879D01*
Y42077D01*
X168578D01*
Y40723D01*
X168184D01*
Y40330D01*
X165708D01*
Y40172D01*
X165698Y40160D01*
X159227D01*
X158689Y40053D01*
X158234Y39748D01*
X156045Y37559D01*
X153150D01*
X148937Y33347D01*
X148976Y33307D01*
Y30091D01*
X146050Y27165D01*
X145484Y27246D01*
X145420Y27401D01*
X144844Y28151D01*
X144094Y28727D01*
X143688Y28895D01*
Y29497D01*
X161978Y47786D01*
X162282Y48242D01*
X162389Y48779D01*
Y50345D01*
X162559D01*
X163011Y50532D01*
X163198Y50984D01*
Y54528D01*
X163011Y54980D01*
X162559Y55167D01*
X159409D01*
X158958Y54980D01*
X158770Y54528D01*
Y50984D01*
X158958Y50532D01*
X159409Y50345D01*
X159579D01*
Y49362D01*
X144013Y33795D01*
X143976Y33819D01*
X143976Y33819D01*
X143589Y34078D01*
X143644Y34210D01*
X143708Y34366D01*
Y37366D01*
X143525Y37808D01*
Y41092D01*
X144346Y41432D01*
X145086Y42000D01*
X145654Y42741D01*
X146011Y43603D01*
X146133Y44528D01*
X146011Y45453D01*
X145654Y46314D01*
X145086Y47055D01*
X144346Y47623D01*
X143484Y47980D01*
X142559Y48101D01*
X141634Y47980D01*
X140772Y47623D01*
X140032Y47055D01*
X139464Y46314D01*
X139107Y45453D01*
X138985Y44528D01*
X139107Y43603D01*
X139464Y42741D01*
X140032Y42000D01*
X140715Y41476D01*
Y38005D01*
X140069D01*
X139617Y37818D01*
X139430Y37366D01*
Y34724D01*
X138834Y34128D01*
X138386Y34359D01*
X138372Y34373D01*
Y35472D01*
X136463D01*
Y33563D01*
X137562D01*
X137576Y33549D01*
X137807Y33101D01*
X133627Y28921D01*
X133221Y29089D01*
X132283Y29212D01*
X131346Y29089D01*
X130473Y28727D01*
X129723Y28151D01*
X129147Y27401D01*
X128785Y26528D01*
X128662Y25591D01*
X128785Y24653D01*
X129147Y23780D01*
X129723Y23030D01*
X130473Y22454D01*
X131346Y22092D01*
X132283Y21969D01*
X133221Y22092D01*
X134094Y22454D01*
X134844Y23030D01*
X135420Y23780D01*
X135782Y24653D01*
X135905Y25591D01*
X135782Y26528D01*
X135614Y26934D01*
X142407Y33727D01*
X143069D01*
X143357Y33846D01*
X143640Y33422D01*
X141290Y31072D01*
X140986Y30616D01*
X140878Y30079D01*
Y28895D01*
X140473Y28727D01*
X139723Y28151D01*
X139147Y27401D01*
X138785Y26528D01*
X138662Y25591D01*
X138785Y24653D01*
X139147Y23780D01*
X139723Y23030D01*
X140473Y22454D01*
X141346Y22092D01*
X142283Y21969D01*
X143221Y22092D01*
X144094Y22454D01*
X144844Y23030D01*
X145420Y23780D01*
X145588Y24186D01*
X146463D01*
X147000Y24293D01*
X147456Y24597D01*
X148514Y25655D01*
X148976Y25464D01*
Y4016D01*
X205415D01*
X205906Y4016D01*
X205945Y4055D01*
X205866Y4134D01*
X205866Y4516D01*
Y41811D01*
X200343D01*
X200222Y41835D01*
X200222Y41835D01*
X183165D01*
X183071Y41929D01*
X182977Y41835D01*
X182044D01*
X182039Y41842D01*
X181779Y42016D01*
X181471Y42077D01*
X178298D01*
Y43184D01*
X176944D01*
Y43578D01*
X176551D01*
Y46374D01*
X176493Y46554D01*
X177354Y47414D01*
X194095D01*
X194632Y47521D01*
X195088Y47826D01*
X215980Y68717D01*
X216386Y68549D01*
X217323Y68426D01*
X218260Y68549D01*
X219134Y68911D01*
X219884Y69486D01*
X220459Y70236D01*
X220821Y71110D01*
X220944Y72047D01*
X220821Y72985D01*
X220459Y73858D01*
X219884Y74608D01*
X219134Y75184D01*
X218260Y75545D01*
X217323Y75669D01*
D02*
G37*
G36*
X66535Y71642D02*
X64626D01*
Y70535D01*
X64687Y70228D01*
X64861Y69968D01*
X65122Y69794D01*
X65429Y69733D01*
X66535D01*
Y71642D01*
D02*
G37*
G36*
X179841Y72382D02*
X178734D01*
Y70472D01*
X180643D01*
Y71579D01*
X180582Y71886D01*
X180408Y72146D01*
X180148Y72320D01*
X179841Y72382D01*
D02*
G37*
G36*
X177947D02*
X176841D01*
X176533Y72320D01*
X176273Y72146D01*
X176099Y71886D01*
X176038Y71579D01*
Y70472D01*
X177947D01*
Y72382D01*
D02*
G37*
G36*
X69232Y71642D02*
X67323D01*
Y69733D01*
X68429D01*
X68736Y69794D01*
X68997Y69968D01*
X69171Y70228D01*
X69232Y70535D01*
Y71642D01*
D02*
G37*
G36*
X180643Y69685D02*
X178734D01*
Y67776D01*
X179841D01*
X180148Y67837D01*
X180408Y68011D01*
X180582Y68271D01*
X180643Y68579D01*
Y69685D01*
D02*
G37*
G36*
X167936Y74731D02*
X162736D01*
X162284Y74543D01*
X162097Y74091D01*
Y71891D01*
X162284Y71439D01*
X162169Y70960D01*
X162162Y70949D01*
X161995Y70699D01*
X161933Y70391D01*
Y69685D01*
X165336D01*
Y68898D01*
X161933D01*
Y68191D01*
X161995Y67884D01*
X162162Y67634D01*
X162169Y67623D01*
X162284Y67143D01*
X162097Y66691D01*
Y64491D01*
X162284Y64039D01*
X162736Y63852D01*
X167936D01*
X168388Y64039D01*
X168458Y64209D01*
X168885Y64293D01*
X169341Y64598D01*
X170201Y65459D01*
X170701Y65251D01*
Y62673D01*
X170889Y62221D01*
X171341Y62034D01*
X174341D01*
X174793Y62221D01*
X174980Y62673D01*
Y65673D01*
X174793Y66125D01*
X174341Y66312D01*
X174246D01*
Y67940D01*
X174341D01*
X174793Y68127D01*
X174980Y68579D01*
Y71579D01*
X174793Y72031D01*
X174341Y72218D01*
X171901D01*
X170134Y73985D01*
X169678Y74289D01*
X169141Y74396D01*
X168449D01*
X168388Y74543D01*
X167936Y74731D01*
D02*
G37*
G36*
X88307Y60354D02*
X85941D01*
X85985Y60020D01*
X86266Y59342D01*
X86713Y58760D01*
X87295Y58313D01*
X87973Y58032D01*
X88307Y57988D01*
Y60354D01*
D02*
G37*
G36*
X135512Y48283D02*
X132953D01*
Y44921D01*
X136315D01*
Y47480D01*
X136253Y47787D01*
X136080Y48048D01*
X135819Y48222D01*
X135512Y48283D01*
D02*
G37*
G36*
X140315Y80393D02*
X139378Y80270D01*
X138504Y79908D01*
X137754Y79333D01*
X137179Y78582D01*
X136817Y77709D01*
X136693Y76772D01*
X136817Y75834D01*
X137179Y74961D01*
X137754Y74211D01*
X138504Y73635D01*
X138910Y73467D01*
Y71102D01*
X139017Y70565D01*
X139321Y70109D01*
X144670Y64761D01*
X145126Y64456D01*
X145663Y64349D01*
X146680D01*
Y64254D01*
X146867Y63802D01*
X147319Y63615D01*
X150319D01*
X150771Y63802D01*
X150930Y64186D01*
X152023D01*
X152084Y64039D01*
X152536Y63852D01*
X157736D01*
X158188Y64039D01*
X158375Y64491D01*
Y66691D01*
X158188Y67143D01*
X157736Y67331D01*
X152536D01*
X152084Y67143D01*
X152023Y66996D01*
X150958D01*
Y67254D01*
X150771Y67706D01*
X150319Y67893D01*
X147319D01*
X146867Y67706D01*
X146693Y67286D01*
X146486Y67243D01*
X146180Y67225D01*
X141720Y71684D01*
Y73467D01*
X142126Y73635D01*
X142876Y74211D01*
X143451Y74961D01*
X143813Y75834D01*
X143937Y76772D01*
X143813Y77709D01*
X143451Y78582D01*
X142876Y79333D01*
X142126Y79908D01*
X141252Y80270D01*
X140315Y80393D01*
D02*
G37*
G36*
X177947Y69685D02*
X176038D01*
Y68579D01*
X176099Y68271D01*
X176273Y68011D01*
X176533Y67837D01*
X176841Y67776D01*
X177947D01*
Y69685D01*
D02*
G37*
G36*
X130315Y80393D02*
X129378Y80270D01*
X128504Y79908D01*
X127754Y79333D01*
X127179Y78582D01*
X126817Y77709D01*
X126693Y76772D01*
X126817Y75834D01*
X127179Y74961D01*
X127754Y74211D01*
X128504Y73635D01*
X128910Y73467D01*
Y70643D01*
X128427D01*
X127975Y70456D01*
X127788Y70004D01*
Y67004D01*
X127975Y66552D01*
X128427Y66365D01*
X131427D01*
X131879Y66552D01*
X132066Y67004D01*
Y70004D01*
X131879Y70456D01*
X131720Y70522D01*
Y73467D01*
X132126Y73635D01*
X132876Y74211D01*
X133451Y74961D01*
X133813Y75834D01*
X133937Y76772D01*
X133813Y77709D01*
X133451Y78582D01*
X132876Y79333D01*
X132126Y79908D01*
X131252Y80270D01*
X130315Y80393D01*
D02*
G37*
G36*
X59768Y68681D02*
X56768D01*
X56316Y68493D01*
X56129Y68041D01*
Y65041D01*
X56316Y64589D01*
X56768Y64402D01*
X59768D01*
X60220Y64589D01*
X60407Y65041D01*
Y65429D01*
X64790D01*
Y65035D01*
X64977Y64583D01*
X65429Y64396D01*
X68429D01*
X68881Y64583D01*
X69068Y65035D01*
Y68036D01*
X68881Y68488D01*
X68429Y68675D01*
X65429D01*
X64977Y68488D01*
X64790Y68036D01*
Y67653D01*
X60407D01*
Y68041D01*
X60220Y68493D01*
X59768Y68681D01*
D02*
G37*
G36*
X76575Y154576D02*
X73032D01*
X72579Y154389D01*
X72392Y153937D01*
Y150787D01*
X72579Y150335D01*
X73032Y150148D01*
X76575D01*
X77027Y150335D01*
X77121Y150564D01*
X89436D01*
X89635Y150266D01*
X90417Y149743D01*
X91339Y149560D01*
X92260Y149743D01*
X93042Y150266D01*
X93564Y151047D01*
X93747Y151969D01*
X93564Y152890D01*
X93042Y153672D01*
X92260Y154194D01*
X91339Y154377D01*
X90417Y154194D01*
X89635Y153672D01*
X89436Y153374D01*
X77214D01*
Y153937D01*
X77027Y154389D01*
X76575Y154576D01*
D02*
G37*
G36*
X87811Y146457D02*
X85827D01*
Y144276D01*
X87008D01*
X87315Y144337D01*
X87576Y144511D01*
X87750Y144772D01*
X87811Y145079D01*
Y146457D01*
D02*
G37*
G36*
X85039D02*
X83055D01*
Y145079D01*
X83117Y144772D01*
X83291Y144511D01*
X83551Y144337D01*
X83858Y144276D01*
X85039D01*
Y146457D01*
D02*
G37*
G36*
X217421Y175114D02*
X215748D01*
Y170866D01*
X218224D01*
Y174311D01*
X218163Y174618D01*
X217989Y174879D01*
X217728Y175053D01*
X217421Y175114D01*
D02*
G37*
G36*
X214961D02*
X213287D01*
X212980Y175053D01*
X212720Y174879D01*
X212546Y174618D01*
X212485Y174311D01*
Y170866D01*
X214961D01*
Y175114D01*
D02*
G37*
G36*
X85039Y149425D02*
X83858D01*
X83551Y149364D01*
X83291Y149190D01*
X83117Y148929D01*
X83055Y148622D01*
Y147244D01*
X85039D01*
Y149425D01*
D02*
G37*
G36*
X83858Y168946D02*
X76378D01*
X75926Y168759D01*
X75739Y168307D01*
Y163189D01*
X75926Y162737D01*
X76378Y162550D01*
X83858D01*
X84310Y162737D01*
X84497Y163189D01*
Y168307D01*
X84310Y168759D01*
X83858Y168946D01*
D02*
G37*
G36*
X117711Y168051D02*
X116604D01*
X116297Y167990D01*
X116037Y167816D01*
X115863Y167555D01*
X115802Y167248D01*
Y166142D01*
X117711D01*
Y168051D01*
D02*
G37*
G36*
X67442Y140550D02*
X66990Y140363D01*
X60031Y133404D01*
X59843Y132951D01*
X60031Y132500D01*
X62814Y129716D01*
X63266Y129528D01*
X63718Y129716D01*
X70678Y136675D01*
X70865Y137127D01*
X70678Y137579D01*
X67894Y140363D01*
X67442Y140550D01*
D02*
G37*
G36*
X119604Y168051D02*
X118498D01*
Y166142D01*
X120407D01*
Y167248D01*
X120346Y167555D01*
X120172Y167816D01*
X119912Y167990D01*
X119604Y168051D01*
D02*
G37*
G36*
X89101Y126256D02*
X88976Y126231D01*
X88852Y126256D01*
X88084Y126103D01*
X87978Y126033D01*
X87853Y126008D01*
X87202Y125573D01*
X87131Y125467D01*
X87026Y125396D01*
X86591Y124745D01*
X86566Y124621D01*
X86495Y124515D01*
X86342Y123747D01*
X86355Y123682D01*
X86330Y123622D01*
X86355Y123562D01*
X86342Y123497D01*
X86495Y122729D01*
X86566Y122624D01*
X86591Y122499D01*
X87026Y121848D01*
X87131Y121777D01*
X87202Y121671D01*
X87853Y121236D01*
X87978Y121212D01*
X88084Y121141D01*
X88852Y120988D01*
X88976Y121013D01*
X89101Y120988D01*
X89869Y121141D01*
X89975Y121212D01*
X90100Y121236D01*
X90751Y121671D01*
X90821Y121777D01*
X90927Y121848D01*
X91362Y122499D01*
X91387Y122624D01*
X91458Y122729D01*
X91610Y123497D01*
X91598Y123562D01*
X91623Y123622D01*
X91598Y123683D01*
X91610Y123747D01*
X91458Y124515D01*
X91387Y124621D01*
X91362Y124745D01*
X90927Y125396D01*
X90821Y125467D01*
X90751Y125573D01*
X90100Y126008D01*
X89975Y126033D01*
X89869Y126103D01*
X89101Y126256D01*
D02*
G37*
G36*
X117711Y165354D02*
X115802D01*
Y164248D01*
X115863Y163941D01*
X116037Y163680D01*
X116297Y163506D01*
X116604Y163445D01*
X117711D01*
Y165354D01*
D02*
G37*
G36*
X120407D02*
X118498D01*
Y163445D01*
X119604D01*
X119912Y163506D01*
X120172Y163680D01*
X120346Y163941D01*
X120407Y164248D01*
Y165354D01*
D02*
G37*
G36*
X83858Y181545D02*
X76378D01*
X75926Y181358D01*
X75739Y180905D01*
Y175787D01*
X75926Y175335D01*
X76378Y175148D01*
X83858D01*
X84310Y175335D01*
X84497Y175787D01*
Y180905D01*
X84310Y181358D01*
X83858Y181545D01*
D02*
G37*
G36*
X53081Y124744D02*
X51974D01*
Y122835D01*
X53883D01*
Y123941D01*
X53822Y124248D01*
X53648Y124509D01*
X53388Y124683D01*
X53081Y124744D01*
D02*
G37*
G36*
X58661Y171886D02*
X56870Y171745D01*
X55122Y171325D01*
X53462Y170637D01*
X51930Y169698D01*
X50563Y168531D01*
X49396Y167165D01*
X48457Y165632D01*
X47769Y163972D01*
X47350Y162225D01*
X47209Y160433D01*
X47350Y158642D01*
X47769Y156894D01*
X48457Y155234D01*
X49396Y153701D01*
X50563Y152335D01*
X51930Y151168D01*
X53462Y150229D01*
X55122Y149541D01*
X56870Y149121D01*
X58661Y148980D01*
X60453Y149121D01*
X62200Y149541D01*
X63861Y150229D01*
X65393Y151168D01*
X66760Y152335D01*
X67927Y153701D01*
X68866Y155234D01*
X69554Y156894D01*
X69973Y158642D01*
X70114Y160433D01*
X69973Y162225D01*
X69554Y163972D01*
X68866Y165632D01*
X67927Y167165D01*
X66760Y168531D01*
X65393Y169698D01*
X63861Y170637D01*
X62200Y171325D01*
X60453Y171745D01*
X58661Y171886D01*
D02*
G37*
G36*
X119604Y180649D02*
X118498D01*
Y178740D01*
X120407D01*
Y179847D01*
X120346Y180154D01*
X120172Y180414D01*
X119912Y180588D01*
X119604Y180649D01*
D02*
G37*
G36*
X51187Y124744D02*
X50081D01*
X49773Y124683D01*
X49513Y124509D01*
X49339Y124248D01*
X49278Y123941D01*
Y122835D01*
X51187D01*
Y124744D01*
D02*
G37*
G36*
X215472Y194277D02*
X214589Y194101D01*
X213840Y193601D01*
X213493Y193080D01*
X68664D01*
X68496Y193193D01*
X68071Y193277D01*
X67645Y193193D01*
X67285Y192952D01*
X43977Y169644D01*
X43736Y169284D01*
X43652Y168858D01*
X43652Y168858D01*
Y120512D01*
X43652Y120512D01*
X43736Y120086D01*
X43977Y119726D01*
X46169Y117535D01*
X46169Y117535D01*
X46529Y117294D01*
X46955Y117209D01*
X46955Y117209D01*
X61482D01*
X61760Y116793D01*
X61756Y116785D01*
Y115919D01*
X61760Y115911D01*
X61482Y115496D01*
X34495D01*
X34451Y115553D01*
X33700Y116129D01*
X32827Y116490D01*
X31890Y116614D01*
X30952Y116490D01*
X30079Y116129D01*
X29329Y115553D01*
X28753Y114803D01*
X28392Y113929D01*
X28268Y112992D01*
X28392Y112055D01*
X28753Y111181D01*
X29329Y110431D01*
X30079Y109856D01*
X30952Y109494D01*
X31890Y109371D01*
X32827Y109494D01*
X33700Y109856D01*
X34451Y110431D01*
X35026Y111181D01*
X35388Y112055D01*
X35511Y112992D01*
X35757Y113272D01*
X61482D01*
X61760Y112856D01*
X61756Y112848D01*
Y111982D01*
X61944Y111530D01*
X61944Y111332D01*
X61756Y110880D01*
Y110014D01*
X61944Y109562D01*
X61944Y109363D01*
X61756Y108911D01*
Y108045D01*
X61944Y107593D01*
X61944Y107395D01*
X61756Y106943D01*
Y106077D01*
X61822Y105917D01*
X61919Y105526D01*
X61822Y105134D01*
X61756Y104974D01*
Y104108D01*
X61944Y103656D01*
X61944Y103458D01*
X61779Y103060D01*
X61295Y102837D01*
X59684Y104448D01*
X59323Y104689D01*
X58898Y104773D01*
X58898Y104773D01*
X58897D01*
X58633Y105169D01*
X57942Y105631D01*
X57126Y105793D01*
X56310Y105631D01*
X55619Y105169D01*
X55240Y104602D01*
X54978Y104477D01*
X54647Y104476D01*
X54524Y104559D01*
X54216Y104620D01*
X53110D01*
Y102317D01*
Y100014D01*
X54216D01*
X54524Y100075D01*
X54784Y100249D01*
X54958Y100510D01*
X55019Y100817D01*
Y102151D01*
X55519Y102303D01*
X55619Y102154D01*
X56310Y101692D01*
X57126Y101530D01*
X57942Y101692D01*
X58633Y102154D01*
X58815Y102172D01*
X61168Y99818D01*
X61529Y99577D01*
X61575Y99568D01*
X61654Y99376D01*
X61593Y99069D01*
Y99030D01*
X65742D01*
X69891D01*
Y99069D01*
X69830Y99376D01*
X69656Y99637D01*
X69551Y99707D01*
X69541Y99719D01*
Y99719D01*
X69728Y100171D01*
Y101037D01*
X69541Y101489D01*
X69541Y101688D01*
X69728Y102140D01*
Y103006D01*
X69541Y103458D01*
X69541Y103656D01*
X69728Y104108D01*
Y104974D01*
X69541Y105426D01*
X69541Y105625D01*
X69728Y106077D01*
Y106943D01*
X69541Y107395D01*
X69541Y107593D01*
X69728Y108045D01*
Y108911D01*
X69541Y109363D01*
X69541Y109562D01*
X69728Y110014D01*
Y110880D01*
X69541Y111332D01*
X69541Y111530D01*
X69728Y111982D01*
Y112848D01*
X69541Y113300D01*
X69541Y113499D01*
X69728Y113951D01*
Y114817D01*
X69541Y115269D01*
X69541Y115467D01*
X69728Y115919D01*
Y116785D01*
X69541Y117237D01*
X69541Y117436D01*
X69728Y117888D01*
Y118754D01*
X69541Y119206D01*
X69541Y119404D01*
X69728Y119856D01*
Y120722D01*
X69541Y121174D01*
X69541Y121373D01*
X69728Y121825D01*
Y122691D01*
X69541Y123143D01*
X69541Y123143D01*
X69551Y123155D01*
X69656Y123226D01*
X69830Y123486D01*
X69891Y123793D01*
Y123833D01*
X65742D01*
X61593D01*
Y123793D01*
X61176Y123370D01*
X59220D01*
Y123941D01*
X59033Y124393D01*
X58610Y124568D01*
Y127626D01*
X58837Y127777D01*
X59337Y128526D01*
X59513Y129409D01*
X59337Y130293D01*
X58837Y131042D01*
X58088Y131542D01*
X57205Y131718D01*
X56321Y131542D01*
X55573Y131042D01*
X55072Y130293D01*
X54897Y129409D01*
X55072Y128526D01*
X55573Y127777D01*
X55800Y127626D01*
Y124580D01*
X55581D01*
X55129Y124393D01*
X54941Y123941D01*
Y120941D01*
X55129Y120489D01*
X55581Y120302D01*
X58581D01*
X59033Y120489D01*
X59220Y120941D01*
Y121146D01*
X61482D01*
X61760Y120730D01*
X61756Y120722D01*
Y119856D01*
X61760Y119849D01*
X61482Y119433D01*
X47415D01*
X45876Y120972D01*
Y168398D01*
X68335Y190857D01*
X213493D01*
X213840Y190336D01*
X214589Y189836D01*
X215472Y189660D01*
X216356Y189836D01*
X217105Y190336D01*
X217605Y191085D01*
X217781Y191969D01*
X217605Y192852D01*
X217105Y193601D01*
X216356Y194101D01*
X215472Y194277D01*
D02*
G37*
G36*
X81496Y149261D02*
X78347D01*
X77895Y149074D01*
X77707Y148622D01*
Y148442D01*
X77214Y148425D01*
X77027Y148877D01*
X76575Y149064D01*
X73032D01*
X72579Y148877D01*
X72392Y148425D01*
Y145276D01*
X72579Y144824D01*
X73032Y144636D01*
X76575D01*
X77027Y144824D01*
X77214Y145276D01*
X77707Y145259D01*
Y145079D01*
X77895Y144627D01*
X78347Y144439D01*
X78992D01*
Y138912D01*
X78577Y138634D01*
X78569Y138637D01*
X77703D01*
X77251Y138450D01*
X77052Y138450D01*
X76600Y138637D01*
X75734D01*
X75282Y138450D01*
X75084Y138450D01*
X74632Y138637D01*
X73766D01*
X73314Y138450D01*
X73127Y137998D01*
Y131305D01*
X73314Y130853D01*
X73766Y130666D01*
X74632D01*
X75084Y130853D01*
X75282Y130853D01*
X75734Y130666D01*
X76600D01*
X77052Y130853D01*
X77251Y130853D01*
X77703Y130666D01*
X78569D01*
X79021Y130853D01*
X79219Y130853D01*
X79671Y130666D01*
X80537D01*
X80559Y130675D01*
X80568Y130678D01*
X81002Y130843D01*
X81072Y130737D01*
X81332Y130563D01*
X81333Y130563D01*
X81394Y130551D01*
X81640Y130502D01*
X81679D01*
Y134652D01*
Y138801D01*
X81640D01*
X81216Y139218D01*
Y144439D01*
X81496D01*
X81948Y144627D01*
X82135Y145079D01*
Y148622D01*
X81948Y149074D01*
X81496Y149261D01*
D02*
G37*
G36*
X120407Y177953D02*
X118498D01*
Y176044D01*
X119604D01*
X119912Y176105D01*
X120172Y176279D01*
X120346Y176539D01*
X120407Y176847D01*
Y177953D01*
D02*
G37*
G36*
X69089Y127267D02*
X62396D01*
X61944Y127080D01*
X61756Y126628D01*
Y125762D01*
X61944Y125310D01*
X61944Y125310D01*
X61933Y125297D01*
X61828Y125227D01*
X61654Y124967D01*
X61593Y124659D01*
Y124620D01*
X65742D01*
X69891D01*
Y124659D01*
X69830Y124967D01*
X69656Y125227D01*
X69551Y125297D01*
X69541Y125310D01*
Y125310D01*
X69728Y125762D01*
Y126628D01*
X69541Y127080D01*
X69089Y127267D01*
D02*
G37*
G36*
X117711Y177953D02*
X115802D01*
Y176847D01*
X115863Y176539D01*
X116037Y176279D01*
X116297Y176105D01*
X116604Y176044D01*
X117711D01*
Y177953D01*
D02*
G37*
G36*
X87008Y149425D02*
X85827D01*
Y147244D01*
X87811D01*
Y148622D01*
X87750Y148929D01*
X87576Y149190D01*
X87315Y149364D01*
X87008Y149425D01*
D02*
G37*
G36*
X117711Y180649D02*
X116604D01*
X116297Y180588D01*
X116037Y180414D01*
X115863Y180154D01*
X115802Y179847D01*
Y178740D01*
X117711D01*
Y180649D01*
D02*
G37*
G36*
X256299Y171886D02*
X254508Y171745D01*
X252760Y171325D01*
X251100Y170637D01*
X249568Y169698D01*
X248201Y168531D01*
X247034Y167165D01*
X246095Y165632D01*
X245407Y163972D01*
X244988Y162225D01*
X244847Y160433D01*
X244988Y158642D01*
X245407Y156894D01*
X246095Y155234D01*
X247034Y153701D01*
X248201Y152335D01*
X249568Y151168D01*
X251100Y150229D01*
X252760Y149541D01*
X254508Y149121D01*
X256299Y148980D01*
X258091Y149121D01*
X259838Y149541D01*
X261499Y150229D01*
X263031Y151168D01*
X264397Y152335D01*
X265565Y153701D01*
X266504Y155234D01*
X267191Y156894D01*
X267611Y158642D01*
X267752Y160433D01*
X267611Y162225D01*
X267191Y163972D01*
X266504Y165632D01*
X265565Y167165D01*
X264397Y168531D01*
X263031Y169698D01*
X261499Y170637D01*
X259838Y171325D01*
X258091Y171745D01*
X256299Y171886D01*
D02*
G37*
%LPD*%
G36*
X130778Y152986D02*
Y137152D01*
X130278Y136884D01*
X130107Y136999D01*
X129803Y137059D01*
Y135315D01*
Y133571D01*
X130107Y133631D01*
X130278Y133746D01*
X130778Y133478D01*
Y128256D01*
X125864Y123342D01*
X116777D01*
X116360Y123766D01*
Y123805D01*
X112211D01*
Y124593D01*
X116360D01*
Y124632D01*
X116752Y125055D01*
X116752Y125055D01*
X117177Y125140D01*
X117538Y125381D01*
X120299Y128142D01*
X122366D01*
X122794Y128320D01*
X126090D01*
X126242Y128092D01*
X126991Y127592D01*
X127874Y127416D01*
X128757Y127592D01*
X129506Y128092D01*
X130006Y128841D01*
X130182Y129724D01*
X130006Y130608D01*
X129506Y131357D01*
X128757Y131857D01*
X127874Y132033D01*
X126991Y131857D01*
X126242Y131357D01*
X126090Y131129D01*
X123005D01*
Y131781D01*
X122818Y132234D01*
X122366Y132421D01*
X119366D01*
X118914Y132234D01*
X118727Y131781D01*
Y129715D01*
X116291Y127279D01*
X112211D01*
X112011Y127240D01*
X108864D01*
X108412Y127052D01*
X108225Y126600D01*
Y125734D01*
X108234Y125713D01*
X108238Y125704D01*
X108402Y125270D01*
X108297Y125200D01*
X108123Y124939D01*
X108123Y124939D01*
X108110Y124878D01*
X108061Y124632D01*
X107579Y124674D01*
X107565Y124742D01*
X107065Y125490D01*
X106316Y125991D01*
X105433Y126166D01*
X104550Y125991D01*
X103801Y125490D01*
X103301Y124742D01*
X103125Y123858D01*
X103178Y123590D01*
X100188Y120600D01*
X99883Y120144D01*
X99776Y119606D01*
Y115856D01*
X99314Y115665D01*
X99025Y115954D01*
X98569Y116259D01*
X98032Y116366D01*
X95475D01*
X95323Y116866D01*
X95333Y116872D01*
X95833Y117621D01*
X96009Y118504D01*
X95833Y119387D01*
X95333Y120136D01*
X94813Y120484D01*
Y127520D01*
X94728Y127945D01*
X94487Y128306D01*
X94487Y128306D01*
X93027Y129766D01*
Y130391D01*
X93443Y130669D01*
X93451Y130666D01*
X94317D01*
X94769Y130853D01*
X94967Y130853D01*
X95419Y130666D01*
X96285D01*
X96737Y130853D01*
X96936Y130853D01*
X97388Y130666D01*
X98254D01*
X98706Y130853D01*
X98904Y130853D01*
X99356Y130666D01*
X100223D01*
X100674Y130853D01*
X100873Y130853D01*
X101325Y130666D01*
X102191D01*
X102350Y130732D01*
X102742Y130829D01*
X103134Y130732D01*
X103293Y130666D01*
X104159D01*
X104611Y130853D01*
X104799Y131305D01*
Y134452D01*
X104838Y134652D01*
Y134795D01*
X106811Y136768D01*
X106853Y136759D01*
X107350Y136600D01*
X114234Y129716D01*
X114686Y129528D01*
X115138Y129716D01*
X117922Y132500D01*
X118109Y132951D01*
X117922Y133404D01*
X110962Y140363D01*
X110870Y140827D01*
X113258Y143215D01*
X115325D01*
X115777Y143402D01*
X115964Y143854D01*
Y146854D01*
X115777Y147306D01*
X115325Y147494D01*
X112765D01*
X112558Y147994D01*
X113177Y148612D01*
X125236D01*
X125236Y148612D01*
X125662Y148697D01*
X126023Y148938D01*
X130278Y153193D01*
X130778Y152986D01*
D02*
G37*
G36*
X123298Y96390D02*
Y70090D01*
X122777Y69742D01*
X122714Y69648D01*
X122214Y69800D01*
Y96653D01*
X122214Y96653D01*
X122186Y96794D01*
X122647Y97040D01*
X123298Y96390D01*
D02*
G37*
G36*
X111483Y150064D02*
X107598Y146178D01*
X107120Y146324D01*
X107087Y146485D01*
X106625Y147177D01*
X105934Y147639D01*
X105118Y147801D01*
X104302Y147639D01*
X103611Y147177D01*
X103149Y146485D01*
X102987Y145669D01*
X103079Y145203D01*
X99433Y141557D01*
X98933Y141764D01*
Y145392D01*
X102558Y149017D01*
X102799Y149378D01*
X102884Y149803D01*
X102884Y149803D01*
Y150338D01*
X103384Y150490D01*
X103486Y150336D01*
X104235Y149836D01*
X105118Y149660D01*
X106001Y149836D01*
X106750Y150336D01*
X106902Y150564D01*
X111276D01*
X111483Y150064D01*
D02*
G37*
G36*
X174872Y176311D02*
Y174950D01*
X173917D01*
X173465Y174763D01*
X173278Y174311D01*
Y166634D01*
X173271Y166623D01*
X170823D01*
X170816Y166634D01*
Y174311D01*
X170629Y174763D01*
X170177Y174950D01*
X169222D01*
Y175984D01*
X169138Y176410D01*
X168896Y176770D01*
X168896Y176770D01*
X167751Y177916D01*
X167958Y178416D01*
X172768D01*
X174872Y176311D01*
D02*
G37*
G36*
X108356Y122981D02*
X108225Y122663D01*
Y121797D01*
X108412Y121345D01*
X108412Y121147D01*
X108225Y120695D01*
Y119829D01*
X108412Y119377D01*
X108412Y119178D01*
X108225Y118726D01*
Y117860D01*
X108412Y117408D01*
X108412Y117210D01*
X108225Y116758D01*
Y115892D01*
X108412Y115440D01*
X108412Y115241D01*
X108225Y114789D01*
Y113923D01*
X108412Y113471D01*
X108412Y113273D01*
X108225Y112821D01*
Y111955D01*
X108412Y111503D01*
X108412Y111304D01*
X108225Y110852D01*
Y109986D01*
X108412Y109534D01*
X108412Y109336D01*
X108225Y108884D01*
Y108018D01*
X108412Y107566D01*
X108412Y107367D01*
X108225Y106915D01*
Y106049D01*
X108412Y105597D01*
X108412Y105399D01*
X108225Y104947D01*
Y104081D01*
X108412Y103629D01*
X108412Y103430D01*
X108225Y102978D01*
Y102112D01*
X108412Y101660D01*
X108412Y101462D01*
X108225Y101010D01*
Y100144D01*
X108412Y99692D01*
X108412Y99493D01*
X108225Y99041D01*
Y98175D01*
X108412Y97723D01*
X108412Y97525D01*
X108225Y97073D01*
Y96207D01*
X108412Y95755D01*
X108864Y95568D01*
X112011D01*
X112211Y95528D01*
X116679D01*
X118046Y94161D01*
Y90919D01*
X117546Y90712D01*
X115138Y93119D01*
X114686Y93306D01*
X114234Y93119D01*
X107275Y86159D01*
X107087Y85707D01*
X107275Y85255D01*
X110058Y82472D01*
X110511Y82284D01*
X110962Y82472D01*
X117546Y89055D01*
X118046Y88848D01*
Y58594D01*
X101350Y41899D01*
X100850Y42106D01*
Y58753D01*
X101350Y58991D01*
X101912Y58616D01*
X102795Y58440D01*
X103679Y58616D01*
X104427Y59116D01*
X104928Y59865D01*
X105103Y60748D01*
X104928Y61631D01*
X104734Y61921D01*
Y69477D01*
X105254Y69825D01*
X105754Y70573D01*
X105930Y71457D01*
X105754Y72340D01*
X105254Y73089D01*
X105027Y73241D01*
Y75459D01*
X105246D01*
X105698Y75646D01*
X105885Y76098D01*
Y79098D01*
X105698Y79550D01*
X105246Y79738D01*
X104838D01*
Y88183D01*
X104799Y88382D01*
Y91530D01*
X104611Y91982D01*
X104159Y92169D01*
X103293D01*
X103272Y92160D01*
X103263Y92156D01*
X102829Y91992D01*
X102759Y92097D01*
X102498Y92271D01*
X102498Y92271D01*
X102437Y92283D01*
X102191Y92332D01*
X102152D01*
Y88183D01*
X101364D01*
Y92332D01*
X101325D01*
X101018Y92271D01*
X100757Y92097D01*
X100687Y91992D01*
X100674Y91982D01*
X100674D01*
X100223Y92169D01*
X99356D01*
X98904Y91982D01*
X98706Y91982D01*
X98254Y92169D01*
X97388D01*
X96936Y91982D01*
X96737Y91982D01*
X96285Y92169D01*
X95419D01*
X94967Y91982D01*
X94769Y91982D01*
X94317Y92169D01*
X94228D01*
X94178Y92669D01*
X94584Y92750D01*
X95333Y93250D01*
X95833Y93999D01*
X96009Y94882D01*
X95833Y95765D01*
X95333Y96514D01*
X94813Y96861D01*
Y106682D01*
X95333Y107029D01*
X95833Y107778D01*
X96009Y108661D01*
X95833Y109545D01*
X95592Y109906D01*
X95859Y110406D01*
X99397D01*
X99549Y110179D01*
X99776Y110027D01*
Y96941D01*
X99549Y96790D01*
X99049Y96041D01*
X98873Y95157D01*
X99049Y94274D01*
X99549Y93525D01*
X100298Y93025D01*
X101181Y92849D01*
X102064Y93025D01*
X102813Y93525D01*
X103314Y94274D01*
X103489Y95157D01*
X103314Y96041D01*
X102813Y96790D01*
X102586Y96941D01*
Y110027D01*
X102813Y110179D01*
X103314Y110928D01*
X103489Y111811D01*
X103314Y112694D01*
X102813Y113443D01*
X102586Y113595D01*
Y119024D01*
X105165Y121603D01*
X105433Y121550D01*
X106316Y121726D01*
X107065Y122226D01*
X107565Y122975D01*
X107618Y123237D01*
X108117Y123317D01*
X108356Y122981D01*
D02*
G37*
G36*
X204774Y116043D02*
Y108366D01*
X204961Y107914D01*
X205413Y107727D01*
X206368D01*
Y106760D01*
X192453Y92844D01*
X183669D01*
X183515Y93192D01*
X183499Y93344D01*
X192518Y102363D01*
X192760Y102724D01*
X192844Y103150D01*
X192844Y103150D01*
Y107727D01*
X193799D01*
X194251Y107914D01*
X194438Y108366D01*
Y116043D01*
X194445Y116054D01*
X196893D01*
X196900Y116043D01*
Y108366D01*
X197087Y107914D01*
X197539Y107727D01*
X198494D01*
Y107153D01*
X195899Y104558D01*
X195433Y104651D01*
X194617Y104489D01*
X193926Y104027D01*
X193464Y103335D01*
X193302Y102520D01*
X193464Y101704D01*
X193926Y101013D01*
X194617Y100550D01*
X195433Y100388D01*
X196249Y100550D01*
X196940Y101013D01*
X197402Y101704D01*
X197565Y102520D01*
X197472Y102986D01*
X200393Y105907D01*
X200393Y105907D01*
X200634Y106267D01*
X200718Y106693D01*
Y107727D01*
X201673D01*
X202125Y107914D01*
X202312Y108366D01*
Y116043D01*
X202319Y116054D01*
X204767D01*
X204774Y116043D01*
D02*
G37*
G36*
X181152D02*
Y108366D01*
X181339Y107914D01*
X181791Y107727D01*
X182219D01*
X182426Y107227D01*
X176451Y101251D01*
X175984Y101344D01*
X175593Y101266D01*
X175347Y101727D01*
X176770Y103151D01*
X177012Y103512D01*
X177096Y103937D01*
X177096Y103937D01*
Y107727D01*
X178051D01*
X178503Y107914D01*
X178690Y108366D01*
Y116043D01*
X178697Y116054D01*
X181145D01*
X181152Y116043D01*
D02*
G37*
G36*
X166998Y175524D02*
Y174950D01*
X166043D01*
X165591Y174763D01*
X165404Y174311D01*
Y166634D01*
X165397Y166623D01*
X164567D01*
X164115Y166436D01*
X163928Y165984D01*
Y116693D01*
X164115Y116241D01*
X164567Y116054D01*
X165232D01*
X165241Y116043D01*
Y112599D01*
X168110D01*
X170980D01*
Y116043D01*
X170989Y116054D01*
X173271D01*
X173278Y116043D01*
Y108366D01*
X173465Y107914D01*
X173917Y107727D01*
X174872D01*
Y104398D01*
X168043Y97569D01*
X167469D01*
X167248Y98069D01*
X167599Y98594D01*
X167761Y99410D01*
X167599Y100225D01*
X167137Y100917D01*
X166446Y101379D01*
X165630Y101541D01*
X165586Y101532D01*
X165235Y101972D01*
X165360Y102598D01*
X165198Y103414D01*
X164736Y104106D01*
X164044Y104568D01*
X163228Y104730D01*
X162413Y104568D01*
X161721Y104106D01*
X161457Y103710D01*
X135264D01*
X124641Y114334D01*
X124805Y114876D01*
X124876Y114890D01*
X126379Y113387D01*
X126379Y113387D01*
X126740Y113146D01*
X127165Y113061D01*
X138976D01*
X138976Y113061D01*
X139402Y113146D01*
X139763Y113387D01*
X142912Y116537D01*
X142912Y116537D01*
X143153Y116897D01*
X143238Y117323D01*
X143238Y117323D01*
Y126378D01*
X143153Y126804D01*
X142912Y127164D01*
X142912Y127164D01*
X136939Y133138D01*
Y173161D01*
X140224Y176447D01*
X166075D01*
X166998Y175524D01*
D02*
G37*
G36*
X80125Y42347D02*
X80146Y42315D01*
X79975Y41457D01*
X80151Y40573D01*
X80651Y39825D01*
X81172Y39477D01*
Y37862D01*
X69607Y26298D01*
X69366Y25937D01*
X69282Y25512D01*
X69282Y25512D01*
Y22016D01*
X68709Y21778D01*
X68011Y21243D01*
X67476Y20545D01*
X67139Y19732D01*
X67024Y18860D01*
Y17360D01*
X67139Y16488D01*
X67476Y15676D01*
X68011Y14978D01*
X68709Y14442D01*
X69282Y14205D01*
Y11799D01*
X66862Y9380D01*
X44555D01*
X41269Y12665D01*
Y13221D01*
X41658D01*
X42110Y13408D01*
X42297Y13860D01*
Y16741D01*
X42568Y16981D01*
X42589Y16995D01*
X42751Y17070D01*
X43110Y16998D01*
X47005D01*
Y14610D01*
X47192Y14158D01*
X47644Y13971D01*
X53144D01*
X53596Y14158D01*
X53783Y14610D01*
Y17022D01*
X54087Y17083D01*
X54448Y17324D01*
X56373Y19249D01*
X56846Y19015D01*
X56826Y18860D01*
Y18504D01*
X63962D01*
Y18860D01*
X63840Y19784D01*
X63484Y20644D01*
X62917Y21383D01*
X62178Y21950D01*
X61317Y22307D01*
X60394Y22428D01*
X60239Y22408D01*
X60005Y22881D01*
X79697Y42573D01*
X80125Y42347D01*
D02*
G37*
G36*
X138414Y128517D02*
X138157Y128129D01*
X138120Y128105D01*
X137835Y128161D01*
Y126811D01*
X139185D01*
X139128Y127096D01*
X139152Y127133D01*
X139541Y127391D01*
X141014Y125917D01*
Y117783D01*
X139787Y116556D01*
X139758Y116559D01*
X139305Y116781D01*
Y117717D01*
X137396D01*
Y115807D01*
X137767D01*
X138044Y115307D01*
X138030Y115285D01*
X127626D01*
X126230Y116681D01*
X126437Y117181D01*
X129363D01*
Y116610D01*
X129550Y116158D01*
X130002Y115971D01*
X133002D01*
X133454Y116158D01*
X133641Y116610D01*
Y119610D01*
X133454Y120062D01*
X133002Y120249D01*
X130002D01*
X129550Y120062D01*
X129363Y119610D01*
Y119405D01*
X128653D01*
X128446Y119905D01*
X134644Y126103D01*
X134886Y126464D01*
X134970Y126890D01*
X134970Y126890D01*
Y131254D01*
X135470Y131461D01*
X138414Y128517D01*
D02*
G37*
G36*
X182746Y179461D02*
Y174950D01*
X181791D01*
X181339Y174763D01*
X181152Y174311D01*
Y166634D01*
X181145Y166623D01*
X178697D01*
X178690Y166634D01*
Y174311D01*
X178503Y174763D01*
X178051Y174950D01*
X177096D01*
Y176772D01*
X177012Y177197D01*
X176770Y177558D01*
X174444Y179884D01*
X174651Y180384D01*
X181823D01*
X182746Y179461D01*
D02*
G37*
G36*
X189026Y116043D02*
Y108366D01*
X189213Y107914D01*
X189665Y107727D01*
X190620D01*
Y103610D01*
X182217Y95206D01*
X169496D01*
X169342Y95554D01*
X169326Y95706D01*
X173470Y99850D01*
X173931Y99604D01*
X173853Y99213D01*
X174015Y98397D01*
X174477Y97705D01*
X175169Y97243D01*
X175984Y97081D01*
X176800Y97243D01*
X177491Y97705D01*
X177954Y98397D01*
X178116Y99213D01*
X178023Y99679D01*
X184644Y106300D01*
X184644Y106300D01*
X184886Y106661D01*
X184970Y107087D01*
X184970Y107087D01*
Y107727D01*
X185925D01*
X186377Y107914D01*
X186564Y108366D01*
Y116043D01*
X186571Y116054D01*
X189019D01*
X189026Y116043D01*
D02*
G37*
G36*
X134803Y101487D02*
X134803Y101487D01*
X161457D01*
X161721Y101091D01*
X161826Y101021D01*
X161674Y100521D01*
X134909D01*
X134367Y101063D01*
X134614Y101524D01*
X134803Y101487D01*
D02*
G37*
G36*
X206368Y178280D02*
Y174950D01*
X205413D01*
X204961Y174763D01*
X204774Y174311D01*
Y166634D01*
X204767Y166623D01*
X202319D01*
X202312Y166634D01*
Y174311D01*
X202125Y174763D01*
X201673Y174950D01*
X197539D01*
X197087Y174763D01*
X196900Y174311D01*
Y166634D01*
X196893Y166623D01*
X194445D01*
X194438Y166634D01*
Y174311D01*
X194251Y174763D01*
X193799Y174950D01*
X193216D01*
Y177547D01*
X193514Y177746D01*
X194036Y178527D01*
X194220Y179449D01*
X194036Y180370D01*
X193514Y181152D01*
X192733Y181674D01*
X191811Y181857D01*
X190889Y181674D01*
X190108Y181152D01*
X189586Y180370D01*
X189402Y179449D01*
X189586Y178527D01*
X190108Y177746D01*
X190406Y177547D01*
Y174950D01*
X189665D01*
X189213Y174763D01*
X189026Y174311D01*
Y166634D01*
X189019Y166623D01*
X186571D01*
X186564Y166634D01*
Y174311D01*
X186377Y174763D01*
X185925Y174950D01*
X184970D01*
Y179921D01*
X184886Y180347D01*
X184644Y180708D01*
X184644Y180708D01*
X183499Y181853D01*
X183706Y182353D01*
X202295D01*
X206368Y178280D01*
D02*
G37*
%LPC*%
G36*
X120472Y135388D02*
X118563D01*
Y134282D01*
X118624Y133974D01*
X118798Y133714D01*
X119059Y133540D01*
X119366Y133479D01*
X120472D01*
Y135388D01*
D02*
G37*
G36*
X129016Y137059D02*
X128712Y136999D01*
X128121Y136604D01*
X127726Y136012D01*
X127665Y135709D01*
X129016D01*
Y137059D01*
D02*
G37*
G36*
X120825Y147494D02*
X117825D01*
X117373Y147306D01*
X117186Y146854D01*
Y143854D01*
X117373Y143402D01*
X117825Y143215D01*
X117920D01*
Y142423D01*
X117856Y142380D01*
X117356Y141631D01*
X117180Y140748D01*
X117356Y139865D01*
X117856Y139116D01*
X118605Y138616D01*
X119039Y138529D01*
X119058Y138060D01*
X119050Y138017D01*
X118798Y137849D01*
X118624Y137589D01*
X118563Y137282D01*
Y136175D01*
X120472D01*
Y138084D01*
X120264D01*
X120214Y138584D01*
X120371Y138616D01*
X121120Y139116D01*
X121621Y139865D01*
X121796Y140748D01*
X121621Y141631D01*
X121120Y142380D01*
X120730Y142641D01*
Y143215D01*
X120825D01*
X121277Y143402D01*
X121464Y143854D01*
Y146854D01*
X121277Y147306D01*
X120825Y147494D01*
D02*
G37*
G36*
X123169Y135388D02*
X121260D01*
Y133479D01*
X122366D01*
X122673Y133540D01*
X122934Y133714D01*
X123108Y133974D01*
X123169Y134282D01*
Y135388D01*
D02*
G37*
G36*
X129016Y134921D02*
X127665D01*
X127726Y134618D01*
X128121Y134026D01*
X128712Y133631D01*
X129016Y133571D01*
Y134921D01*
D02*
G37*
G36*
X122366Y138084D02*
X121260D01*
Y136175D01*
X123169D01*
Y137282D01*
X123108Y137589D01*
X122934Y137849D01*
X122673Y138023D01*
X122366Y138084D01*
D02*
G37*
G36*
X111181Y68201D02*
X110877Y68140D01*
X110286Y67745D01*
X109891Y67154D01*
X109831Y66850D01*
X111181D01*
Y68201D01*
D02*
G37*
G36*
Y66063D02*
X109831D01*
X109891Y65759D01*
X110286Y65168D01*
X110877Y64773D01*
X111181Y64713D01*
Y66063D01*
D02*
G37*
G36*
X113319D02*
X111969D01*
Y64713D01*
X112272Y64773D01*
X112863Y65168D01*
X113259Y65759D01*
X113319Y66063D01*
D02*
G37*
G36*
X111969Y68201D02*
Y66850D01*
X113319D01*
X113259Y67154D01*
X112863Y67745D01*
X112272Y68140D01*
X111969Y68201D01*
D02*
G37*
G36*
X111549Y77205D02*
X109640D01*
Y75296D01*
X110746D01*
X111053Y75357D01*
X111314Y75531D01*
X111488Y75791D01*
X111549Y76098D01*
Y77205D01*
D02*
G37*
G36*
X108852D02*
X106943D01*
Y76098D01*
X107004Y75791D01*
X107178Y75531D01*
X107439Y75357D01*
X107746Y75296D01*
X108852D01*
Y77205D01*
D02*
G37*
G36*
X110746Y79901D02*
X109640D01*
Y77992D01*
X111549D01*
Y79098D01*
X111488Y79406D01*
X111314Y79666D01*
X111053Y79840D01*
X110746Y79901D01*
D02*
G37*
G36*
X108852D02*
X107746D01*
X107439Y79840D01*
X107178Y79666D01*
X107004Y79406D01*
X106943Y79098D01*
Y77992D01*
X108852D01*
Y79901D01*
D02*
G37*
G36*
X160524Y168032D02*
X159173D01*
Y166681D01*
X159477Y166742D01*
X160068Y167137D01*
X160463Y167728D01*
X160524Y168032D01*
D02*
G37*
G36*
X158386Y170169D02*
X158082Y170109D01*
X157491Y169714D01*
X157096Y169123D01*
X157035Y168819D01*
X158386D01*
Y170169D01*
D02*
G37*
G36*
X159173D02*
Y168819D01*
X160524D01*
X160463Y169123D01*
X160068Y169714D01*
X159477Y170109D01*
X159173Y170169D01*
D02*
G37*
G36*
X145276Y163437D02*
Y162087D01*
X146626D01*
X146566Y162390D01*
X146170Y162982D01*
X145579Y163377D01*
X145276Y163437D01*
D02*
G37*
G36*
X144488Y161299D02*
X143138D01*
X143198Y160995D01*
X143593Y160404D01*
X144185Y160009D01*
X144488Y159949D01*
Y161299D01*
D02*
G37*
G36*
X158386Y168032D02*
X157035D01*
X157096Y167728D01*
X157491Y167137D01*
X158082Y166742D01*
X158386Y166681D01*
Y168032D01*
D02*
G37*
G36*
X144488Y163437D02*
X144185Y163377D01*
X143593Y162982D01*
X143198Y162390D01*
X143138Y162087D01*
X144488D01*
Y163437D01*
D02*
G37*
G36*
X146626Y161299D02*
X145276D01*
Y159949D01*
X145579Y160009D01*
X146170Y160404D01*
X146566Y160995D01*
X146626Y161299D01*
D02*
G37*
G36*
X162610Y107598D02*
X161260D01*
Y106248D01*
X161564Y106308D01*
X162155Y106703D01*
X162550Y107295D01*
X162610Y107598D01*
D02*
G37*
G36*
X160472D02*
X159122D01*
X159182Y107295D01*
X159578Y106703D01*
X160169Y106308D01*
X160472Y106248D01*
Y107598D01*
D02*
G37*
G36*
X170980Y111811D02*
X168504D01*
Y107563D01*
X170177D01*
X170484Y107624D01*
X170745Y107799D01*
X170919Y108059D01*
X170980Y108366D01*
Y111811D01*
D02*
G37*
G36*
X167717D02*
X165241D01*
Y108366D01*
X165302Y108059D01*
X165476Y107799D01*
X165736Y107624D01*
X166043Y107563D01*
X167717D01*
Y111811D01*
D02*
G37*
G36*
X156142Y126311D02*
X155838Y126251D01*
X155247Y125856D01*
X154852Y125264D01*
X154791Y124961D01*
X156142D01*
Y126311D01*
D02*
G37*
G36*
X156929D02*
Y124961D01*
X158280D01*
X158219Y125264D01*
X157824Y125856D01*
X157233Y126251D01*
X156929Y126311D01*
D02*
G37*
G36*
X156142Y124173D02*
X154791D01*
X154852Y123870D01*
X155247Y123278D01*
X155838Y122883D01*
X156142Y122823D01*
Y124173D01*
D02*
G37*
G36*
X158280D02*
X156929D01*
Y122823D01*
X157233Y122883D01*
X157824Y123278D01*
X158219Y123870D01*
X158280Y124173D01*
D02*
G37*
G36*
X160472Y109736D02*
X160169Y109676D01*
X159578Y109281D01*
X159182Y108689D01*
X159122Y108386D01*
X160472D01*
Y109736D01*
D02*
G37*
G36*
X161260D02*
Y108386D01*
X162610D01*
X162550Y108689D01*
X162155Y109281D01*
X161564Y109676D01*
X161260Y109736D01*
D02*
G37*
G36*
X158228Y147728D02*
X157925Y147668D01*
X157333Y147273D01*
X156938Y146682D01*
X156878Y146378D01*
X158228D01*
Y147728D01*
D02*
G37*
G36*
X159016D02*
Y146378D01*
X160366D01*
X160306Y146682D01*
X159911Y147273D01*
X159319Y147668D01*
X159016Y147728D01*
D02*
G37*
G36*
X158228Y145591D02*
X156878D01*
X156938Y145287D01*
X157333Y144696D01*
X157925Y144300D01*
X158228Y144240D01*
Y145591D01*
D02*
G37*
G36*
X160366D02*
X159016D01*
Y144240D01*
X159319Y144300D01*
X159911Y144696D01*
X160306Y145287D01*
X160366Y145591D01*
D02*
G37*
G36*
X145276Y140720D02*
Y139370D01*
X146626D01*
X146566Y139674D01*
X146170Y140265D01*
X145579Y140660D01*
X145276Y140720D01*
D02*
G37*
G36*
X146626Y138583D02*
X145276D01*
Y137232D01*
X145579Y137293D01*
X146170Y137688D01*
X146566Y138279D01*
X146626Y138583D01*
D02*
G37*
G36*
X144488Y140720D02*
X144185Y140660D01*
X143593Y140265D01*
X143198Y139674D01*
X143138Y139370D01*
X144488D01*
Y140720D01*
D02*
G37*
G36*
Y138583D02*
X143138D01*
X143198Y138279D01*
X143593Y137688D01*
X144185Y137293D01*
X144488Y137232D01*
Y138583D01*
D02*
G37*
G36*
X60000Y17717D02*
X56826D01*
Y17360D01*
X56947Y16437D01*
X57304Y15576D01*
X57871Y14837D01*
X58610Y14270D01*
X59470Y13914D01*
X60000Y13844D01*
Y17717D01*
D02*
G37*
G36*
X63962D02*
X60787D01*
Y13844D01*
X61317Y13914D01*
X62178Y14270D01*
X62917Y14837D01*
X63484Y15576D01*
X63840Y16437D01*
X63962Y17360D01*
Y17717D01*
D02*
G37*
G36*
X137047Y128161D02*
X136743Y128101D01*
X136152Y127706D01*
X135757Y127115D01*
X135697Y126811D01*
X137047D01*
Y128161D01*
D02*
G37*
G36*
X139185Y126024D02*
X137835D01*
Y124673D01*
X138138Y124734D01*
X138730Y125129D01*
X139125Y125720D01*
X139185Y126024D01*
D02*
G37*
G36*
X138502Y120413D02*
X137396D01*
Y118504D01*
X139305D01*
Y119610D01*
X139244Y119918D01*
X139070Y120178D01*
X138809Y120352D01*
X138502Y120413D01*
D02*
G37*
G36*
X136608D02*
X135502D01*
X135195Y120352D01*
X134934Y120178D01*
X134760Y119918D01*
X134699Y119610D01*
Y118504D01*
X136608D01*
Y120413D01*
D02*
G37*
G36*
X137047Y126024D02*
X135697D01*
X135757Y125720D01*
X136152Y125129D01*
X136743Y124734D01*
X137047Y124673D01*
Y126024D01*
D02*
G37*
G36*
X136608Y117717D02*
X134699D01*
Y116610D01*
X134760Y116303D01*
X134934Y116043D01*
X135195Y115868D01*
X135502Y115807D01*
X136608D01*
Y117717D01*
D02*
G37*
%LPD*%
D10*
X119325Y145354D02*
D03*
X113825D02*
D03*
X172841Y70079D02*
D03*
X178341D02*
D03*
X141569Y35866D02*
D03*
X136069D02*
D03*
X178512Y58341D02*
D03*
X173012D02*
D03*
X118104Y178347D02*
D03*
X112604D02*
D03*
X118104Y165748D02*
D03*
X112604D02*
D03*
X109246Y77598D02*
D03*
X103746D02*
D03*
X51581Y122441D02*
D03*
X57081D02*
D03*
X178734Y52362D02*
D03*
X173234D02*
D03*
X178341Y64173D02*
D03*
X172841D02*
D03*
X135467Y53661D02*
D03*
X129966D02*
D03*
X129927Y68504D02*
D03*
X135427D02*
D03*
X193484Y23696D02*
D03*
X198984D02*
D03*
X180087Y9522D02*
D03*
X174587D02*
D03*
X193484Y29601D02*
D03*
X198984D02*
D03*
X180087Y15428D02*
D03*
X174587D02*
D03*
X167894Y21334D02*
D03*
X173394D02*
D03*
X196634Y35900D02*
D03*
X202134D02*
D03*
X157474Y31102D02*
D03*
X151974D02*
D03*
X37396Y90551D02*
D03*
X31896D02*
D03*
X36411Y73779D02*
D03*
X30911D02*
D03*
X137002Y118110D02*
D03*
X131502D02*
D03*
D11*
X168110Y112205D02*
D03*
X175984D02*
D03*
X183858D02*
D03*
X191732D02*
D03*
X199606D02*
D03*
X207480D02*
D03*
X215354D02*
D03*
X223228D02*
D03*
Y170473D02*
D03*
X215354D02*
D03*
X207480D02*
D03*
X199606D02*
D03*
X191732D02*
D03*
X183858D02*
D03*
X175984D02*
D03*
X168110D02*
D03*
D12*
X74803Y146850D02*
D03*
Y152362D02*
D03*
D13*
X79921Y146850D02*
D03*
X85433D02*
D03*
X160984Y52756D02*
D03*
X166496D02*
D03*
D14*
X155136Y65591D02*
D03*
Y72991D02*
D03*
X165336D02*
D03*
Y69291D02*
D03*
Y65591D02*
D03*
D15*
X173991Y37771D02*
D03*
D16*
X171037Y43578D02*
D03*
X173006D02*
D03*
X174975D02*
D03*
X176944D02*
D03*
Y31963D02*
D03*
X174975D02*
D03*
X173006D02*
D03*
X171037D02*
D03*
D17*
X179798Y40723D02*
D03*
Y38755D02*
D03*
Y36786D02*
D03*
Y34818D02*
D03*
X168184D02*
D03*
Y36786D02*
D03*
Y38755D02*
D03*
Y40723D02*
D03*
D18*
X148819Y65754D02*
D03*
Y71254D02*
D03*
X160801Y24871D02*
D03*
Y19371D02*
D03*
X52716Y102317D02*
D03*
Y96817D02*
D03*
X120866Y135782D02*
D03*
Y130281D02*
D03*
X66929Y66536D02*
D03*
Y72035D02*
D03*
X153268Y20203D02*
D03*
Y25703D02*
D03*
X167494Y9922D02*
D03*
Y15422D02*
D03*
X153228Y8667D02*
D03*
Y14167D02*
D03*
X58268Y72041D02*
D03*
Y66541D02*
D03*
X280433Y119128D02*
D03*
Y113628D02*
D03*
X40157Y15360D02*
D03*
Y20860D02*
D03*
D19*
X112211Y96640D02*
D03*
Y118293D02*
D03*
X65742Y100604D02*
D03*
Y102573D02*
D03*
X112211Y98608D02*
D03*
Y126167D02*
D03*
Y124199D02*
D03*
Y122230D02*
D03*
Y120262D02*
D03*
Y116325D02*
D03*
Y114356D02*
D03*
Y112388D02*
D03*
Y110419D02*
D03*
Y108451D02*
D03*
Y106482D02*
D03*
Y104514D02*
D03*
Y102545D02*
D03*
Y100577D02*
D03*
X65742Y96667D02*
D03*
Y98636D02*
D03*
Y104541D02*
D03*
Y106510D02*
D03*
Y108478D02*
D03*
Y110447D02*
D03*
Y112415D02*
D03*
Y114384D02*
D03*
Y116352D02*
D03*
Y118321D02*
D03*
Y120289D02*
D03*
Y122258D02*
D03*
Y124226D02*
D03*
Y126195D02*
D03*
D20*
X103726Y134652D02*
D03*
X101758D02*
D03*
X89947D02*
D03*
X84041D02*
D03*
X87978D02*
D03*
X103726Y88183D02*
D03*
X101758Y88183D02*
D03*
X99789D02*
D03*
X97821D02*
D03*
X95852D02*
D03*
X93884D02*
D03*
X91915D02*
D03*
X89947D02*
D03*
X87978D02*
D03*
X86010D02*
D03*
X84041D02*
D03*
X82073D02*
D03*
X80104D02*
D03*
X78136D02*
D03*
X76167D02*
D03*
X74199D02*
D03*
Y134652D02*
D03*
X76167D02*
D03*
X78136D02*
D03*
X80104D02*
D03*
X82073D02*
D03*
X86010D02*
D03*
X91915D02*
D03*
X93884D02*
D03*
X95852D02*
D03*
X97821D02*
D03*
X99789D02*
D03*
D21*
X65354Y87795D02*
D03*
X112598Y135039D02*
D03*
D22*
X65354D02*
D03*
X112598Y87795D02*
D03*
D23*
X101772Y165748D02*
D03*
Y178347D02*
D03*
X80118D02*
D03*
Y165748D02*
D03*
D24*
X191575Y170630D02*
X191811Y170866D01*
X46648Y96817D02*
X52716D01*
X44252Y100000D02*
X46648Y96817D01*
X103622Y77474D02*
X103746Y77598D01*
X103622Y71457D02*
Y77474D01*
X101181Y111811D02*
Y119606D01*
X85433Y111811D02*
X101181D01*
X98032Y114961D02*
X101181Y111811D01*
X119325Y140911D02*
Y145354D01*
Y140911D02*
X119488Y140748D01*
X125472Y155630D02*
Y162874D01*
X125394Y162953D02*
X125472Y162874D01*
X120866Y130281D02*
X121423Y129724D01*
X127874D01*
X101181Y119606D02*
X105433Y123858D01*
X57081Y122441D02*
X57205Y122565D01*
Y129409D01*
X72742Y122258D02*
X78136D01*
X85433Y114961D01*
X140315Y71102D02*
Y76772D01*
Y71102D02*
X145663Y65754D01*
X148819D01*
X227323Y72047D02*
X249528Y94252D01*
X194095Y48819D02*
X217323Y72047D01*
X176772Y48819D02*
X194095D01*
X174975Y47023D02*
X176772Y48819D01*
X174975Y43578D02*
Y47023D01*
X173012Y52829D02*
Y58341D01*
X173006Y52824D02*
X173012Y52829D01*
X148981Y65591D02*
X155136D01*
X151974Y31102D02*
Y31502D01*
X159227Y38755D01*
X178512Y58341D02*
Y63608D01*
X178341Y63779D02*
X178512Y63608D01*
X165336Y72991D02*
X169141D01*
X165336Y65591D02*
X168347D01*
X172841Y63779D02*
Y64173D01*
X168347Y65591D02*
X172047Y69291D01*
X172841Y64173D02*
Y68498D01*
X178734Y52362D02*
Y58119D01*
X178512Y58341D02*
X178734Y58119D01*
X171037Y43578D02*
Y45616D01*
X166496Y50157D02*
X171037Y45616D01*
X166496Y50157D02*
Y52756D01*
X142283Y25591D02*
X146463D01*
X151974Y31102D01*
X142283Y25591D02*
Y30079D01*
X160984Y48779D01*
Y52756D01*
X132283Y25591D02*
X141569Y34876D01*
Y35866D01*
X85433Y114961D02*
X98032D01*
X72835Y100000D02*
X85433Y111811D01*
X75197Y151969D02*
X91339D01*
X74803Y152362D02*
X75197Y151969D01*
X130315Y69291D02*
Y76772D01*
X101181Y95157D02*
Y111811D01*
X159227Y38755D02*
X168184D01*
X235906Y153026D02*
Y176890D01*
Y153026D02*
X269803Y119128D01*
X280433D02*
X295939D01*
X297992Y121181D01*
X269803Y119128D02*
X280433D01*
X249528Y94252D02*
X262835D01*
X125512Y163071D02*
Y180394D01*
X105118Y151969D02*
X114409D01*
X125394Y162953D01*
X125512Y163071D01*
X132520Y187402D02*
X191693D01*
X225394D01*
X125512Y180394D02*
X132520Y187402D01*
X225394D02*
X235906Y176890D01*
X191811Y170866D02*
Y179449D01*
X173006Y43578D02*
Y52824D01*
X142120Y35866D02*
Y44528D01*
X172047Y69291D02*
X172841Y68498D01*
X169141Y72991D02*
X172841Y69291D01*
D25*
X52716Y96667D02*
X65742D01*
X37396Y90945D02*
X42283D01*
X40157Y21063D02*
X43110Y18110D01*
X30709Y61811D02*
Y73779D01*
X103622Y61575D02*
Y71457D01*
X111823Y165748D02*
X112610Y166535D01*
X93701Y67264D02*
X95144D01*
X112211Y104514D02*
X119896D01*
X112211Y108451D02*
X119108D01*
X80104Y134652D02*
Y146850D01*
X112211Y110419D02*
X120289D01*
X112211Y100577D02*
X117179D01*
X135427Y53661D02*
Y63392D01*
X112211Y112388D02*
X121470D01*
X112211Y126167D02*
X116752D01*
X112211Y102545D02*
X118714D01*
X112211Y114356D02*
X123045D01*
X36602Y57705D02*
Y75972D01*
X112211Y116325D02*
X125014D01*
X112211Y118293D02*
X131116D01*
X87067Y67264D02*
X88701D01*
X112211Y120262D02*
X127230D01*
X103726Y135256D02*
X113825Y145354D01*
X111823Y178347D02*
X112610Y177559D01*
X112211Y122230D02*
X126325D01*
X112211Y96640D02*
X117140D01*
X61955Y100604D02*
X65742D01*
X58898Y103661D02*
X61955Y100604D01*
X57126Y103661D02*
X58898D01*
X42283Y90945D02*
X44764Y88465D01*
X31102Y74803D02*
X44764Y88465D01*
X54882D01*
X103726Y134652D02*
Y135256D01*
X125236Y149724D02*
X129921Y154409D01*
X112716Y149724D02*
X125236D01*
X129921Y154409D02*
Y176378D01*
X101758Y138766D02*
X112716Y149724D01*
X116752Y126167D02*
X120866Y130281D01*
X57081Y122441D02*
X57264Y122258D01*
X33281Y114384D02*
X65742D01*
X57264Y122258D02*
X65742D01*
X46955Y118321D02*
X65742D01*
X93701Y108661D02*
Y109449D01*
Y94882D02*
Y108661D01*
X40551Y79921D02*
X55118D01*
X61417Y79921D02*
X81890D01*
X183858Y107087D02*
Y112205D01*
X199606Y106693D02*
Y112205D01*
X119896Y104514D02*
X132677Y91732D01*
X192913D02*
X207480Y106299D01*
X132677Y91732D02*
X192913D01*
X207480Y106299D02*
Y112205D01*
X191732Y103150D02*
Y112205D01*
X182677Y94095D02*
X191732Y103150D01*
X133465Y94095D02*
X182677D01*
X183858Y112205D02*
X184252Y111811D01*
X119108Y108451D02*
X133465Y94095D01*
X175984Y103937D02*
Y112205D01*
X168504Y96457D02*
X175984Y103937D01*
X134252Y96457D02*
X168504D01*
X120289Y110419D02*
X134252Y96457D01*
X182455Y17391D02*
Y22908D01*
X198984Y29601D02*
Y30720D01*
X196634Y33071D02*
X198984Y30720D01*
X196634Y33071D02*
Y35900D01*
X160801Y24871D02*
Y29202D01*
X36614Y33858D02*
Y34646D01*
X131890Y127795D02*
Y175197D01*
X126325Y122230D02*
X131890Y127795D01*
X127230Y120262D02*
X133858Y126890D01*
Y174409D01*
X43110Y18110D02*
X50394D01*
X88701Y65748D02*
Y67264D01*
Y70748D02*
Y75315D01*
X93701Y70748D02*
X93900Y70947D01*
X93701Y65748D02*
Y67264D01*
X88701Y75315D02*
X91915Y78530D01*
X95144Y67264D02*
X97185Y69305D01*
Y73681D01*
X95884Y74982D02*
X97185Y73681D01*
X80394Y18110D02*
Y21955D01*
X99758Y41319D01*
X101772Y178347D02*
X111823D01*
X101772Y165748D02*
X111823D01*
X125014Y116325D02*
X127165Y114173D01*
X131116Y118293D02*
X131299Y118110D01*
X91915Y78530D02*
Y88183D01*
X101772Y149803D02*
Y165748D01*
X97821Y145852D02*
X101772Y149803D01*
X99789Y140341D02*
X105118Y145669D01*
X58268Y66541D02*
X66923D01*
X66929Y66536D01*
X58268Y72041D02*
Y92913D01*
X101758Y134652D02*
Y138766D01*
X70394Y18110D02*
Y25512D01*
X40157Y12205D02*
Y15157D01*
Y12205D02*
X44094Y8268D01*
X67323D01*
X70394Y11339D01*
X81890Y79921D02*
X84041Y82073D01*
Y88183D01*
X87978Y77742D02*
Y88183D01*
X85039Y69291D02*
X87067Y67264D01*
X85039Y69291D02*
Y74803D01*
X87978Y77742D01*
X70394Y11339D02*
Y18110D01*
X202756Y183465D02*
X207480Y178740D01*
Y170473D02*
Y178740D01*
X207480Y170473D02*
X207480Y170473D01*
X127165Y114173D02*
X138976D01*
X142126Y117323D01*
Y126378D01*
X135827Y132677D02*
X142126Y126378D01*
X135827Y132677D02*
Y173622D01*
X168110Y170473D02*
Y175984D01*
X175984Y170473D02*
Y176772D01*
X183858Y170473D02*
Y179921D01*
X131890Y175197D02*
X138189Y181496D01*
X182283D01*
X183858Y179921D01*
X133858Y174409D02*
X138976Y179528D01*
X173228D01*
X175984Y176772D01*
X135827Y173622D02*
X139764Y177559D01*
X166535D01*
X168110Y175984D01*
X129921Y176378D02*
X137008Y183465D01*
X202756D01*
X199213Y111811D02*
X199606Y112205D01*
X160801Y29202D02*
X166393Y34793D01*
X167276D01*
X173006Y29990D02*
Y31963D01*
X173006Y29989D02*
X173006Y29990D01*
X174975Y25665D02*
Y31963D01*
X173394Y24083D02*
X174975Y25665D01*
X173394Y21334D02*
Y24083D01*
Y16621D02*
Y21334D01*
Y16621D02*
X174587Y15428D01*
X167494Y15422D02*
Y20934D01*
X167894Y21334D01*
X179798Y34818D02*
X181775D01*
X186992Y29601D01*
X193484D01*
Y29196D02*
X198984Y23696D01*
X193484Y29196D02*
Y29601D01*
X176944Y28419D02*
Y31963D01*
Y28419D02*
X182455Y22908D01*
X195748Y36786D02*
X196634Y35900D01*
X179798Y36786D02*
X195748D01*
X117179Y100577D02*
X121102Y96653D01*
X117140Y96640D02*
X119158Y94622D01*
X90394Y18110D02*
Y29370D01*
X119158Y58134D01*
Y94622D01*
X31890Y112992D02*
X33281Y114384D01*
X99789Y134652D02*
Y140341D01*
X97821Y134652D02*
Y145852D01*
X31890Y90945D02*
Y102992D01*
X74803Y146850D02*
X79921D01*
X79921Y146850D01*
X95669Y172244D02*
X101772Y178347D01*
X95669Y148425D02*
Y172244D01*
X148819Y65754D02*
X148981Y65591D01*
X121102Y65905D02*
X123622Y63386D01*
X121102Y65905D02*
Y96653D01*
X135427Y63392D02*
Y68504D01*
X123622Y63386D02*
X135421D01*
X135427Y63392D01*
X160801Y13215D02*
Y19371D01*
Y13215D02*
X164094Y9922D01*
X167494D01*
X171117Y6299D01*
X178740D01*
X180087Y7646D01*
Y9522D01*
X199286D01*
X202134Y35900D02*
Y38811D01*
X200222Y40723D02*
X202134Y38811D01*
X179798Y40723D02*
X200222D01*
X185433Y21654D02*
X187475Y23696D01*
X193484D01*
X191575Y170630D02*
X191732Y170473D01*
X103726Y77736D02*
Y88183D01*
X30709Y51811D02*
X36602Y57705D01*
Y75972D02*
X40551Y79921D01*
X31102Y74803D02*
X31287Y74618D01*
X102795Y60748D02*
X103622Y61575D01*
X153268Y25703D02*
X157474Y29909D01*
Y31102D01*
X157913D01*
X163597Y36786D01*
X168184D01*
X153268Y14207D02*
Y20203D01*
X153228Y14167D02*
X153268Y14207D01*
X153228Y8667D02*
X162839D01*
X164094Y9922D01*
X280433Y113628D02*
X295545D01*
X297992Y111181D01*
X44764Y120512D02*
Y168858D01*
Y120512D02*
X46955Y118321D01*
X269803Y113628D02*
X280433D01*
X174975Y25665D02*
X178911Y21729D01*
Y21334D02*
Y21729D01*
X50394Y18110D02*
X53662D01*
X93701Y58150D01*
Y60748D01*
Y118504D02*
Y127520D01*
X91915Y129305D02*
X93701Y127520D01*
X91915Y129305D02*
Y134652D01*
X44764Y168858D02*
X68071Y192165D01*
X230866Y152565D02*
X269803Y113628D01*
X230866Y152565D02*
Y175984D01*
X225866Y180984D02*
X230866Y175984D01*
X225512Y180984D02*
X225866D01*
X68071Y192165D02*
X68268Y191969D01*
X215472D01*
X118714Y102545D02*
X124409Y96850D01*
Y68110D02*
Y96850D01*
X129927Y53701D02*
Y59567D01*
Y53701D02*
X129966Y53661D01*
X81968Y52480D02*
Y75394D01*
X70394Y25512D02*
X82284Y37402D01*
Y41457D01*
X134803Y102598D02*
X163228D01*
X123045Y114356D02*
X134803Y102598D01*
X175984Y99213D02*
X183858Y107087D01*
X134449Y99410D02*
X165630D01*
X121470Y112388D02*
X134449Y99410D01*
X195433Y102520D02*
X199606Y106693D01*
X167894Y21334D02*
X173006Y26446D01*
Y29989D01*
X171037Y29187D02*
Y31963D01*
X169882Y28032D02*
X171037Y29187D01*
X169449Y28032D02*
X169882D01*
X101758Y83557D02*
Y88183D01*
Y83557D02*
X101772Y83543D01*
X95884Y74982D02*
Y88183D01*
X93900Y70947D02*
Y88183D01*
X174587Y9522D02*
X182455Y17391D01*
X31496Y90551D02*
X31890Y90945D01*
X99738Y41339D02*
Y83740D01*
X99789Y83791D01*
Y88183D01*
X199286Y9522D02*
X202756Y12992D01*
Y35278D01*
X202134Y35900D02*
X202756Y35278D01*
D26*
X101181Y111811D02*
D03*
X54882Y88465D02*
D03*
X44252Y100000D02*
D03*
X72835D02*
D03*
X103622Y71457D02*
D03*
X101181Y95157D02*
D03*
X119488Y140748D02*
D03*
X125472Y155630D02*
D03*
X127874Y129724D02*
D03*
X105433Y123858D02*
D03*
X57205Y129409D02*
D03*
X72742Y122258D02*
D03*
X93701Y118504D02*
D03*
Y108661D02*
D03*
Y94882D02*
D03*
X105118Y151969D02*
D03*
X102795Y60748D02*
D03*
X225512Y180984D02*
D03*
X215472Y191969D02*
D03*
X191693Y187402D02*
D03*
X124409Y68110D02*
D03*
X129927Y59567D02*
D03*
X81968Y52480D02*
D03*
X82284Y41457D02*
D03*
D27*
X297992Y101181D02*
D03*
Y111181D02*
D03*
Y121181D02*
D03*
Y91181D02*
D03*
D28*
X30709Y61811D02*
D03*
Y51811D02*
D03*
Y41811D02*
D03*
X31890Y102992D02*
D03*
Y112992D02*
D03*
X262835Y84252D02*
D03*
Y94252D02*
D03*
X132283Y25591D02*
D03*
X142283D02*
D03*
X140315Y76772D02*
D03*
X130315D02*
D03*
X217323Y72047D02*
D03*
X227323D02*
D03*
D29*
X142559Y44528D02*
D03*
D30*
X132559D02*
D03*
D31*
X93701Y70748D02*
D03*
Y65748D02*
D03*
X88701Y70748D02*
D03*
Y65748D02*
D03*
Y60748D02*
D03*
D32*
X93701D02*
D03*
D33*
X58661Y40354D02*
D03*
Y160433D02*
D03*
X256299Y40354D02*
D03*
Y160433D02*
D03*
D34*
X175541Y39320D02*
D03*
Y36220D02*
D03*
X172441Y39320D02*
D03*
Y36220D02*
D03*
X111575Y66457D02*
D03*
X129409Y135315D02*
D03*
X137441Y126417D02*
D03*
X160866Y107992D02*
D03*
X158780Y168425D02*
D03*
X144882Y161693D02*
D03*
X158622Y145984D02*
D03*
X144882Y138976D02*
D03*
X156535Y124567D02*
D03*
D35*
X100394Y18110D02*
D03*
X80394D02*
D03*
X60394D02*
D03*
X90394D02*
D03*
X70394D02*
D03*
D36*
X50394D02*
D03*
D37*
X88976Y123622D02*
D03*
Y99213D02*
D03*
D38*
X57126Y103661D02*
D03*
X55118Y79921D02*
D03*
X61417Y79921D02*
D03*
X105118Y145669D02*
D03*
X58268Y92913D02*
D03*
X178911Y21334D02*
D03*
X95669Y148425D02*
D03*
X185433Y21654D02*
D03*
X81968Y75394D02*
D03*
X163228Y102598D02*
D03*
X175984Y99213D02*
D03*
X165630Y99410D02*
D03*
X195433Y102520D02*
D03*
X169449Y28032D02*
D03*
X199286Y9522D02*
D03*
D39*
X91339Y151969D02*
D03*
X191811Y179449D02*
D03*
D40*
X101772Y83543D02*
D03*
M02*
