G04 Layer_Color=8388736*
%FSLAX25Y25*%
%MOIN*%
G70*
G01*
G75*
%ADD10R,0.03000X0.03000*%
%ADD11R,0.04134X0.07677*%
%ADD12R,0.03543X0.03150*%
%ADD13R,0.03150X0.03543*%
%ADD14R,0.05200X0.02200*%
%ADD16R,0.01102X0.03347*%
%ADD17R,0.03347X0.01102*%
%ADD18R,0.03000X0.03000*%
%ADD19R,0.06693X0.00866*%
%ADD20R,0.00866X0.06693*%
G04:AMPARAMS|DCode=21|XSize=39.37mil|YSize=98.42mil|CornerRadius=0mil|HoleSize=0mil|Usage=FLASHONLY|Rotation=45.000|XOffset=0mil|YOffset=0mil|HoleType=Round|Shape=Rectangle|*
%AMROTATEDRECTD21*
4,1,4,0.02088,-0.04872,-0.04872,0.02088,-0.02088,0.04872,0.04872,-0.02088,0.02088,-0.04872,0.0*
%
%ADD21ROTATEDRECTD21*%

G04:AMPARAMS|DCode=22|XSize=39.37mil|YSize=98.42mil|CornerRadius=0mil|HoleSize=0mil|Usage=FLASHONLY|Rotation=315.000|XOffset=0mil|YOffset=0mil|HoleType=Round|Shape=Rectangle|*
%AMROTATEDRECTD22*
4,1,4,-0.04872,-0.02088,0.02088,0.04872,0.04872,0.02088,-0.02088,-0.04872,-0.04872,-0.02088,0.0*
%
%ADD22ROTATEDRECTD22*%

%ADD23R,0.07480X0.05118*%
%ADD26C,0.03347*%
%ADD27C,0.05118*%
%ADD28C,0.06000*%
%ADD29C,0.05905*%
%ADD30R,0.05905X0.05905*%
%ADD31C,0.04000*%
%ADD32R,0.03862X0.03862*%
%ADD33C,0.21654*%
%ADD34C,0.02000*%
%ADD35O,0.05500X0.07000*%
%ADD36R,0.05500X0.07000*%
%ADD37C,0.03937*%
%ADD38C,0.03000*%
%ADD39C,0.03543*%
%ADD40C,0.01890*%
%ADD53R,0.00093X0.00093*%
G36*
X177587Y40108D02*
Y38533D01*
Y37008D01*
Y35433D01*
Y34174D01*
X170395D01*
Y35433D01*
Y37008D01*
Y38533D01*
Y40108D01*
Y41367D01*
X177587D01*
Y40108D01*
D02*
G37*
G36*
X181745Y33992D02*
X177851D01*
Y35643D01*
X181745D01*
Y33992D01*
D02*
G37*
G36*
Y35961D02*
X177851D01*
Y37611D01*
X181745D01*
Y35961D01*
D02*
G37*
G36*
X170131D02*
X166237D01*
Y37611D01*
X170131D01*
Y35961D01*
D02*
G37*
G36*
Y33992D02*
X166237D01*
Y35643D01*
X170131D01*
Y33992D01*
D02*
G37*
G36*
X173832Y30016D02*
X172181D01*
Y33911D01*
X173832D01*
Y30016D01*
D02*
G37*
G36*
X171863D02*
X170212D01*
Y33911D01*
X171863D01*
Y30016D01*
D02*
G37*
G36*
X177770D02*
X176119D01*
Y33911D01*
X177770D01*
Y30016D01*
D02*
G37*
G36*
X175801D02*
X174150D01*
Y33911D01*
X175801D01*
Y30016D01*
D02*
G37*
G36*
X170131Y37929D02*
X166237D01*
Y39580D01*
X170131D01*
Y37929D01*
D02*
G37*
G36*
X171863Y41630D02*
X170212D01*
Y45525D01*
X171863D01*
Y41630D01*
D02*
G37*
G36*
X181745Y39898D02*
X177851D01*
Y41548D01*
X181745D01*
Y39898D01*
D02*
G37*
G36*
X173832Y41630D02*
X172181D01*
Y45525D01*
X173832D01*
Y41630D01*
D02*
G37*
G36*
X177770D02*
X176119D01*
Y45525D01*
X177770D01*
Y41630D01*
D02*
G37*
G36*
X175801D02*
X174150D01*
Y45525D01*
X175801D01*
Y41630D01*
D02*
G37*
G36*
X170131Y39898D02*
X166237D01*
Y41548D01*
X170131D01*
Y39898D01*
D02*
G37*
G36*
X181745Y37929D02*
X177851D01*
Y39580D01*
X181745D01*
Y37929D01*
D02*
G37*
%LPC*%
G36*
X173228Y40108D02*
X171653D01*
Y38533D01*
X173228D01*
Y40108D01*
D02*
G37*
G36*
X176328Y37008D02*
X174753D01*
Y35433D01*
X176328D01*
Y37008D01*
D02*
G37*
G36*
Y40108D02*
X174753D01*
Y38533D01*
X176328D01*
Y40108D01*
D02*
G37*
G36*
X173228Y37008D02*
X171653D01*
Y35433D01*
X173228D01*
Y37008D01*
D02*
G37*
%LPD*%
D10*
X119325Y145354D02*
D03*
X113825D02*
D03*
X172841Y70079D02*
D03*
X178341D02*
D03*
X141569Y35866D02*
D03*
X136069D02*
D03*
X178512Y58341D02*
D03*
X173012D02*
D03*
X118104Y178347D02*
D03*
X112604D02*
D03*
X118104Y165748D02*
D03*
X112604D02*
D03*
X109246Y77598D02*
D03*
X103746D02*
D03*
X51581Y122441D02*
D03*
X57081D02*
D03*
X178734Y52362D02*
D03*
X173234D02*
D03*
X178341Y64173D02*
D03*
X172841D02*
D03*
X135467Y53661D02*
D03*
X129966D02*
D03*
X129927Y68504D02*
D03*
X135427D02*
D03*
X193484Y23696D02*
D03*
X198984D02*
D03*
X180087Y9522D02*
D03*
X174587D02*
D03*
X193484Y29601D02*
D03*
X198984D02*
D03*
X180087Y15428D02*
D03*
X174587D02*
D03*
X167894Y21334D02*
D03*
X173394D02*
D03*
X196634Y35900D02*
D03*
X202134D02*
D03*
X157474Y31102D02*
D03*
X151974D02*
D03*
X37396Y90551D02*
D03*
X31896D02*
D03*
X36411Y73779D02*
D03*
X30911D02*
D03*
X137002Y118110D02*
D03*
X131502D02*
D03*
D11*
X168110Y112205D02*
D03*
X175984D02*
D03*
X183858D02*
D03*
X191732D02*
D03*
X199606D02*
D03*
X207480D02*
D03*
X215354D02*
D03*
X223228D02*
D03*
Y170473D02*
D03*
X215354D02*
D03*
X207480D02*
D03*
X199606D02*
D03*
X191732D02*
D03*
X183858D02*
D03*
X175984D02*
D03*
X168110D02*
D03*
D12*
X74803Y146850D02*
D03*
Y152362D02*
D03*
D13*
X79921Y146850D02*
D03*
X85433D02*
D03*
X160984Y52756D02*
D03*
X166496D02*
D03*
D14*
X155136Y65591D02*
D03*
Y72991D02*
D03*
X165336D02*
D03*
Y69291D02*
D03*
Y65591D02*
D03*
D16*
X171037Y43578D02*
D03*
X173006D02*
D03*
X174975D02*
D03*
X176944D02*
D03*
Y31963D02*
D03*
X174975D02*
D03*
X173006D02*
D03*
X171037D02*
D03*
D17*
X179798Y40723D02*
D03*
Y38755D02*
D03*
Y36786D02*
D03*
Y34818D02*
D03*
X168184D02*
D03*
Y36786D02*
D03*
Y38755D02*
D03*
Y40723D02*
D03*
D18*
X148819Y65754D02*
D03*
Y71254D02*
D03*
X160801Y24871D02*
D03*
Y19371D02*
D03*
X52716Y102317D02*
D03*
Y96817D02*
D03*
X120866Y135782D02*
D03*
Y130281D02*
D03*
X66929Y66536D02*
D03*
Y72035D02*
D03*
X153268Y20203D02*
D03*
Y25703D02*
D03*
X167494Y9922D02*
D03*
Y15422D02*
D03*
X153228Y8667D02*
D03*
Y14167D02*
D03*
X58268Y72041D02*
D03*
Y66541D02*
D03*
X280433Y119128D02*
D03*
Y113628D02*
D03*
X40157Y15360D02*
D03*
Y20860D02*
D03*
D19*
X112211Y96640D02*
D03*
Y118293D02*
D03*
X65742Y100604D02*
D03*
Y102573D02*
D03*
X112211Y98608D02*
D03*
Y126167D02*
D03*
Y124199D02*
D03*
Y122230D02*
D03*
Y120262D02*
D03*
Y116325D02*
D03*
Y114356D02*
D03*
Y112388D02*
D03*
Y110419D02*
D03*
Y108451D02*
D03*
Y106482D02*
D03*
Y104514D02*
D03*
Y102545D02*
D03*
Y100577D02*
D03*
X65742Y96667D02*
D03*
Y98636D02*
D03*
Y104541D02*
D03*
Y106510D02*
D03*
Y108478D02*
D03*
Y110447D02*
D03*
Y112415D02*
D03*
Y114384D02*
D03*
Y116352D02*
D03*
Y118321D02*
D03*
Y120289D02*
D03*
Y122258D02*
D03*
Y124226D02*
D03*
Y126195D02*
D03*
D20*
X103726Y134652D02*
D03*
X101758D02*
D03*
X89947D02*
D03*
X84041D02*
D03*
X87978D02*
D03*
X103726Y88183D02*
D03*
X101758Y88183D02*
D03*
X99789D02*
D03*
X97821D02*
D03*
X95852D02*
D03*
X93884D02*
D03*
X91915D02*
D03*
X89947D02*
D03*
X87978D02*
D03*
X86010D02*
D03*
X84041D02*
D03*
X82073D02*
D03*
X80104D02*
D03*
X78136D02*
D03*
X76167D02*
D03*
X74199D02*
D03*
Y134652D02*
D03*
X76167D02*
D03*
X78136D02*
D03*
X80104D02*
D03*
X82073D02*
D03*
X86010D02*
D03*
X91915D02*
D03*
X93884D02*
D03*
X95852D02*
D03*
X97821D02*
D03*
X99789D02*
D03*
D21*
X65354Y87795D02*
D03*
X112598Y135039D02*
D03*
D22*
X65354D02*
D03*
X112598Y87795D02*
D03*
D23*
X101772Y165748D02*
D03*
Y178347D02*
D03*
X80118D02*
D03*
Y165748D02*
D03*
D26*
X101181Y111811D02*
D03*
X54882Y88465D02*
D03*
X44252Y100000D02*
D03*
X72835D02*
D03*
X103622Y71457D02*
D03*
X101181Y95157D02*
D03*
X119488Y140748D02*
D03*
X125472Y155630D02*
D03*
X127874Y129724D02*
D03*
X105433Y123858D02*
D03*
X57205Y129409D02*
D03*
X72742Y122258D02*
D03*
X93701Y118504D02*
D03*
Y108661D02*
D03*
Y94882D02*
D03*
X105118Y151969D02*
D03*
X102795Y60748D02*
D03*
X225512Y180984D02*
D03*
X215472Y191969D02*
D03*
X191693Y187402D02*
D03*
X124409Y68110D02*
D03*
X129927Y59567D02*
D03*
X81968Y52480D02*
D03*
X82284Y41457D02*
D03*
D27*
X297992Y101181D02*
D03*
Y111181D02*
D03*
Y121181D02*
D03*
Y91181D02*
D03*
D28*
X30709Y61811D02*
D03*
Y51811D02*
D03*
Y41811D02*
D03*
X31890Y102992D02*
D03*
Y112992D02*
D03*
X262835Y84252D02*
D03*
Y94252D02*
D03*
X132283Y25591D02*
D03*
X142283D02*
D03*
X140315Y76772D02*
D03*
X130315D02*
D03*
X217323Y72047D02*
D03*
X227323D02*
D03*
D29*
X142559Y44528D02*
D03*
D30*
X132559D02*
D03*
D31*
X93701Y70748D02*
D03*
Y65748D02*
D03*
X88701Y70748D02*
D03*
Y65748D02*
D03*
Y60748D02*
D03*
D32*
X93701D02*
D03*
D33*
X58661Y40354D02*
D03*
Y160433D02*
D03*
X256299Y40354D02*
D03*
Y160433D02*
D03*
D34*
X175541Y39320D02*
D03*
Y36220D02*
D03*
X172441Y39320D02*
D03*
Y36220D02*
D03*
X111575Y66457D02*
D03*
X129409Y135315D02*
D03*
X137441Y126417D02*
D03*
X160866Y107992D02*
D03*
X158780Y168425D02*
D03*
X144882Y161693D02*
D03*
X158622Y145984D02*
D03*
X144882Y138976D02*
D03*
X156535Y124567D02*
D03*
D35*
X100394Y18110D02*
D03*
X80394D02*
D03*
X60394D02*
D03*
X90394D02*
D03*
X70394D02*
D03*
D36*
X50394D02*
D03*
D37*
X88976Y123622D02*
D03*
Y99213D02*
D03*
D38*
X57126Y103661D02*
D03*
X55118Y79921D02*
D03*
X61417Y79921D02*
D03*
X105118Y145669D02*
D03*
X58268Y92913D02*
D03*
X178911Y21334D02*
D03*
X95669Y148425D02*
D03*
X185433Y21654D02*
D03*
X81968Y75394D02*
D03*
X163228Y102598D02*
D03*
X175984Y99213D02*
D03*
X165630Y99410D02*
D03*
X195433Y102520D02*
D03*
X169449Y28032D02*
D03*
X199286Y9522D02*
D03*
D39*
X91339Y151969D02*
D03*
X191811Y179449D02*
D03*
D40*
X101772Y83543D02*
D03*
D53*
X173991Y37771D02*
D03*
M02*
