G04 Layer_Color=16711935*
%FSLAX25Y25*%
%MOIN*%
G70*
G01*
G75*
%ADD26C,0.06000*%
%ADD27C,0.05118*%
%ADD28C,0.05905*%
%ADD29R,0.05905X0.05905*%
%ADD30C,0.03937*%
%ADD31O,0.05500X0.07000*%
%ADD32R,0.05500X0.07000*%
%ADD33C,0.04000*%
%ADD34R,0.03862X0.03862*%
%ADD35C,0.21654*%
%ADD36C,0.02000*%
%ADD37C,0.03347*%
%ADD38C,0.03000*%
%ADD39C,0.03543*%
D26*
X130315Y76772D02*
D03*
X140315D02*
D03*
X227323Y72047D02*
D03*
X217323D02*
D03*
X30709Y61811D02*
D03*
Y51811D02*
D03*
Y41811D02*
D03*
X31890Y102992D02*
D03*
Y112992D02*
D03*
X262835Y84252D02*
D03*
Y94252D02*
D03*
X132283Y25591D02*
D03*
X142283D02*
D03*
D27*
X297992Y101181D02*
D03*
Y111181D02*
D03*
Y121181D02*
D03*
Y91181D02*
D03*
D28*
X142283Y46850D02*
D03*
D29*
X132283D02*
D03*
D30*
X88976Y99213D02*
D03*
Y123622D02*
D03*
X101181Y111811D02*
D03*
D31*
X100394Y18110D02*
D03*
X80394D02*
D03*
X60394D02*
D03*
X90394D02*
D03*
X70394D02*
D03*
D32*
X50394D02*
D03*
D33*
X93701Y70748D02*
D03*
Y65748D02*
D03*
X88701Y70748D02*
D03*
Y65748D02*
D03*
Y60748D02*
D03*
D34*
X93701D02*
D03*
D35*
X58661Y40354D02*
D03*
Y160433D02*
D03*
X256299Y40354D02*
D03*
Y160433D02*
D03*
D36*
X175541Y39320D02*
D03*
Y36220D02*
D03*
X172441Y39320D02*
D03*
Y36220D02*
D03*
D37*
X93701Y118504D02*
D03*
Y108661D02*
D03*
Y94882D02*
D03*
X129921Y61024D02*
D03*
X124409Y66142D02*
D03*
X191732Y186221D02*
D03*
X105118Y151969D02*
D03*
X127559Y147638D02*
D03*
X102795Y60748D02*
D03*
X223661Y183189D02*
D03*
X217047Y189803D02*
D03*
X83386Y42126D02*
D03*
X83465Y50512D02*
D03*
D38*
X55118Y79921D02*
D03*
X61417Y79921D02*
D03*
X175984Y99213D02*
D03*
X194488Y101575D02*
D03*
X170472D02*
D03*
X166929Y99213D02*
D03*
X85433Y79528D02*
D03*
X105118Y145669D02*
D03*
X58268Y92913D02*
D03*
Y100787D02*
D03*
X178911Y21334D02*
D03*
X95669Y148425D02*
D03*
X185433Y21654D02*
D03*
D39*
X91339Y151969D02*
D03*
X191732Y180315D02*
D03*
M02*
