G04 Layer_Color=65535*
%FSLAX25Y25*%
%MOIN*%
G70*
G01*
G75*
%ADD25C,0.01000*%
%ADD41C,0.00787*%
%ADD42C,0.00600*%
%ADD43C,0.01500*%
%ADD44C,0.00984*%
%ADD45C,0.00500*%
%ADD46C,0.00800*%
%ADD47C,0.00472*%
%ADD48C,0.00236*%
%ADD49C,0.00394*%
%ADD50C,0.00598*%
%ADD51C,0.00300*%
G36*
X183471Y36036D02*
X182471D01*
Y37536D01*
X183471D01*
Y36036D01*
D02*
G37*
G36*
X168844Y101889D02*
X167323D01*
Y103937D01*
X168844D01*
Y101889D01*
D02*
G37*
D25*
X132799Y18090D02*
G03*
X132799Y18090I-508J0D01*
G01*
X140815Y84272D02*
G03*
X140815Y84272I-508J0D01*
G01*
X217839Y64547D02*
G03*
X217839Y64547I-508J0D01*
G01*
X107445Y177547D02*
G03*
X107445Y177547I-500J0D01*
G01*
X287016Y82496D02*
X308197D01*
X287016D02*
Y129465D01*
Y129740D02*
X308197D01*
Y82496D02*
Y129740D01*
X36614Y34646D02*
Y69291D01*
X24803D02*
X36614D01*
X24803Y33858D02*
Y69291D01*
Y33858D02*
X36614D01*
X24390Y120492D02*
X39390D01*
X24390Y95492D02*
X39390D01*
X24390D02*
Y120492D01*
X39390Y95492D02*
Y120492D01*
X122936Y14014D02*
X121936Y15014D01*
X119937D01*
X118937Y14014D01*
Y13014D01*
X119937Y12015D01*
X121936D01*
X122936Y11015D01*
Y10015D01*
X121936Y9016D01*
X119937D01*
X118937Y10015D01*
X127934Y15014D02*
X125935D01*
X124935Y14014D01*
Y10015D01*
X125935Y9016D01*
X127934D01*
X128934Y10015D01*
Y14014D01*
X127934Y15014D01*
X130933D02*
Y9016D01*
X134932D01*
X136931D02*
Y13014D01*
X138930Y15014D01*
X140930Y13014D01*
Y9016D01*
Y12015D01*
X136931D01*
X142929Y9016D02*
Y15014D01*
X145928D01*
X146928Y14014D01*
Y12015D01*
X145928Y11015D01*
X142929D01*
X144929D02*
X146928Y9016D01*
X15616Y33307D02*
X21614D01*
Y36306D01*
X20615Y37306D01*
X16616D01*
X15616Y36306D01*
Y33307D01*
X16616Y43304D02*
X15616Y42304D01*
Y40305D01*
X16616Y39305D01*
X17616D01*
X18615Y40305D01*
Y42304D01*
X19615Y43304D01*
X20615D01*
X21614Y42304D01*
Y40305D01*
X20615Y39305D01*
X21614Y45303D02*
Y47303D01*
Y46303D01*
X15616D01*
X16616Y45303D01*
Y50302D02*
X15616Y51301D01*
Y53301D01*
X16616Y54300D01*
X17616D01*
X18615Y53301D01*
X19615Y54300D01*
X20615D01*
X21614Y53301D01*
Y51301D01*
X20615Y50302D01*
X19615D01*
X18615Y51301D01*
X17616Y50302D01*
X16616D01*
X18615Y51301D02*
Y53301D01*
X15616Y56300D02*
X21614D01*
Y59299D01*
X20615Y60298D01*
X19615D01*
X18615Y59299D01*
Y56300D01*
Y59299D01*
X17616Y60298D01*
X16616D01*
X15616Y59299D01*
Y56300D01*
X21614Y66296D02*
Y62298D01*
X17616Y66296D01*
X16616D01*
X15616Y65297D01*
Y63297D01*
X16616Y62298D01*
Y68296D02*
X15616Y69296D01*
Y71295D01*
X16616Y72294D01*
X20615D01*
X21614Y71295D01*
Y69296D01*
X20615Y68296D01*
X16616D01*
X17049Y96991D02*
X16049Y95991D01*
Y93992D01*
X17049Y92992D01*
X18048D01*
X19048Y93992D01*
Y95991D01*
X20048Y96991D01*
X21048D01*
X22047Y95991D01*
Y93992D01*
X21048Y92992D01*
X16049Y98990D02*
X22047D01*
X20048Y100989D01*
X22047Y102989D01*
X16049D01*
Y104988D02*
Y106988D01*
Y105988D01*
X22047D01*
Y104988D01*
Y106988D01*
X16049Y109987D02*
Y113985D01*
Y111986D01*
X22047D01*
X17049Y119983D02*
X16049Y118984D01*
Y116984D01*
X17049Y115985D01*
X21048D01*
X22047Y116984D01*
Y118984D01*
X21048Y119983D01*
X16049Y121983D02*
X22047D01*
X19048D01*
Y125981D01*
X16049D01*
X22047D01*
X6915Y99826D02*
Y95827D01*
X9914D01*
Y97826D01*
Y95827D01*
X12913D01*
X6915Y101825D02*
X12913D01*
Y105824D01*
X6915Y110822D02*
Y108823D01*
X7915Y107823D01*
X11914D01*
X12913Y108823D01*
Y110822D01*
X11914Y111822D01*
X7915D01*
X6915Y110822D01*
X12913Y113821D02*
X8915D01*
X6915Y115820D01*
X8915Y117820D01*
X12913D01*
X9914D01*
Y113821D01*
X6915Y119819D02*
Y123818D01*
Y121818D01*
X12913D01*
X285039Y79069D02*
Y73071D01*
X288038D01*
X289038Y74071D01*
Y78069D01*
X288038Y79069D01*
X285039D01*
X291037D02*
Y73071D01*
Y76070D01*
X295036D01*
Y79069D01*
Y73071D01*
X297036Y79069D02*
X301034D01*
X299035D01*
Y73071D01*
X303034D02*
X305033D01*
X304033D01*
Y79069D01*
X303034Y78069D01*
X308032Y73071D02*
X310031D01*
X309032D01*
Y79069D01*
X308032Y78069D01*
X231575Y143951D02*
Y137953D01*
X235574D01*
X240572Y143951D02*
X238573D01*
X237573Y142951D01*
Y138952D01*
X238573Y137953D01*
X240572D01*
X241572Y138952D01*
Y142951D01*
X240572Y143951D01*
X243571Y137953D02*
Y143951D01*
X246570D01*
X247570Y142951D01*
Y140952D01*
X246570Y139952D01*
X243571D01*
X245570D02*
X247570Y137953D01*
X249569D02*
Y141952D01*
X251568Y143951D01*
X253568Y141952D01*
Y137953D01*
Y140952D01*
X249569D01*
X255567Y136953D02*
X259566D01*
X265564Y142951D02*
X264564Y143951D01*
X262565D01*
X261565Y142951D01*
Y141952D01*
X262565Y140952D01*
X264564D01*
X265564Y139952D01*
Y138952D01*
X264564Y137953D01*
X262565D01*
X261565Y138952D01*
X271562Y143951D02*
X267563D01*
Y137953D01*
X271562D01*
X267563Y140952D02*
X269563D01*
X273561Y137953D02*
Y143951D01*
X277560Y137953D01*
Y143951D01*
X283558Y142951D02*
X282558Y143951D01*
X280559D01*
X279559Y142951D01*
Y141952D01*
X280559Y140952D01*
X282558D01*
X283558Y139952D01*
Y138952D01*
X282558Y137953D01*
X280559D01*
X279559Y138952D01*
X288556Y143951D02*
X286557D01*
X285557Y142951D01*
Y138952D01*
X286557Y137953D01*
X288556D01*
X289556Y138952D01*
Y142951D01*
X288556Y143951D01*
X291555Y137953D02*
Y143951D01*
X294554D01*
X295554Y142951D01*
Y140952D01*
X294554Y139952D01*
X291555D01*
X293555D02*
X295554Y137953D01*
X301552Y142951D02*
X300553Y143951D01*
X298553D01*
X297553Y142951D01*
Y141952D01*
X298553Y140952D01*
X300553D01*
X301552Y139952D01*
Y138952D01*
X300553Y137953D01*
X298553D01*
X297553Y138952D01*
X303552Y136953D02*
X307550D01*
X309550Y137953D02*
X311549D01*
X310549D01*
Y143951D01*
X309550Y142951D01*
D41*
X169258Y102953D02*
G03*
X169258Y102953I-1148J0D01*
G01*
X164173Y109843D02*
Y172835D01*
X227165Y109843D02*
Y172835D01*
X127559Y49528D02*
X147559D01*
X127559Y39528D02*
Y49528D01*
Y39528D02*
X147559D01*
Y49528D01*
X73425Y155118D02*
X76181D01*
X158228Y51378D02*
Y54134D01*
X105394Y13110D02*
Y23110D01*
X45394Y13110D02*
Y23110D01*
X105394D01*
X45394Y13110D02*
X105394D01*
D42*
X161436Y63291D02*
G03*
X159036Y63291I-1200J0D01*
G01*
X119075Y147354D02*
X121575D01*
Y143354D02*
Y147354D01*
X119075Y143354D02*
X121575D01*
X111575D02*
X114075D01*
X111575D02*
Y147354D01*
X114075D01*
X161436Y63291D02*
X162236D01*
X159036D02*
X161436D01*
X158236D02*
X159036D01*
X178806Y30570D02*
X181192D01*
X166790D02*
Y32956D01*
Y42584D02*
Y44971D01*
X178806D02*
X181192D01*
Y30570D02*
Y32956D01*
X166790Y30570D02*
X169176D01*
X181192Y42584D02*
Y44971D01*
X166790D02*
X169176D01*
X146819Y63504D02*
Y66004D01*
Y63504D02*
X150819D01*
Y66004D01*
Y71004D02*
Y73504D01*
X146819D02*
X150819D01*
X146819Y71004D02*
Y73504D01*
X170591Y72079D02*
X173091D01*
X170591Y68079D02*
Y72079D01*
Y68079D02*
X173091D01*
X178091D02*
X180591D01*
Y72079D01*
X178091D02*
X180591D01*
X162801Y24621D02*
Y27121D01*
X158801D02*
X162801D01*
X158801Y24621D02*
Y27121D01*
Y17121D02*
Y19621D01*
Y17121D02*
X162801D01*
Y19621D01*
X141319Y33866D02*
X143819D01*
Y37866D01*
X141319D02*
X143819D01*
X133819D02*
X136319D01*
X133819Y33866D02*
Y37866D01*
Y33866D02*
X136319D01*
X178262Y56341D02*
X180762D01*
Y60341D01*
X178262D02*
X180762D01*
X170762D02*
X173262D01*
X170762Y56341D02*
Y60341D01*
Y56341D02*
X173262D01*
X117854Y176347D02*
X120354D01*
Y180347D01*
X117854D02*
X120354D01*
X110354D02*
X112854D01*
X110354Y176347D02*
Y180347D01*
Y176347D02*
X112854D01*
X117854Y163748D02*
X120354D01*
Y167748D01*
X117854D02*
X120354D01*
X110354D02*
X112854D01*
X110354Y163748D02*
Y167748D01*
Y163748D02*
X112854D01*
X54716Y102067D02*
Y104567D01*
X50717D02*
X54716D01*
X50717Y102067D02*
Y104567D01*
Y94567D02*
Y97067D01*
Y94567D02*
X54716D01*
Y97067D01*
X122866Y135531D02*
Y138031D01*
X118866D02*
X122866D01*
X118866Y135531D02*
Y138031D01*
Y128032D02*
Y130532D01*
Y128032D02*
X122866D01*
Y130532D01*
X108996Y75598D02*
X111496D01*
Y79598D01*
X108996D02*
X111496D01*
X101496D02*
X103996D01*
X101496Y75598D02*
Y79598D01*
Y75598D02*
X103996D01*
X49331Y124441D02*
X51831D01*
X49331Y120441D02*
Y124441D01*
Y120441D02*
X51831D01*
X56831D02*
X59331D01*
Y124441D01*
X56831D02*
X59331D01*
X178484Y50362D02*
X180984D01*
Y54362D01*
X178484D02*
X180984D01*
X170984D02*
X173484D01*
X170984Y50362D02*
Y54362D01*
Y50362D02*
X173484D01*
X104915Y131167D02*
X106415D01*
X108415Y129167D01*
Y127167D02*
Y129167D01*
Y92167D02*
Y95167D01*
X105415Y92167D02*
X108415D01*
X69915D02*
X72915D01*
X69915D02*
Y95167D01*
Y127667D02*
Y130667D01*
X72915D01*
X127287Y20587D02*
X147287D01*
Y30587D01*
X127287D02*
X147287D01*
X127287Y20587D02*
Y30587D01*
X137287Y20587D02*
Y30587D01*
X125311Y81775D02*
X145311D01*
X125311Y71776D02*
Y81775D01*
Y71776D02*
X145311D01*
Y81775D01*
X135311Y71776D02*
Y81775D01*
X212327Y67043D02*
X232327D01*
Y77043D01*
X212327D02*
X232327D01*
X212327Y67043D02*
Y77043D01*
X222327Y67043D02*
Y77043D01*
D43*
X51152Y10610D02*
G03*
X51152Y10610I-750J0D01*
G01*
D44*
X103938Y140417D02*
G03*
X103938Y140417I-231J0D01*
G01*
D45*
X68429Y63785D02*
X69429Y64785D01*
X64429D02*
X65429Y63785D01*
X69429Y64785D02*
Y66786D01*
X65429Y63785D02*
X68429D01*
X64429Y64785D02*
Y66786D01*
Y71785D02*
Y74286D01*
X69429D01*
Y71785D02*
Y74286D01*
D46*
X155268Y17953D02*
Y20453D01*
X151268Y17953D02*
X155268D01*
X151268D02*
Y20453D01*
Y25453D02*
Y27953D01*
X155268D01*
Y25453D02*
Y27953D01*
X178091Y66173D02*
X180591D01*
Y62173D02*
Y66173D01*
X178091Y62173D02*
X180591D01*
X170591D02*
X173091D01*
X170591D02*
Y66173D01*
X173091D01*
X135216Y55661D02*
X137716D01*
Y51661D02*
Y55661D01*
X135216Y51661D02*
X137716D01*
X127717D02*
X130217D01*
X127717D02*
Y55661D01*
X130217D01*
X127677Y66504D02*
X130177D01*
X127677D02*
Y70504D01*
X130177D01*
X135177D02*
X137677D01*
Y66504D02*
Y70504D01*
X135177Y66504D02*
X137677D01*
X191234Y21696D02*
X193734D01*
X191234D02*
Y25696D01*
X193734D01*
X198734D02*
X201234D01*
Y21696D02*
Y25696D01*
X198734Y21696D02*
X201234D01*
X179837Y11522D02*
X182337D01*
Y7522D02*
Y11522D01*
X179837Y7522D02*
X182337D01*
X172337D02*
X174837D01*
X172337D02*
Y11522D01*
X174837D01*
X169494Y7672D02*
Y10172D01*
X165494Y7672D02*
X169494D01*
X165494D02*
Y10172D01*
Y15172D02*
Y17672D01*
X169494D01*
Y15172D02*
Y17672D01*
X191234Y27601D02*
X193734D01*
X191234D02*
Y31601D01*
X193734D01*
X198734D02*
X201234D01*
Y27601D02*
Y31601D01*
X198734Y27601D02*
X201234D01*
X179837Y17428D02*
X182337D01*
Y13428D02*
Y17428D01*
X179837Y13428D02*
X182337D01*
X172337D02*
X174837D01*
X172337D02*
Y17428D01*
X174837D01*
X165644Y19333D02*
X168144D01*
X165644D02*
Y23334D01*
X168144D01*
X173144D02*
X175644D01*
Y19333D02*
Y23334D01*
X173144Y19333D02*
X175644D01*
X194384Y33900D02*
X196884D01*
X194384D02*
Y37900D01*
X196884D01*
X201884D02*
X204384D01*
Y33900D02*
Y37900D01*
X201884Y33900D02*
X204384D01*
X155228Y6417D02*
Y8917D01*
X151228Y6417D02*
X155228D01*
X151228D02*
Y8917D01*
Y13917D02*
Y16417D01*
X155228D01*
Y13917D02*
Y16417D01*
X157224Y33102D02*
X159724D01*
Y29102D02*
Y33102D01*
X157224Y29102D02*
X159724D01*
X149724D02*
X152224D01*
X149724D02*
Y33102D01*
X152224D01*
X56268Y71791D02*
Y74291D01*
X60268D01*
Y71791D02*
Y74291D01*
Y64291D02*
Y66791D01*
X56268Y64291D02*
X60268D01*
X56268D02*
Y66791D01*
X37146Y92551D02*
X39646D01*
Y88551D02*
Y92551D01*
X37146Y88551D02*
X39646D01*
X29646D02*
X32146D01*
X29646D02*
Y92551D01*
X32146D01*
X278433Y118878D02*
Y121378D01*
X282433D01*
Y118878D02*
Y121378D01*
Y111378D02*
Y113878D01*
X278433Y111378D02*
X282433D01*
X278433D02*
Y113878D01*
X36161Y75779D02*
X38661D01*
Y71780D02*
Y75779D01*
X36161Y71780D02*
X38661D01*
X28661D02*
X31161D01*
X28661D02*
Y75779D01*
X31161D01*
X42158Y13110D02*
Y15610D01*
X38157Y13110D02*
X42158D01*
X38157D02*
Y15610D01*
Y20610D02*
Y23110D01*
X42158D01*
Y20610D02*
Y23110D01*
X136752Y120110D02*
X139252D01*
Y116110D02*
Y120110D01*
X136752Y116110D02*
X139252D01*
X129252D02*
X131752D01*
X129252D02*
Y120110D01*
X131752D01*
X101772Y169173D02*
Y174843D01*
X85445Y164547D02*
X96445D01*
X85445Y179547D02*
X96445D01*
X73445Y165547D02*
Y178547D01*
X108445Y164547D02*
Y179547D01*
X106945Y164547D02*
X108445D01*
X106945Y179547D02*
X108445D01*
X73445Y178547D02*
Y179547D01*
X74945D01*
X73445Y164547D02*
Y165547D01*
Y164547D02*
X74945D01*
D47*
X125131Y146600D02*
X124606Y147125D01*
X123556D01*
X123031Y146600D01*
Y144501D01*
X123556Y143976D01*
X124606D01*
X125131Y144501D01*
X126180Y143976D02*
X127230D01*
X126705D01*
Y147125D01*
X126180Y146600D01*
X128804D02*
X129329Y147125D01*
X130378D01*
X130903Y146600D01*
Y144501D01*
X130378Y143976D01*
X129329D01*
X128804Y144501D01*
Y146600D01*
X224016Y104723D02*
Y102100D01*
X224540Y101575D01*
X225590D01*
X226115Y102100D01*
Y104723D01*
X227164Y101575D02*
X228214D01*
X227689D01*
Y104723D01*
X227164Y104199D01*
X226508Y81495D02*
X225459D01*
X225984D01*
Y78871D01*
X225459Y78347D01*
X224934D01*
X224410Y78871D01*
X227558Y78347D02*
Y81495D01*
X229132D01*
X229657Y80970D01*
Y79921D01*
X229132Y79396D01*
X227558D01*
X230707Y80970D02*
X231231Y81495D01*
X232281D01*
X232806Y80970D01*
Y80445D01*
X232281Y79921D01*
X231756D01*
X232281D01*
X232806Y79396D01*
Y78871D01*
X232281Y78347D01*
X231231D01*
X230707Y78871D01*
X127296Y86220D02*
X126246D01*
X126771D01*
Y83596D01*
X126246Y83071D01*
X125722D01*
X125197Y83596D01*
X128345Y83071D02*
Y86220D01*
X129920D01*
X130445Y85695D01*
Y84645D01*
X129920Y84120D01*
X128345D01*
X133593Y83071D02*
X131494D01*
X133593Y85170D01*
Y85695D01*
X133068Y86220D01*
X132019D01*
X131494Y85695D01*
X134173Y121378D02*
Y124527D01*
X135748D01*
X136272Y124002D01*
Y122952D01*
X135748Y122427D01*
X134173D01*
X135223D02*
X136272Y121378D01*
X139421D02*
X137322D01*
X139421Y123477D01*
Y124002D01*
X138896Y124527D01*
X137847D01*
X137322Y124002D01*
X36220Y12992D02*
X33072D01*
Y14567D01*
X33597Y15091D01*
X34646D01*
X35171Y14567D01*
Y12992D01*
Y14042D02*
X36220Y15091D01*
Y16141D02*
Y17190D01*
Y16666D01*
X33072D01*
X33597Y16141D01*
X72835Y144094D02*
Y140945D01*
X74934D01*
X75983D02*
X77033D01*
X76508D01*
Y144094D01*
X75983Y143569D01*
X56430Y127821D02*
X55905Y128345D01*
X54856D01*
X54331Y127821D01*
Y125722D01*
X54856Y125197D01*
X55905D01*
X56430Y125722D01*
X57479Y128345D02*
X59578D01*
Y127821D01*
X57479Y125722D01*
Y125197D01*
X108398Y74159D02*
X107873Y74684D01*
X106824D01*
X106299Y74159D01*
Y72060D01*
X106824Y71535D01*
X107873D01*
X108398Y72060D01*
X111547Y74684D02*
X110497Y74159D01*
X109448Y73110D01*
Y72060D01*
X109973Y71535D01*
X111022D01*
X111547Y72060D01*
Y72585D01*
X111022Y73110D01*
X109448D01*
X124935Y134743D02*
X124410Y134218D01*
Y133168D01*
X124935Y132644D01*
X127034D01*
X127559Y133168D01*
Y134218D01*
X127034Y134743D01*
X124410Y137891D02*
Y135792D01*
X125985D01*
X125460Y136842D01*
Y137367D01*
X125985Y137891D01*
X127034D01*
X127559Y137367D01*
Y136317D01*
X127034Y135792D01*
X52453Y108102D02*
X51929Y108627D01*
X50879D01*
X50354Y108102D01*
Y106003D01*
X50879Y105478D01*
X51929D01*
X52453Y106003D01*
X55077Y105478D02*
Y108627D01*
X53503Y107053D01*
X55602D01*
X90288Y147899D02*
X89763Y148424D01*
X88714D01*
X88189Y147899D01*
Y145800D01*
X88714Y145276D01*
X89763D01*
X90288Y145800D01*
X91338Y147899D02*
X91862Y148424D01*
X92912D01*
X93437Y147899D01*
Y147375D01*
X92912Y146850D01*
X92387D01*
X92912D01*
X93437Y146325D01*
Y145800D01*
X92912Y145276D01*
X91862D01*
X91338Y145800D01*
X66929Y179527D02*
X69028Y176378D01*
Y179527D02*
X66929Y176378D01*
X70078D02*
X71127D01*
X70603D01*
Y179527D01*
X70078Y179002D01*
X85433Y113778D02*
Y111155D01*
X85958Y110630D01*
X87007D01*
X87532Y111155D01*
Y113778D01*
X90681Y110630D02*
X88582D01*
X90681Y112729D01*
Y113254D01*
X90156Y113778D01*
X89106D01*
X88582Y113254D01*
X124146Y166797D02*
X123621Y167322D01*
X122572D01*
X122047Y166797D01*
Y164698D01*
X122572Y164173D01*
X123621D01*
X124146Y164698D01*
X127295Y164173D02*
X125196D01*
X127295Y166272D01*
Y166797D01*
X126770Y167322D01*
X125721D01*
X125196Y166797D01*
X124146Y179395D02*
X123621Y179920D01*
X122572D01*
X122047Y179395D01*
Y177296D01*
X122572Y176772D01*
X123621D01*
X124146Y177296D01*
X125196Y176772D02*
X126245D01*
X125721D01*
Y179920D01*
X125196Y179395D01*
X40236Y72165D02*
Y75314D01*
X41811D01*
X42335Y74789D01*
Y73740D01*
X41811Y73215D01*
X40236D01*
X41286D02*
X42335Y72165D01*
X43385Y74789D02*
X43910Y75314D01*
X44959D01*
X45484Y74789D01*
Y74264D01*
X44959Y73740D01*
X44434D01*
X44959D01*
X45484Y73215D01*
Y72690D01*
X44959Y72165D01*
X43910D01*
X43385Y72690D01*
X276732Y116102D02*
X273584D01*
Y117677D01*
X274108Y118201D01*
X275158D01*
X275683Y117677D01*
Y116102D01*
Y117152D02*
X276732Y118201D01*
Y120825D02*
X273584D01*
X275158Y119251D01*
Y121350D01*
X33071Y29528D02*
Y32676D01*
X34645D01*
X35170Y32151D01*
Y31102D01*
X34645Y30577D01*
X33071D01*
X36219Y29528D02*
X37269D01*
X36744D01*
Y32676D01*
X36219Y32151D01*
X279921Y85512D02*
Y88660D01*
X281496D01*
X282020Y88136D01*
Y87086D01*
X281496Y86561D01*
X279921D01*
X285169Y85512D02*
X283070D01*
X285169Y87611D01*
Y88136D01*
X284644Y88660D01*
X283595D01*
X283070Y88136D01*
X27953Y88189D02*
X24804D01*
Y89763D01*
X25329Y90288D01*
X26378D01*
X26903Y89763D01*
Y88189D01*
Y89239D02*
X27953Y90288D01*
X24804Y93437D02*
Y91338D01*
X26378D01*
X25854Y92387D01*
Y92912D01*
X26378Y93437D01*
X27428D01*
X27953Y92912D01*
Y91862D01*
X27428Y91338D01*
X34567Y121653D02*
Y124802D01*
X36141D01*
X36666Y124277D01*
Y123228D01*
X36141Y122703D01*
X34567D01*
X37716Y124277D02*
X38240Y124802D01*
X39290D01*
X39815Y124277D01*
Y123753D01*
X39290Y123228D01*
X38765D01*
X39290D01*
X39815Y122703D01*
Y122178D01*
X39290Y121653D01*
X38240D01*
X37716Y122178D01*
X100524Y10892D02*
X99999Y11416D01*
X98950D01*
X98425Y10892D01*
Y8793D01*
X98950Y8268D01*
X99999D01*
X100524Y8793D01*
X101574Y8268D02*
Y11416D01*
X103673Y8268D01*
Y11416D01*
X104722Y8268D02*
X105772D01*
X105247D01*
Y11416D01*
X104722Y10892D01*
X87402Y53937D02*
Y57086D01*
X88976D01*
X89501Y56561D01*
Y55511D01*
X88976Y54987D01*
X87402D01*
X92124Y53937D02*
Y57086D01*
X90550Y55511D01*
X92649D01*
X64961Y62597D02*
Y59449D01*
X67060D01*
X68109Y62597D02*
Y59449D01*
X69683D01*
X70208Y59974D01*
Y62073D01*
X69683Y62597D01*
X68109D01*
X71258Y59449D02*
X72307D01*
X71783D01*
Y62597D01*
X71258Y62073D01*
X55905Y59449D02*
Y62597D01*
X57480D01*
X58005Y62073D01*
Y61023D01*
X57480Y60498D01*
X55905D01*
X56955D02*
X58005Y59449D01*
X61153Y62597D02*
X60104Y62073D01*
X59054Y61023D01*
Y59974D01*
X59579Y59449D01*
X60628D01*
X61153Y59974D01*
Y60498D01*
X60628Y61023D01*
X59054D01*
X148701Y46496D02*
Y49645D01*
X150275D01*
X150800Y49120D01*
Y48070D01*
X150275Y47546D01*
X148701D01*
X153948Y49645D02*
X151849D01*
Y48070D01*
X152899Y48595D01*
X153424D01*
X153948Y48070D01*
Y47021D01*
X153424Y46496D01*
X152374D01*
X151849Y47021D01*
X255354Y75432D02*
Y72284D01*
X256929D01*
X257453Y72808D01*
Y73333D01*
X256929Y73858D01*
X255354D01*
X256929D01*
X257453Y74383D01*
Y74907D01*
X256929Y75432D01*
X255354D01*
X258503D02*
X260602D01*
X259553D01*
Y72284D01*
X261651D02*
X262701D01*
X262176D01*
Y75432D01*
X261651Y74907D01*
X138976Y66929D02*
Y70078D01*
X140551D01*
X141075Y69553D01*
Y68503D01*
X140551Y67979D01*
X138976D01*
X140026D02*
X141075Y66929D01*
X142125Y70078D02*
X144224D01*
Y69553D01*
X142125Y67454D01*
Y66929D01*
X139016Y52480D02*
Y55629D01*
X140590D01*
X141115Y55104D01*
Y54055D01*
X140590Y53530D01*
X139016D01*
X140065D02*
X141115Y52480D01*
X142164Y55104D02*
X142689Y55629D01*
X143739D01*
X144263Y55104D01*
Y54579D01*
X143739Y54055D01*
X144263Y53530D01*
Y53005D01*
X143739Y52480D01*
X142689D01*
X142164Y53005D01*
Y53530D01*
X142689Y54055D01*
X142164Y54579D01*
Y55104D01*
X142689Y54055D02*
X143739D01*
X312624Y129803D02*
X309737Y126917D01*
Y129803D02*
X312624Y126917D01*
X311180Y129803D02*
Y126917D01*
X309737Y128360D02*
X312624D01*
X41167Y69331D02*
X38281Y66444D01*
Y69331D02*
X41167Y66444D01*
X39724Y69331D02*
Y66444D01*
X38281Y67888D02*
X41167D01*
X148583Y44960D02*
X150682D01*
X149632Y46010D02*
Y43911D01*
X123425Y45039D02*
X125524D01*
D48*
X182939Y52887D02*
X182677Y53149D01*
X182152D01*
X181890Y52887D01*
Y51837D01*
X182152Y51575D01*
X182677D01*
X182939Y51837D01*
X183464Y53149D02*
Y51575D01*
X184251D01*
X184514Y51837D01*
Y52100D01*
X184251Y52362D01*
X183464D01*
X184251D01*
X184514Y52624D01*
Y52887D01*
X184251Y53149D01*
X183464D01*
X185038D02*
Y52887D01*
X185563Y52362D01*
X186088Y52887D01*
Y53149D01*
X185563Y52362D02*
Y51575D01*
X186613D02*
Y53149D01*
X187400D01*
X187662Y52887D01*
Y52362D01*
X187400Y52100D01*
X186613D01*
X182717Y58866D02*
X182455Y59128D01*
X181930D01*
X181667Y58866D01*
Y57816D01*
X181930Y57554D01*
X182455D01*
X182717Y57816D01*
X184291Y58866D02*
X184029Y59128D01*
X183504D01*
X183242Y58866D01*
Y58604D01*
X183504Y58341D01*
X184029D01*
X184291Y58079D01*
Y57816D01*
X184029Y57554D01*
X183504D01*
X183242Y57816D01*
X184816Y59128D02*
X185865D01*
X185341D01*
Y57554D01*
X187177Y59128D02*
X186653D01*
X186390Y58866D01*
Y57816D01*
X186653Y57554D01*
X187177D01*
X187440Y57816D01*
Y58866D01*
X187177Y59128D01*
X187964Y57554D02*
Y59128D01*
X188752D01*
X189014Y58866D01*
Y58341D01*
X188752Y58079D01*
X187964D01*
X188489D02*
X189014Y57554D01*
X129868Y35367D02*
X129606Y35629D01*
X129081D01*
X128819Y35367D01*
Y34317D01*
X129081Y34055D01*
X129606D01*
X129868Y34317D01*
X130393Y35629D02*
X130918D01*
X130656D01*
Y34055D01*
X130393D01*
X130918D01*
X131705D02*
Y35629D01*
X132755Y34055D01*
Y35629D01*
X159095Y15952D02*
X158833Y16215D01*
X158308D01*
X158045Y15952D01*
Y14903D01*
X158308Y14640D01*
X158833D01*
X159095Y14903D01*
X159620Y14640D02*
Y16215D01*
X160407D01*
X160669Y15952D01*
Y15428D01*
X160407Y15165D01*
X159620D01*
X160144D02*
X160669Y14640D01*
X162243Y16215D02*
X161194D01*
Y14640D01*
X162243D01*
X161194Y15428D02*
X161719D01*
X163818Y16215D02*
X162768D01*
Y15428D01*
X163293D01*
X162768D01*
Y14640D01*
X149606Y33858D02*
Y35432D01*
X150393D01*
X150656Y35170D01*
Y34645D01*
X150393Y34383D01*
X149606D01*
X150131D02*
X150656Y33858D01*
X151968Y35432D02*
X151443D01*
X151181Y35170D01*
Y34121D01*
X151443Y33858D01*
X151968D01*
X152230Y34121D01*
Y35170D01*
X151968Y35432D01*
X153804Y35170D02*
X153542Y35432D01*
X153017D01*
X152755Y35170D01*
Y34121D01*
X153017Y33858D01*
X153542D01*
X153804Y34121D01*
X155379Y33858D02*
X154329D01*
X155379Y34908D01*
Y35170D01*
X155116Y35432D01*
X154592D01*
X154329Y35170D01*
X150866Y3937D02*
Y5511D01*
X151653D01*
X151916Y5249D01*
Y4724D01*
X151653Y4462D01*
X150866D01*
X151391D02*
X151916Y3937D01*
X153228Y5511D02*
X152703D01*
X152440Y5249D01*
Y4199D01*
X152703Y3937D01*
X153228D01*
X153490Y4199D01*
Y5249D01*
X153228Y5511D01*
X155064Y5249D02*
X154802Y5511D01*
X154277D01*
X154015Y5249D01*
Y4199D01*
X154277Y3937D01*
X154802D01*
X155064Y4199D01*
X155589Y3937D02*
X156114D01*
X155851D01*
Y5511D01*
X155589Y5249D01*
X205289Y35113D02*
Y36687D01*
X206077D01*
X206339Y36425D01*
Y35900D01*
X206077Y35638D01*
X205289D01*
X205814D02*
X206339Y35113D01*
X207651Y36687D02*
X207126D01*
X206864Y36425D01*
Y35375D01*
X207126Y35113D01*
X207651D01*
X207913Y35375D01*
Y36425D01*
X207651Y36687D01*
X208438D02*
Y35113D01*
Y35638D01*
X209488Y36687D01*
X208700Y35900D01*
X209488Y35113D01*
X210012D02*
X210537D01*
X210275D01*
Y36687D01*
X210012Y36425D01*
X176549Y23696D02*
Y25270D01*
X177336D01*
X177599Y25008D01*
Y24483D01*
X177336Y24220D01*
X176549D01*
X177074D02*
X177599Y23696D01*
X178911Y25270D02*
X178386D01*
X178124Y25008D01*
Y23958D01*
X178386Y23696D01*
X178911D01*
X179173Y23958D01*
Y25008D01*
X178911Y25270D01*
X179698D02*
Y24220D01*
X180223Y23696D01*
X180747Y24220D01*
Y25270D01*
X182322Y23696D02*
X181272D01*
X182322Y24745D01*
Y25008D01*
X182059Y25270D01*
X181535D01*
X181272Y25008D01*
X183242Y14640D02*
Y16215D01*
X184029D01*
X184292Y15952D01*
Y15428D01*
X184029Y15165D01*
X183242D01*
X183767D02*
X184292Y14640D01*
X184817Y16215D02*
Y14903D01*
X185079Y14640D01*
X185604D01*
X185866Y14903D01*
Y16215D01*
X186391D02*
Y15165D01*
X186916Y14640D01*
X187440Y15165D01*
Y16215D01*
X189015Y14640D02*
X187965D01*
X189015Y15690D01*
Y15952D01*
X188752Y16215D01*
X188227D01*
X187965Y15952D01*
X202140Y28814D02*
Y30388D01*
X202927D01*
X203189Y30126D01*
Y29601D01*
X202927Y29338D01*
X202140D01*
X202665D02*
X203189Y28814D01*
X204501Y30388D02*
X203976D01*
X203714Y30126D01*
Y29076D01*
X203976Y28814D01*
X204501D01*
X204764Y29076D01*
Y30126D01*
X204501Y30388D01*
X205288D02*
Y28814D01*
Y29338D01*
X206338Y30388D01*
X205551Y29601D01*
X206338Y28814D01*
X207912D02*
X206863D01*
X207912Y29863D01*
Y30126D01*
X207650Y30388D01*
X207125D01*
X206863Y30126D01*
X165132Y5192D02*
Y6766D01*
X165919D01*
X166182Y6504D01*
Y5979D01*
X165919Y5717D01*
X165132D01*
X165657D02*
X166182Y5192D01*
X167493Y6766D02*
X166969D01*
X166706Y6504D01*
Y5454D01*
X166969Y5192D01*
X167493D01*
X167756Y5454D01*
Y6504D01*
X167493Y6766D01*
X168280D02*
Y5717D01*
X168805Y5192D01*
X169330Y5717D01*
Y6766D01*
X169855Y5192D02*
X170380D01*
X170117D01*
Y6766D01*
X169855Y6504D01*
X183242Y8735D02*
Y10309D01*
X184029D01*
X184292Y10047D01*
Y9522D01*
X184029Y9260D01*
X183242D01*
X183767D02*
X184292Y8735D01*
X184817Y10309D02*
Y8997D01*
X185079Y8735D01*
X185604D01*
X185866Y8997D01*
Y10309D01*
X186391D02*
Y9260D01*
X186916Y8735D01*
X187440Y9260D01*
Y10309D01*
X187965Y8735D02*
X188490D01*
X188227D01*
Y10309D01*
X187965Y10047D01*
X202140Y22908D02*
Y24483D01*
X202927D01*
X203189Y24220D01*
Y23695D01*
X202927Y23433D01*
X202140D01*
X202665D02*
X203189Y22908D01*
X204501Y24483D02*
X203976D01*
X203714Y24220D01*
Y23171D01*
X203976Y22908D01*
X204501D01*
X204764Y23171D01*
Y24220D01*
X204501Y24483D01*
X205288D02*
Y22908D01*
Y23433D01*
X206338Y24483D01*
X205551Y23695D01*
X206338Y22908D01*
X206863Y24220D02*
X207125Y24483D01*
X207650D01*
X207912Y24220D01*
Y23958D01*
X207650Y23695D01*
X207387D01*
X207650D01*
X207912Y23433D01*
Y23171D01*
X207650Y22908D01*
X207125D01*
X206863Y23171D01*
X183636Y46530D02*
Y45218D01*
X183898Y44956D01*
X184423D01*
X184685Y45218D01*
Y46530D01*
X186260D02*
X185735Y46267D01*
X185210Y45743D01*
Y45218D01*
X185473Y44956D01*
X185997D01*
X186260Y45218D01*
Y45480D01*
X185997Y45743D01*
X185210D01*
X182546Y70603D02*
X182283Y70866D01*
X181758D01*
X181496Y70603D01*
Y69554D01*
X181758Y69291D01*
X182283D01*
X182546Y69554D01*
X183070Y70603D02*
X183333Y70866D01*
X183858D01*
X184120Y70603D01*
Y70341D01*
X183858Y70078D01*
X184120Y69816D01*
Y69554D01*
X183858Y69291D01*
X183333D01*
X183070Y69554D01*
Y69816D01*
X183333Y70078D01*
X183070Y70341D01*
Y70603D01*
X183333Y70078D02*
X183858D01*
X147900Y62335D02*
X147637Y62598D01*
X147113D01*
X146850Y62335D01*
Y61286D01*
X147113Y61024D01*
X147637D01*
X147900Y61286D01*
X148425D02*
X148687Y61024D01*
X149212D01*
X149474Y61286D01*
Y62335D01*
X149212Y62598D01*
X148687D01*
X148425Y62335D01*
Y62073D01*
X148687Y61811D01*
X149474D01*
X153543Y61417D02*
Y60105D01*
X153806Y59842D01*
X154330D01*
X154593Y60105D01*
Y61417D01*
X155118D02*
X156167D01*
Y61154D01*
X155118Y60105D01*
Y59842D01*
X144357Y19291D02*
X143832D01*
X144094D01*
Y17979D01*
X143832Y17717D01*
X143570D01*
X143307Y17979D01*
X144881Y17717D02*
Y19291D01*
X145668D01*
X145931Y19028D01*
Y18504D01*
X145668Y18241D01*
X144881D01*
X146456Y17717D02*
X146980D01*
X146718D01*
Y19291D01*
X146456Y19028D01*
X181890Y63386D02*
Y64960D01*
X182677D01*
X182939Y64698D01*
Y64173D01*
X182677Y63911D01*
X181890D01*
X182414D02*
X182939Y63386D01*
X183464Y63648D02*
X183726Y63386D01*
X184251D01*
X184514Y63648D01*
Y64698D01*
X184251Y64960D01*
X183726D01*
X183464Y64698D01*
Y64435D01*
X183726Y64173D01*
X184514D01*
X160906Y57165D02*
Y55590D01*
X161955D01*
X162480Y57165D02*
Y55590D01*
X163267D01*
X163529Y55853D01*
Y56115D01*
X163267Y56378D01*
X162480D01*
X163267D01*
X163529Y56640D01*
Y56902D01*
X163267Y57165D01*
X162480D01*
X165104Y56902D02*
X164841Y57165D01*
X164316D01*
X164054Y56902D01*
Y56640D01*
X164316Y56378D01*
X164841D01*
X165104Y56115D01*
Y55853D01*
X164841Y55590D01*
X164316D01*
X164054Y55853D01*
X165628Y57165D02*
X166678D01*
X166153D01*
Y55590D01*
X150276Y18819D02*
X148701D01*
Y19606D01*
X148964Y19868D01*
X149488D01*
X149751Y19606D01*
Y18819D01*
Y19344D02*
X150276Y19868D01*
X148701Y21180D02*
Y20656D01*
X148964Y20393D01*
X150013D01*
X150276Y20656D01*
Y21180D01*
X150013Y21443D01*
X148964D01*
X148701Y21180D01*
X148964Y23017D02*
X148701Y22755D01*
Y22230D01*
X148964Y21968D01*
X150013D01*
X150276Y22230D01*
Y22755D01*
X150013Y23017D01*
X150276Y23542D02*
Y24067D01*
Y23804D01*
X148701D01*
X148964Y23542D01*
X150276Y24854D02*
X148701D01*
Y25641D01*
X148964Y25903D01*
X149488D01*
X149751Y25641D01*
Y24854D01*
D49*
X254724Y84330D02*
X258660D01*
X257125Y96220D02*
Y92285D01*
X259093Y94253D02*
X255157D01*
D50*
X254961Y129095D02*
Y133093D01*
X256960D01*
X257626Y132427D01*
Y131094D01*
X256960Y130427D01*
X254961D01*
X256294D02*
X257626Y129095D01*
X260959D02*
X259626D01*
X258959Y129761D01*
Y131094D01*
X259626Y131760D01*
X260959D01*
X261625Y131094D01*
Y130427D01*
X258959D01*
X262958Y131760D02*
X264291Y129095D01*
X265624Y131760D01*
X266957Y129095D02*
Y129761D01*
X267623D01*
Y129095D01*
X266957D01*
X274288D02*
X275621D01*
X274954D01*
Y133093D01*
X274288Y132427D01*
X277620Y129095D02*
Y129761D01*
X278286D01*
Y129095D01*
X277620D01*
X280952Y132427D02*
X281619Y133093D01*
X282952D01*
X283618Y132427D01*
Y129761D01*
X282952Y129095D01*
X281619D01*
X280952Y129761D01*
Y132427D01*
D51*
X164011Y47373D02*
X167343Y44041D01*
X164011D02*
X167343Y47373D01*
X164011Y45707D02*
X167343D01*
X165677Y44041D02*
Y47373D01*
M02*
