G04 Layer_Color=8421504*
%FSLAX25Y25*%
%MOIN*%
G70*
G01*
G75*
%ADD10R,0.03000X0.03000*%
%ADD11R,0.04134X0.07677*%
%ADD12R,0.07480X0.05118*%
%ADD13R,0.00866X0.06693*%
%ADD14R,0.06693X0.00866*%
G04:AMPARAMS|DCode=15|XSize=39.37mil|YSize=98.42mil|CornerRadius=0mil|HoleSize=0mil|Usage=FLASHONLY|Rotation=315.000|XOffset=0mil|YOffset=0mil|HoleType=Round|Shape=Rectangle|*
%AMROTATEDRECTD15*
4,1,4,-0.04872,-0.02088,0.02088,0.04872,0.04872,0.02088,-0.02088,-0.04872,-0.04872,-0.02088,0.0*
%
%ADD15ROTATEDRECTD15*%

G04:AMPARAMS|DCode=16|XSize=39.37mil|YSize=98.42mil|CornerRadius=0mil|HoleSize=0mil|Usage=FLASHONLY|Rotation=45.000|XOffset=0mil|YOffset=0mil|HoleType=Round|Shape=Rectangle|*
%AMROTATEDRECTD16*
4,1,4,0.02088,-0.04872,-0.04872,0.02088,-0.02088,0.04872,0.04872,-0.02088,0.02088,-0.04872,0.0*
%
%ADD16ROTATEDRECTD16*%

%ADD17R,0.03543X0.03150*%
%ADD18R,0.03000X0.03000*%
%ADD19R,0.03150X0.03543*%
%ADD23R,0.05200X0.02200*%
%ADD51R,0.00100X0.00100*%
G36*
X177042Y34719D02*
X175935D01*
Y35270D01*
X176491Y35827D01*
X177042D01*
Y34719D01*
D02*
G37*
G36*
X175147Y35270D02*
Y34719D01*
X172835D01*
Y35270D01*
X173391Y35827D01*
X174591D01*
X175147Y35270D01*
D02*
G37*
G36*
X172047D02*
Y34719D01*
X170940D01*
Y35827D01*
X171491D01*
X172047Y35270D01*
D02*
G37*
G36*
Y38370D02*
Y37171D01*
X171491Y36614D01*
X170940D01*
Y38927D01*
X171491D01*
X172047Y38370D01*
D02*
G37*
G36*
X181373Y36333D02*
X178223D01*
Y37239D01*
X181373D01*
Y36333D01*
D02*
G37*
G36*
X169759D02*
X166609D01*
Y37239D01*
X169759D01*
Y36333D01*
D02*
G37*
G36*
X175429Y30388D02*
X174522D01*
Y33539D01*
X175429D01*
Y30388D01*
D02*
G37*
G36*
X173460D02*
X172553D01*
Y33539D01*
X173460D01*
Y30388D01*
D02*
G37*
G36*
X171491D02*
X170584D01*
Y33539D01*
X171491D01*
Y30388D01*
D02*
G37*
G36*
X181373Y34365D02*
X178223D01*
Y35271D01*
X181373D01*
Y34365D01*
D02*
G37*
G36*
X169759D02*
X166609D01*
Y35271D01*
X169759D01*
Y34365D01*
D02*
G37*
G36*
X177398Y30388D02*
X176491D01*
Y33539D01*
X177398D01*
Y30388D01*
D02*
G37*
G36*
X175147Y38370D02*
Y37171D01*
X174591Y36614D01*
X173391D01*
X172835Y37171D01*
Y38370D01*
X173391Y38927D01*
X174591D01*
X175147Y38370D01*
D02*
G37*
G36*
X171491Y42002D02*
X170584D01*
Y45153D01*
X171491D01*
Y42002D01*
D02*
G37*
G36*
X181373Y40270D02*
X178223D01*
Y41176D01*
X181373D01*
Y40270D01*
D02*
G37*
G36*
X169759D02*
X166609D01*
Y41176D01*
X169759D01*
Y40270D01*
D02*
G37*
G36*
X177398Y42002D02*
X176491D01*
Y45153D01*
X177398D01*
Y42002D01*
D02*
G37*
G36*
X175429D02*
X174522D01*
Y45153D01*
X175429D01*
Y42002D01*
D02*
G37*
G36*
X173460D02*
X172553D01*
Y45153D01*
X173460D01*
Y42002D01*
D02*
G37*
G36*
X181373Y38302D02*
X178223D01*
Y39208D01*
X181373D01*
Y38302D01*
D02*
G37*
G36*
X169759D02*
X166609D01*
Y39208D01*
X169759D01*
Y38302D01*
D02*
G37*
G36*
X177042Y36614D02*
X176491D01*
X175935Y37171D01*
Y38370D01*
X176491Y38927D01*
X177042D01*
Y36614D01*
D02*
G37*
G36*
Y39714D02*
X176491D01*
X175935Y40271D01*
Y40822D01*
X177042D01*
Y39714D01*
D02*
G37*
G36*
X175147Y40271D02*
X174591Y39714D01*
X173391D01*
X172835Y40271D01*
Y40822D01*
X175147D01*
Y40271D01*
D02*
G37*
G36*
X172047D02*
X171491Y39714D01*
X170940D01*
Y40822D01*
X172047D01*
Y40271D01*
D02*
G37*
D10*
X173234Y52362D02*
D03*
X178734D02*
D03*
X112604Y165748D02*
D03*
X118104D02*
D03*
X37396Y90551D02*
D03*
X31896D02*
D03*
X36411Y73779D02*
D03*
X30911D02*
D03*
X112604Y178347D02*
D03*
X118104D02*
D03*
X57081Y122441D02*
D03*
X51581D02*
D03*
X137002Y118110D02*
D03*
X131502D02*
D03*
X178512Y58341D02*
D03*
X173012D02*
D03*
X141569Y35866D02*
D03*
X136069D02*
D03*
X157474Y31102D02*
D03*
X151974D02*
D03*
X196634Y35900D02*
D03*
X202134D02*
D03*
X167894Y21334D02*
D03*
X173394D02*
D03*
X180087Y15428D02*
D03*
X174587D02*
D03*
X193484Y29601D02*
D03*
X198984D02*
D03*
X180087Y9522D02*
D03*
X174587D02*
D03*
X193484Y23696D02*
D03*
X198984D02*
D03*
X172841Y70079D02*
D03*
X178341D02*
D03*
X129927Y68504D02*
D03*
X135427D02*
D03*
Y56299D02*
D03*
X129927D02*
D03*
X178341Y64173D02*
D03*
X172841D02*
D03*
D11*
X168110Y112205D02*
D03*
X175984D02*
D03*
X183858D02*
D03*
X191732D02*
D03*
X199606D02*
D03*
X207480D02*
D03*
X215354D02*
D03*
X223228D02*
D03*
Y170473D02*
D03*
X215354D02*
D03*
X207480D02*
D03*
X199606D02*
D03*
X191732D02*
D03*
X183858D02*
D03*
X175984D02*
D03*
X168110D02*
D03*
D12*
X80118Y165748D02*
D03*
Y178347D02*
D03*
X101772D02*
D03*
Y165748D02*
D03*
D13*
X99789Y134652D02*
D03*
X97821D02*
D03*
X95852D02*
D03*
X93884D02*
D03*
X91915D02*
D03*
X86010D02*
D03*
X82073D02*
D03*
X80104D02*
D03*
X78136D02*
D03*
X76167D02*
D03*
X74199D02*
D03*
Y88183D02*
D03*
X76167D02*
D03*
X78136D02*
D03*
X80104D02*
D03*
X82073D02*
D03*
X84041D02*
D03*
X86010D02*
D03*
X87978D02*
D03*
X89947D02*
D03*
X91915D02*
D03*
X93884D02*
D03*
X95852D02*
D03*
X97821D02*
D03*
X99789D02*
D03*
X101758D02*
D03*
X103726Y88183D02*
D03*
X87978Y134652D02*
D03*
X84041D02*
D03*
X89947D02*
D03*
X101758D02*
D03*
X103726D02*
D03*
D14*
X65742Y126195D02*
D03*
Y124226D02*
D03*
Y122258D02*
D03*
Y120289D02*
D03*
Y118321D02*
D03*
Y116352D02*
D03*
Y114384D02*
D03*
Y112415D02*
D03*
Y110447D02*
D03*
Y108478D02*
D03*
Y106510D02*
D03*
Y104541D02*
D03*
Y98636D02*
D03*
Y96667D02*
D03*
X112211Y100577D02*
D03*
Y102545D02*
D03*
Y104514D02*
D03*
Y106482D02*
D03*
Y108451D02*
D03*
Y110419D02*
D03*
Y112388D02*
D03*
Y114356D02*
D03*
Y116325D02*
D03*
Y120262D02*
D03*
Y122230D02*
D03*
Y124199D02*
D03*
Y126167D02*
D03*
Y98608D02*
D03*
X65742Y102573D02*
D03*
Y100604D02*
D03*
X112211Y118293D02*
D03*
Y96640D02*
D03*
D15*
X112598Y87795D02*
D03*
X65354Y135039D02*
D03*
D16*
X112598D02*
D03*
X65354Y87795D02*
D03*
D17*
X74803Y146850D02*
D03*
Y152362D02*
D03*
D18*
X280433Y119128D02*
D03*
Y113628D02*
D03*
X50000Y96850D02*
D03*
Y102350D02*
D03*
X103543Y77553D02*
D03*
Y72053D02*
D03*
X40157Y15360D02*
D03*
Y20860D02*
D03*
X124016Y136209D02*
D03*
Y130709D02*
D03*
X66929Y66536D02*
D03*
Y72035D02*
D03*
X58268Y72041D02*
D03*
Y66541D02*
D03*
X160801Y24871D02*
D03*
Y19371D02*
D03*
X153228Y8667D02*
D03*
Y14167D02*
D03*
X167494Y9922D02*
D03*
Y15422D02*
D03*
X148819Y65754D02*
D03*
Y71254D02*
D03*
X153268Y20203D02*
D03*
Y25703D02*
D03*
D19*
X79921Y146850D02*
D03*
X85433D02*
D03*
X160984Y52756D02*
D03*
X166496D02*
D03*
D23*
X155136Y65591D02*
D03*
Y72991D02*
D03*
X165336D02*
D03*
Y69291D02*
D03*
Y65591D02*
D03*
D51*
X173991Y37771D02*
D03*
M02*
