M48
;Layer_Color=9474304
;FILE_FORMAT=2:5
INCH,TZ
;TYPE=PLATED
T1F00S00C0.01000
T2F00S00C0.01500
T3F00S00C0.01772
T4F00S00C0.01968
T5F00S00C0.02358
T6F00S00C0.02362
T7F00S00C0.03000
T8F00S00C0.03150
T9F00S00C0.03543
T10F00S00C0.04000
T11F00S00C0.13976
;TYPE=NON_PLATED
T12F00S00C0.03937
%
T01
X172441Y36220
X175541
Y39320
X172441
T02
X55118Y79921
X61417Y79921
X58268Y92913
Y100787
X85433Y79528
X166929Y99213
X170472Y101575
X175984Y99213
X194488Y101575
X185433Y21654
X178911Y21334
X105118Y145669
X95669Y148425
T03
X91339Y151969
X191732Y180315
T04
X83386Y42126
X83465Y50512
X102795Y60748
X124409Y66142
X129921Y61024
X93701Y94882
Y108661
Y118504
X223661Y183189
X217047Y189803
X191732Y186221
X127559Y147638
X105118Y151969
T05
X88701Y60748
Y65748
X93701
Y70748
X88701
T06
X93701Y60748
X101181Y111811
T07
X30709Y41811
Y51811
Y61811
X31890Y102992
Y112992
X262835Y94252
Y84252
T08
X297992Y91181
Y101181
Y111181
Y121181
T09
X132283Y46850
X142283
T10
X50394Y18110
X60394
X70394
X80394
X90394
X100394
X132283Y25591
X142283
X140315Y76772
X130315
X217323Y72047
X227323
T11
X58661Y40354
X256299
Y160433
X58661
T12
X88976Y99213
Y123622
M30
